<svg width="477" height="443" viewBox="0 0 477 443" fill="none" xmlns="http://www.w3.org/2000/svg">
<line x1="29" y1="419.5" x2="477" y2="419.5" stroke="#777777"/>
<line x1="29" y1="258.5" x2="477" y2="258.5" stroke="#CCCCCC"/>
<line x1="29" y1="98.5" x2="477" y2="98.5" stroke="#CCCCCC"/>
<path d="M53.8179 437C53.7539 437 53.6979 436.976 53.6499 436.928C53.6019 436.88 53.5779 436.824 53.5779 436.76L53.6019 436.628L56.5779 428.864C56.6419 428.688 56.7699 428.6 56.9619 428.6H57.7299C57.9219 428.6 58.0499 428.688 58.1139 428.864L61.0899 436.628L61.1139 436.76C61.1139 436.824 61.0859 436.88 61.0299 436.928C60.9819 436.976 60.9259 437 60.8619 437H60.2979C60.2179 437 60.1499 436.98 60.0939 436.94C60.0459 436.892 60.0139 436.844 59.9979 436.796L59.3259 435.068H55.3539L54.6939 436.796C54.6299 436.932 54.5299 437 54.3939 437H53.8179ZM55.7019 434.072H58.9899L57.3459 429.764L55.7019 434.072ZM64.4995 437.12C63.7395 437.12 63.1515 436.876 62.7355 436.388C62.3195 435.892 62.1115 435.236 62.1115 434.42V431.036C62.1115 430.956 62.1355 430.892 62.1835 430.844C62.2395 430.788 62.3075 430.76 62.3875 430.76H62.9395C63.0195 430.76 63.0835 430.788 63.1315 430.844C63.1875 430.892 63.2155 430.956 63.2155 431.036V434.36C63.2155 435.576 63.7435 436.184 64.7995 436.184C65.3115 436.184 65.7155 436.024 66.0115 435.704C66.3155 435.376 66.4675 434.928 66.4675 434.36V431.036C66.4675 430.956 66.4915 430.892 66.5395 430.844C66.5955 430.788 66.6635 430.76 66.7435 430.76H67.2955C67.3755 430.76 67.4395 430.788 67.4875 430.844C67.5435 430.892 67.5715 430.956 67.5715 431.036V436.724C67.5715 436.804 67.5435 436.872 67.4875 436.928C67.4395 436.976 67.3755 437 67.2955 437H66.7795C66.6995 437 66.6315 436.976 66.5755 436.928C66.5275 436.872 66.5035 436.804 66.5035 436.724V436.184C66.2715 436.496 65.9995 436.732 65.6875 436.892C65.3755 437.044 64.9795 437.12 64.4995 437.12ZM71.8988 439.64C71.2348 439.64 70.7028 439.528 70.3028 439.304C69.9028 439.08 69.6188 438.824 69.4508 438.536C69.2908 438.248 69.2108 438 69.2108 437.792C69.2108 437.72 69.2388 437.656 69.2948 437.6C69.3508 437.552 69.4148 437.528 69.4868 437.528H70.0148C70.0868 437.528 70.1468 437.544 70.1948 437.576C70.2428 437.616 70.2828 437.684 70.3148 437.78C70.5388 438.42 71.0468 438.74 71.8388 438.74C72.4388 438.74 72.8828 438.612 73.1708 438.356C73.4588 438.1 73.6028 437.648 73.6028 437V436.172C73.1388 436.764 72.4908 437.06 71.6588 437.06C70.8108 437.06 70.1748 436.788 69.7508 436.244C69.3348 435.7 69.1148 435.012 69.0908 434.18L69.0788 433.844L69.0908 433.52C69.1148 432.696 69.3348 432.012 69.7508 431.468C70.1748 430.916 70.8108 430.64 71.6588 430.64C72.4988 430.64 73.1548 430.948 73.6268 431.564V431.048C73.6268 430.968 73.6508 430.9 73.6988 430.844C73.7548 430.788 73.8228 430.76 73.9028 430.76H74.4188C74.4988 430.76 74.5628 430.788 74.6108 430.844C74.6668 430.9 74.6948 430.968 74.6948 431.048V436.868C74.6948 438.716 73.7628 439.64 71.8988 439.64ZM71.8748 436.124C72.4348 436.124 72.8548 435.944 73.1348 435.584C73.4228 435.216 73.5788 434.776 73.6028 434.264C73.6108 434.192 73.6148 434.052 73.6148 433.844C73.6148 433.644 73.6108 433.508 73.6028 433.436C73.5788 432.924 73.4228 432.488 73.1348 432.128C72.8548 431.76 72.4348 431.576 71.8748 431.576C71.2988 431.576 70.8788 431.76 70.6148 432.128C70.3588 432.488 70.2188 432.956 70.1948 433.532L70.1828 433.844L70.1948 434.168C70.2188 434.744 70.3588 435.216 70.6148 435.584C70.8788 435.944 71.2988 436.124 71.8748 436.124ZM81.8686 437C81.7886 437 81.7246 436.976 81.6766 436.928C81.6286 436.872 81.6046 436.804 81.6046 436.724V429.956L79.5886 431.504C79.5326 431.552 79.4726 431.576 79.4086 431.576C79.3366 431.576 79.2686 431.536 79.2046 431.456L78.9166 431.084C78.8766 431.028 78.8566 430.972 78.8566 430.916C78.8566 430.828 78.8966 430.756 78.9766 430.7L81.5806 428.684C81.6686 428.628 81.7726 428.6 81.8926 428.6H82.4566C82.5366 428.6 82.6006 428.628 82.6486 428.684C82.7046 428.732 82.7326 428.796 82.7326 428.876V436.724C82.7326 436.804 82.7046 436.872 82.6486 436.928C82.6006 436.976 82.5366 437 82.4566 437H81.8686ZM84.5183 437C84.4383 437 84.3703 436.976 84.3143 436.928C84.2663 436.872 84.2423 436.804 84.2423 436.724V436.364C84.2423 436.18 84.3423 436.004 84.5423 435.836L87.1583 433.232C87.7503 432.728 88.1583 432.316 88.3823 431.996C88.6063 431.676 88.7183 431.336 88.7183 430.976C88.7183 430.504 88.5863 430.136 88.3223 429.872C88.0583 429.6 87.6743 429.464 87.1703 429.464C86.6903 429.464 86.3103 429.604 86.0303 429.884C85.7503 430.164 85.5783 430.54 85.5143 431.012C85.4983 431.1 85.4583 431.168 85.3943 431.216C85.3303 431.264 85.2663 431.288 85.2023 431.288H84.6263C84.5543 431.288 84.4943 431.264 84.4463 431.216C84.3983 431.168 84.3743 431.112 84.3743 431.048C84.3903 430.624 84.5023 430.216 84.7103 429.824C84.9263 429.424 85.2423 429.1 85.6583 428.852C86.0743 428.596 86.5783 428.468 87.1703 428.468C88.0663 428.468 88.7383 428.704 89.1863 429.176C89.6423 429.64 89.8703 430.232 89.8703 430.952C89.8703 431.456 89.7463 431.912 89.4983 432.32C89.2583 432.72 88.8783 433.144 88.3583 433.592L85.9943 435.992H89.7743C89.8623 435.992 89.9303 436.016 89.9783 436.064C90.0263 436.112 90.0503 436.18 90.0503 436.268V436.724C90.0503 436.804 90.0223 436.872 89.9663 436.928C89.9183 436.976 89.8543 437 89.7743 437H84.5183Z" fill="#777777"/>
<path d="M129.677 437C129.597 437 129.533 436.976 129.485 436.928C129.437 436.872 129.413 436.804 129.413 436.724V429.956L127.397 431.504C127.341 431.552 127.281 431.576 127.217 431.576C127.145 431.576 127.077 431.536 127.013 431.456L126.725 431.084C126.685 431.028 126.665 430.972 126.665 430.916C126.665 430.828 126.705 430.756 126.785 430.7L129.389 428.684C129.477 428.628 129.581 428.6 129.701 428.6H130.265C130.345 428.6 130.409 428.628 130.457 428.684C130.513 428.732 130.541 428.796 130.541 428.876V436.724C130.541 436.804 130.513 436.872 130.457 436.928C130.409 436.976 130.345 437 130.265 437H129.677ZM135.015 437.12C134.391 437.12 133.851 437.02 133.395 436.82C132.939 436.612 132.591 436.344 132.351 436.016C132.119 435.688 131.995 435.348 131.979 434.996C131.979 434.924 132.003 434.868 132.051 434.828C132.099 434.78 132.159 434.756 132.231 434.756H132.771C132.859 434.756 132.931 434.776 132.987 434.816C133.043 434.848 133.087 434.916 133.119 435.02C133.223 435.428 133.447 435.716 133.791 435.884C134.143 436.052 134.555 436.136 135.027 436.136C135.603 436.136 136.059 436 136.395 435.728C136.739 435.448 136.911 435.052 136.911 434.54C136.911 433.564 136.315 433.076 135.123 433.076H133.995C133.915 433.076 133.847 433.052 133.791 433.004C133.743 432.948 133.719 432.88 133.719 432.8V432.488C133.719 432.368 133.763 432.264 133.851 432.176L136.191 429.584H132.639C132.559 429.584 132.491 429.56 132.435 429.512C132.387 429.464 132.363 429.4 132.363 429.32V428.888C132.363 428.8 132.387 428.732 132.435 428.684C132.491 428.628 132.559 428.6 132.639 428.6H137.391C137.479 428.6 137.547 428.628 137.595 428.684C137.651 428.732 137.679 428.8 137.679 428.888V429.284C137.679 429.372 137.639 429.464 137.559 429.56L135.219 432.188H135.411C136.227 432.212 136.871 432.424 137.343 432.824C137.823 433.224 138.063 433.808 138.063 434.576C138.063 435.104 137.931 435.56 137.667 435.944C137.411 436.32 137.051 436.612 136.587 436.82C136.123 437.02 135.599 437.12 135.015 437.12Z" fill="#777777"/>
<path d="M192.554 437C192.474 437 192.41 436.976 192.362 436.928C192.314 436.872 192.29 436.804 192.29 436.724V429.956L190.274 431.504C190.218 431.552 190.158 431.576 190.094 431.576C190.022 431.576 189.954 431.536 189.89 431.456L189.602 431.084C189.562 431.028 189.542 430.972 189.542 430.916C189.542 430.828 189.582 430.756 189.662 430.7L192.266 428.684C192.354 428.628 192.458 428.6 192.578 428.6H193.142C193.222 428.6 193.286 428.628 193.334 428.684C193.39 428.732 193.418 428.796 193.418 428.876V436.724C193.418 436.804 193.39 436.872 193.334 436.928C193.286 436.976 193.222 437 193.142 437H192.554ZM199.164 437C199.084 437 199.016 436.976 198.96 436.928C198.912 436.872 198.888 436.804 198.888 436.724V434.972H194.988C194.908 434.972 194.84 434.948 194.784 434.9C194.736 434.844 194.712 434.776 194.712 434.696V434.252C194.712 434.14 194.756 434.02 194.844 433.892L198.456 428.804C198.496 428.74 198.556 428.692 198.636 428.66C198.716 428.62 198.804 428.6 198.9 428.6H199.716C199.804 428.6 199.872 428.624 199.92 428.672C199.968 428.72 199.992 428.788 199.992 428.876V433.964H201.084C201.164 433.964 201.228 433.992 201.276 434.048C201.332 434.096 201.36 434.16 201.36 434.24V434.696C201.36 434.776 201.332 434.844 201.276 434.9C201.228 434.948 201.164 434.972 201.084 434.972H199.992V436.724C199.992 436.804 199.964 436.872 199.908 436.928C199.86 436.976 199.796 437 199.716 437H199.164ZM195.96 433.988H198.9V429.812L195.96 433.988Z" fill="#777777"/>
<path d="M253.814 437C253.734 437 253.666 436.972 253.61 436.916C253.554 436.86 253.526 436.792 253.526 436.712V430.52L251.714 431.912C251.666 431.952 251.606 431.972 251.534 431.972C251.438 431.972 251.362 431.932 251.306 431.852L250.79 431.18C250.75 431.124 250.73 431.068 250.73 431.012C250.73 430.916 250.774 430.836 250.862 430.772L253.55 428.684C253.638 428.628 253.738 428.6 253.85 428.6H254.93C255.01 428.6 255.078 428.628 255.134 428.684C255.19 428.74 255.218 428.808 255.218 428.888V436.712C255.218 436.792 255.19 436.86 255.134 436.916C255.078 436.972 255.01 437 254.93 437H253.814ZM259.741 437.132C259.077 437.132 258.501 437.02 258.013 436.796C257.533 436.572 257.169 436.276 256.921 435.908C256.673 435.54 256.541 435.144 256.525 434.72V434.696C256.525 434.632 256.549 434.58 256.597 434.54C256.653 434.492 256.713 434.468 256.777 434.468H257.917C258.101 434.468 258.217 434.548 258.265 434.708C258.377 435.06 258.561 435.32 258.817 435.488C259.081 435.656 259.389 435.74 259.741 435.74C260.189 435.74 260.557 435.604 260.845 435.332C261.141 435.06 261.289 434.684 261.289 434.204C261.289 433.772 261.141 433.424 260.845 433.16C260.557 432.888 260.189 432.752 259.741 432.752C259.501 432.752 259.305 432.784 259.153 432.848C259.001 432.912 258.853 433 258.709 433.112C258.693 433.12 258.657 433.144 258.601 433.184C258.545 433.224 258.493 433.252 258.445 433.268C258.405 433.284 258.361 433.292 258.313 433.292H257.185C257.113 433.292 257.049 433.268 256.993 433.22C256.945 433.164 256.921 433.1 256.921 433.028L257.329 428.936C257.337 428.832 257.373 428.752 257.437 428.696C257.509 428.632 257.593 428.6 257.689 428.6H262.201C262.289 428.6 262.357 428.628 262.405 428.684C262.461 428.732 262.489 428.8 262.489 428.888V429.704C262.489 429.784 262.461 429.852 262.405 429.908C262.357 429.964 262.289 429.992 262.201 429.992H258.733L258.541 431.936C258.725 431.816 258.937 431.72 259.177 431.648C259.417 431.568 259.729 431.528 260.113 431.528C260.633 431.528 261.113 431.64 261.553 431.864C262.001 432.08 262.357 432.396 262.621 432.812C262.893 433.22 263.029 433.696 263.029 434.24C263.029 434.824 262.893 435.336 262.621 435.776C262.349 436.208 261.965 436.544 261.469 436.784C260.973 437.016 260.397 437.132 259.741 437.132Z" fill="#AAAAAA"/>
<path d="M315.773 437C315.693 437 315.625 436.972 315.569 436.916C315.513 436.86 315.485 436.792 315.485 436.712V430.52L313.673 431.912C313.625 431.952 313.565 431.972 313.493 431.972C313.397 431.972 313.321 431.932 313.265 431.852L312.749 431.18C312.709 431.124 312.689 431.068 312.689 431.012C312.689 430.916 312.733 430.836 312.821 430.772L315.509 428.684C315.597 428.628 315.697 428.6 315.809 428.6H316.889C316.969 428.6 317.037 428.628 317.093 428.684C317.149 428.74 317.177 428.808 317.177 428.888V436.712C317.177 436.792 317.149 436.86 317.093 436.916C317.037 436.972 316.969 437 316.889 437H315.773ZM321.856 437.12C321.184 437.12 320.592 436.992 320.08 436.736C319.576 436.48 319.184 436.128 318.904 435.68C318.632 435.232 318.496 434.728 318.496 434.168C318.496 433.464 318.808 432.688 319.432 431.84L321.616 428.84C321.68 428.76 321.74 428.7 321.796 428.66C321.852 428.62 321.932 428.6 322.036 428.6H323.176C323.248 428.6 323.304 428.628 323.344 428.684C323.392 428.732 323.416 428.792 323.416 428.864C323.416 428.92 323.4 428.972 323.368 429.02L321.688 431.336C321.816 431.304 321.984 431.288 322.192 431.288C322.728 431.296 323.22 431.428 323.668 431.684C324.124 431.932 324.484 432.272 324.748 432.704C325.02 433.136 325.156 433.616 325.156 434.144C325.156 434.688 325.02 435.188 324.748 435.644C324.484 436.092 324.1 436.452 323.596 436.724C323.1 436.988 322.52 437.12 321.856 437.12ZM321.832 435.728C322.28 435.728 322.66 435.592 322.972 435.32C323.284 435.04 323.44 434.656 323.44 434.168C323.44 433.688 323.284 433.312 322.972 433.04C322.668 432.76 322.288 432.62 321.832 432.62C321.384 432.62 321.004 432.76 320.692 433.04C320.388 433.312 320.236 433.688 320.236 434.168C320.236 434.656 320.388 435.04 320.692 435.32C321.004 435.592 321.384 435.728 321.832 435.728Z" fill="#AAAAAA"/>
<path d="M378.705 437C378.625 437 378.561 436.976 378.513 436.928C378.465 436.872 378.441 436.804 378.441 436.724V429.956L376.425 431.504C376.369 431.552 376.309 431.576 376.245 431.576C376.173 431.576 376.105 431.536 376.041 431.456L375.753 431.084C375.713 431.028 375.693 430.972 375.693 430.916C375.693 430.828 375.733 430.756 375.813 430.7L378.417 428.684C378.505 428.628 378.609 428.6 378.729 428.6H379.293C379.373 428.6 379.437 428.628 379.485 428.684C379.541 428.732 379.569 428.796 379.569 428.876V436.724C379.569 436.804 379.541 436.872 379.485 436.928C379.437 436.976 379.373 437 379.293 437H378.705ZM382.29 437C382.218 437 382.158 436.976 382.11 436.928C382.07 436.872 382.05 436.808 382.05 436.736L382.074 436.628L385.074 429.608H381.114C381.034 429.608 380.966 429.584 380.91 429.536C380.862 429.48 380.838 429.412 380.838 429.332V428.888C380.838 428.8 380.862 428.732 380.91 428.684C380.958 428.628 381.026 428.6 381.114 428.6H386.01C386.098 428.6 386.166 428.628 386.214 428.684C386.262 428.732 386.286 428.8 386.286 428.888V429.296C386.286 429.44 386.254 429.596 386.19 429.764L383.226 436.7C383.186 436.788 383.142 436.86 383.094 436.916C383.046 436.972 382.978 437 382.89 437H382.29Z" fill="#777777"/>
<path d="M440.46 437C440.38 437 440.316 436.976 440.268 436.928C440.22 436.872 440.196 436.804 440.196 436.724V429.956L438.18 431.504C438.124 431.552 438.064 431.576 438 431.576C437.928 431.576 437.86 431.536 437.796 431.456L437.508 431.084C437.468 431.028 437.448 430.972 437.448 430.916C437.448 430.828 437.488 430.756 437.568 430.7L440.172 428.684C440.26 428.628 440.364 428.6 440.484 428.6H441.048C441.128 428.6 441.192 428.628 441.24 428.684C441.296 428.732 441.324 428.796 441.324 428.876V436.724C441.324 436.804 441.296 436.872 441.24 436.928C441.192 436.976 441.128 437 441.048 437H440.46ZM446.05 437.12C445.442 437.12 444.898 437.02 444.418 436.82C443.946 436.612 443.578 436.316 443.314 435.932C443.05 435.548 442.918 435.1 442.918 434.588C442.918 434.116 443.034 433.704 443.266 433.352C443.506 432.992 443.826 432.716 444.226 432.524C443.906 432.34 443.658 432.1 443.482 431.804C443.306 431.5 443.218 431.144 443.218 430.736C443.218 430.04 443.478 429.492 443.998 429.092C444.518 428.684 445.202 428.48 446.05 428.48C446.898 428.48 447.578 428.68 448.09 429.08C448.61 429.48 448.87 430.032 448.87 430.736C448.87 431.136 448.782 431.488 448.606 431.792C448.43 432.088 448.186 432.332 447.874 432.524C448.274 432.716 448.59 432.992 448.822 433.352C449.062 433.704 449.182 434.12 449.182 434.6C449.182 435.112 449.05 435.56 448.786 435.944C448.522 436.32 448.15 436.612 447.67 436.82C447.198 437.02 446.658 437.12 446.05 437.12ZM446.05 432.104C446.538 432.088 446.95 431.96 447.286 431.72C447.622 431.48 447.79 431.16 447.79 430.76C447.79 430.352 447.622 430.028 447.286 429.788C446.958 429.54 446.546 429.416 446.05 429.416C445.546 429.416 445.13 429.54 444.802 429.788C444.474 430.028 444.31 430.352 444.31 430.76C444.31 431.168 444.474 431.496 444.802 431.744C445.13 431.984 445.546 432.104 446.05 432.104ZM446.05 436.184C446.618 436.184 447.09 436.04 447.466 435.752C447.85 435.464 448.042 435.08 448.042 434.6C448.042 434.12 447.85 433.736 447.466 433.448C447.09 433.16 446.618 433.016 446.05 433.016C445.474 433.016 444.994 433.16 444.61 433.448C444.234 433.736 444.046 434.12 444.046 434.6C444.046 435.08 444.234 435.464 444.61 435.752C444.994 436.04 445.474 436.184 446.05 436.184Z" fill="#777777"/>
<path d="M19.1983 424.12C18.1663 424.12 17.4103 423.82 16.9303 423.22C16.4583 422.612 16.2063 421.82 16.1743 420.844L16.1623 419.812L16.1743 418.744C16.1983 417.776 16.4503 416.992 16.9303 416.392C17.4183 415.784 18.1743 415.48 19.1983 415.48C20.2303 415.48 20.9863 415.784 21.4662 416.392C21.9543 416.992 22.2103 417.776 22.2343 418.744C22.2423 418.968 22.2463 419.324 22.2463 419.812C22.2463 420.284 22.2423 420.628 22.2343 420.844C22.2023 421.82 21.9462 422.612 21.4662 423.22C20.9943 423.82 20.2383 424.12 19.1983 424.12ZM19.1983 423.124C19.8143 423.124 20.2783 422.92 20.5903 422.512C20.9023 422.104 21.0663 421.528 21.0823 420.784C21.0903 420.552 21.0943 420.22 21.0943 419.788C21.0943 419.348 21.0903 419.02 21.0823 418.804C21.0663 418.068 20.8983 417.496 20.5783 417.088C20.2663 416.672 19.8063 416.464 19.1983 416.464C18.5903 416.464 18.1303 416.672 17.8183 417.088C17.5063 417.496 17.3423 418.068 17.3263 418.804L17.3143 419.788L17.3263 420.784C17.3423 421.528 17.5063 422.104 17.8183 422.512C18.1303 422.92 18.5903 423.124 19.1983 423.124Z" fill="#777777"/>
<path d="M6.51903 262C6.43903 262 6.37503 261.976 6.32703 261.928C6.27903 261.872 6.25503 261.804 6.25503 261.724V254.956L4.23903 256.504C4.18303 256.552 4.12303 256.576 4.05903 256.576C3.98703 256.576 3.91903 256.536 3.85503 256.456L3.56703 256.084C3.52703 256.028 3.50703 255.972 3.50703 255.916C3.50703 255.828 3.54703 255.756 3.62703 255.7L6.23103 253.684C6.31903 253.628 6.42303 253.6 6.54303 253.6H7.10703C7.18703 253.6 7.25103 253.628 7.29903 253.684C7.35503 253.732 7.38303 253.796 7.38303 253.876V261.724C7.38303 261.804 7.35503 261.872 7.29903 261.928C7.25103 261.976 7.18703 262 7.10703 262H6.51903ZM11.7967 262.12C11.1967 262.12 10.6767 262.012 10.2367 261.796C9.79669 261.58 9.46069 261.3 9.22869 260.956C8.99669 260.604 8.87269 260.228 8.85669 259.828V259.804C8.85669 259.74 8.88069 259.688 8.92869 259.648C8.97669 259.608 9.03269 259.588 9.09669 259.588H9.68469C9.85269 259.588 9.96069 259.676 10.0087 259.852C10.1287 260.284 10.3487 260.608 10.6687 260.824C10.9967 261.032 11.3727 261.136 11.7967 261.136C12.3407 261.136 12.7927 260.972 13.1527 260.644C13.5127 260.308 13.6927 259.848 13.6927 259.264C13.6927 258.728 13.5127 258.304 13.1527 257.992C12.7927 257.672 12.3407 257.512 11.7967 257.512C11.5087 257.512 11.2767 257.548 11.1007 257.62C10.9247 257.692 10.7447 257.796 10.5607 257.932C10.4567 258.012 10.3687 258.072 10.2967 258.112C10.2327 258.144 10.1607 258.16 10.0807 258.16H9.50469C9.43269 258.16 9.36869 258.136 9.31269 258.088C9.25669 258.032 9.23269 257.968 9.24069 257.896L9.61269 253.9C9.63669 253.7 9.73669 253.6 9.91269 253.6H14.0647C14.1527 253.6 14.2207 253.624 14.2687 253.672C14.3167 253.72 14.3407 253.788 14.3407 253.876V254.32C14.3407 254.4 14.3127 254.464 14.2567 254.512C14.2087 254.56 14.1447 254.584 14.0647 254.584H10.6087L10.3927 256.996C10.7767 256.724 11.2927 256.588 11.9407 256.588C12.4767 256.588 12.9647 256.696 13.4047 256.912C13.8447 257.12 14.1927 257.428 14.4487 257.836C14.7127 258.244 14.8447 258.728 14.8447 259.288C14.8447 259.88 14.7127 260.392 14.4487 260.824C14.1927 261.248 13.8327 261.572 13.3687 261.796C12.9127 262.012 12.3887 262.12 11.7967 262.12ZM19.1983 262.12C18.1663 262.12 17.4103 261.82 16.9303 261.22C16.4583 260.612 16.2063 259.82 16.1743 258.844L16.1623 257.812L16.1743 256.744C16.1983 255.776 16.4503 254.992 16.9303 254.392C17.4183 253.784 18.1743 253.48 19.1983 253.48C20.2303 253.48 20.9863 253.784 21.4662 254.392C21.9543 254.992 22.2103 255.776 22.2343 256.744C22.2423 256.968 22.2463 257.324 22.2463 257.812C22.2463 258.284 22.2423 258.628 22.2343 258.844C22.2023 259.82 21.9462 260.612 21.4662 261.22C20.9943 261.82 20.2383 262.12 19.1983 262.12ZM19.1983 261.124C19.8143 261.124 20.2783 260.92 20.5903 260.512C20.9023 260.104 21.0663 259.528 21.0823 258.784C21.0903 258.552 21.0943 258.22 21.0943 257.788C21.0943 257.348 21.0903 257.02 21.0823 256.804C21.0663 256.068 20.8983 255.496 20.5783 255.088C20.2663 254.672 19.8063 254.464 19.1983 254.464C18.5903 254.464 18.1303 254.672 17.8183 255.088C17.5063 255.496 17.3423 256.068 17.3263 256.804L17.3143 257.788L17.3263 258.784C17.3423 259.528 17.5063 260.104 17.8183 260.512C18.1303 260.92 18.5903 261.124 19.1983 261.124Z" fill="#777777"/>
<path d="M4.19263 102.12C3.56863 102.12 3.02863 102.02 2.57263 101.82C2.11663 101.612 1.76863 101.344 1.52863 101.016C1.29663 100.688 1.17263 100.348 1.15663 99.996C1.15663 99.924 1.18063 99.868 1.22863 99.828C1.27663 99.78 1.33663 99.756 1.40863 99.756H1.94863C2.03663 99.756 2.10863 99.776 2.16463 99.816C2.22063 99.848 2.26463 99.916 2.29663 100.02C2.40063 100.428 2.62463 100.716 2.96863 100.884C3.32063 101.052 3.73263 101.136 4.20463 101.136C4.78063 101.136 5.23663 101 5.57263 100.728C5.91663 100.448 6.08863 100.052 6.08863 99.54C6.08863 98.564 5.49263 98.076 4.30063 98.076H3.17263C3.09263 98.076 3.02463 98.052 2.96863 98.004C2.92063 97.948 2.89663 97.88 2.89663 97.8V97.488C2.89663 97.368 2.94063 97.264 3.02863 97.176L5.36863 94.584H1.81663C1.73663 94.584 1.66863 94.56 1.61263 94.512C1.56463 94.464 1.54063 94.4 1.54063 94.32V93.888C1.54063 93.8 1.56463 93.732 1.61263 93.684C1.66863 93.628 1.73663 93.6 1.81663 93.6H6.56863C6.65663 93.6 6.72463 93.628 6.77263 93.684C6.82863 93.732 6.85663 93.8 6.85663 93.888V94.284C6.85663 94.372 6.81663 94.464 6.73663 94.56L4.39663 97.188H4.58863C5.40463 97.212 6.04863 97.424 6.52063 97.824C7.00063 98.224 7.24063 98.808 7.24063 99.576C7.24063 100.104 7.10863 100.56 6.84463 100.944C6.58863 101.32 6.22863 101.612 5.76463 101.82C5.30063 102.02 4.77663 102.12 4.19263 102.12ZM11.6045 102.12C10.5725 102.12 9.8165 101.82 9.3365 101.22C8.8645 100.612 8.6125 99.82 8.5805 98.844L8.5685 97.812L8.5805 96.744C8.6045 95.776 8.8565 94.992 9.3365 94.392C9.8245 93.784 10.5805 93.48 11.6045 93.48C12.6365 93.48 13.3925 93.784 13.8725 94.392C14.3605 94.992 14.6165 95.776 14.6405 96.744C14.6485 96.968 14.6525 97.324 14.6525 97.812C14.6525 98.284 14.6485 98.628 14.6405 98.844C14.6085 99.82 14.3525 100.612 13.8725 101.22C13.4005 101.82 12.6445 102.12 11.6045 102.12ZM11.6045 101.124C12.2205 101.124 12.6845 100.92 12.9965 100.512C13.3085 100.104 13.4725 99.528 13.4885 98.784C13.4965 98.552 13.5005 98.22 13.5005 97.788C13.5005 97.348 13.4965 97.02 13.4885 96.804C13.4725 96.068 13.3045 95.496 12.9845 95.088C12.6725 94.672 12.2125 94.464 11.6045 94.464C10.9965 94.464 10.5365 94.672 10.2245 95.088C9.9125 95.496 9.7485 96.068 9.7325 96.804L9.7205 97.788L9.7325 98.784C9.7485 99.528 9.9125 100.104 10.2245 100.512C10.5365 100.92 10.9965 101.124 11.6045 101.124ZM19.1983 102.12C18.1663 102.12 17.4103 101.82 16.9303 101.22C16.4583 100.612 16.2063 99.82 16.1743 98.844L16.1623 97.812L16.1743 96.744C16.1983 95.776 16.4503 94.992 16.9303 94.392C17.4183 93.784 18.1743 93.48 19.1983 93.48C20.2303 93.48 20.9863 93.784 21.4662 94.392C21.9543 94.992 22.2103 95.776 22.2343 96.744C22.2423 96.968 22.2463 97.324 22.2463 97.812C22.2463 98.284 22.2423 98.628 22.2343 98.844C22.2023 99.82 21.9462 100.612 21.4662 101.22C20.9943 101.82 20.2383 102.12 19.1983 102.12ZM19.1983 101.124C19.8143 101.124 20.2783 100.92 20.5903 100.512C20.9023 100.104 21.0663 99.528 21.0823 98.784C21.0903 98.552 21.0943 98.22 21.0943 97.788C21.0943 97.348 21.0903 97.02 21.0823 96.804C21.0663 96.068 20.8983 95.496 20.5783 95.088C20.2663 94.672 19.8063 94.464 19.1983 94.464C18.5903 94.464 18.1303 94.672 17.8183 95.088C17.5063 95.496 17.3423 96.068 17.3263 96.804L17.3143 97.788L17.3263 98.784C17.3423 99.528 17.5063 100.104 17.8183 100.512C18.1303 100.92 18.5903 101.124 19.1983 101.124Z" fill="#777777"/>
<rect x="418" y="114" width="50" height="306" fill="#19A974"/>
<rect x="418" y="288" width="50" height="132" fill="#137752"/>
<rect x="356" width="50" height="420" fill="#19A974"/>
<rect x="356" y="228" width="50" height="192" fill="#137752"/>
<rect x="294" y="280" width="50" height="140" fill="#9EEBCF"/>
<rect x="294" y="370.861" width="50" height="49.1391" fill="#19A974"/>
<rect x="232" y="192" width="50" height="228" fill="#9EEBCF"/>
<rect x="232" y="390" width="50" height="30" fill="#19A974"/>
<rect x="170" y="27" width="50" height="393" fill="#19A974"/>
<rect x="170" y="324" width="50" height="96" fill="#137752"/>
<rect x="108" y="70" width="50" height="350" fill="#19A974"/>
<rect x="108" y="280" width="50" height="140" fill="#137752"/>
<rect x="46" y="192" width="50" height="228" fill="#19A974"/>
<rect x="46" y="350" width="50" height="70" fill="#137752"/>
</svg>
