<svg width="320" height="320" viewBox="0 0 320 320" fill="none" xmlns="http://www.w3.org/2000/svg">
<path d="M166.701 311.773H163.127L162.324 314H161.164L164.422 305.469H165.406L168.67 314H167.516L166.701 311.773ZM163.467 310.848H166.367L164.914 306.857L163.467 310.848ZM171.447 312.529L173.018 307.66H174.125L171.852 314H171.025L168.729 307.66H169.836L171.447 312.529ZM174.828 310.777C174.828 309.789 175.057 309.004 175.514 308.422C175.971 307.836 176.576 307.543 177.33 307.543C178.104 307.543 178.707 307.816 179.141 308.363L179.193 307.66H180.184V313.848C180.184 314.668 179.939 315.314 179.451 315.787C178.967 316.26 178.314 316.496 177.494 316.496C177.037 316.496 176.59 316.398 176.152 316.203C175.715 316.008 175.381 315.74 175.15 315.4L175.713 314.75C176.178 315.324 176.746 315.611 177.418 315.611C177.945 315.611 178.355 315.463 178.648 315.166C178.945 314.869 179.094 314.451 179.094 313.912V313.367C178.66 313.867 178.068 314.117 177.318 314.117C176.576 314.117 175.975 313.818 175.514 313.221C175.057 312.623 174.828 311.809 174.828 310.777ZM175.918 310.9C175.918 311.615 176.064 312.178 176.357 312.588C176.65 312.994 177.061 313.197 177.588 313.197C178.271 313.197 178.773 312.887 179.094 312.266V309.371C178.762 308.766 178.264 308.463 177.6 308.463C177.072 308.463 176.66 308.668 176.363 309.078C176.066 309.488 175.918 310.096 175.918 310.9ZM181.848 313.432C181.848 313.244 181.902 313.088 182.012 312.963C182.125 312.838 182.293 312.775 182.516 312.775C182.738 312.775 182.906 312.838 183.02 312.963C183.137 313.088 183.195 313.244 183.195 313.432C183.195 313.611 183.137 313.762 183.02 313.883C182.906 314.004 182.738 314.064 182.516 314.064C182.293 314.064 182.125 314.004 182.012 313.883C181.902 313.762 181.848 313.611 181.848 313.432ZM193.32 310.9C193.32 311.865 193.1 312.643 192.658 313.232C192.217 313.822 191.619 314.117 190.865 314.117C190.096 314.117 189.49 313.873 189.049 313.385V316.438H187.965V307.66H188.955L189.008 308.363C189.449 307.816 190.062 307.543 190.848 307.543C191.609 307.543 192.211 307.83 192.652 308.404C193.098 308.979 193.32 309.777 193.32 310.801V310.9ZM192.236 310.777C192.236 310.062 192.084 309.498 191.779 309.084C191.475 308.67 191.057 308.463 190.525 308.463C189.869 308.463 189.377 308.754 189.049 309.336V312.365C189.373 312.943 189.869 313.232 190.537 313.232C191.057 313.232 191.469 313.027 191.773 312.617C192.082 312.203 192.236 311.59 192.236 310.777ZM198.617 314C198.555 313.875 198.504 313.652 198.465 313.332C197.961 313.855 197.359 314.117 196.66 314.117C196.035 314.117 195.521 313.941 195.119 313.59C194.721 313.234 194.521 312.785 194.521 312.242C194.521 311.582 194.771 311.07 195.271 310.707C195.775 310.34 196.482 310.156 197.393 310.156H198.447V309.658C198.447 309.279 198.334 308.979 198.107 308.756C197.881 308.529 197.547 308.416 197.105 308.416C196.719 308.416 196.395 308.514 196.133 308.709C195.871 308.904 195.74 309.141 195.74 309.418H194.65C194.65 309.102 194.762 308.797 194.984 308.504C195.211 308.207 195.516 307.973 195.898 307.801C196.285 307.629 196.709 307.543 197.17 307.543C197.9 307.543 198.473 307.727 198.887 308.094C199.301 308.457 199.516 308.959 199.531 309.6V312.518C199.531 313.1 199.605 313.562 199.754 313.906V314H198.617ZM196.818 313.174C197.158 313.174 197.48 313.086 197.785 312.91C198.09 312.734 198.311 312.506 198.447 312.225V310.924H197.598C196.27 310.924 195.605 311.312 195.605 312.09C195.605 312.43 195.719 312.695 195.945 312.887C196.172 313.078 196.463 313.174 196.818 313.174ZM200.973 310.777C200.973 309.789 201.201 309.004 201.658 308.422C202.115 307.836 202.721 307.543 203.475 307.543C204.248 307.543 204.852 307.816 205.285 308.363L205.338 307.66H206.328V313.848C206.328 314.668 206.084 315.314 205.596 315.787C205.111 316.26 204.459 316.496 203.639 316.496C203.182 316.496 202.734 316.398 202.297 316.203C201.859 316.008 201.525 315.74 201.295 315.4L201.857 314.75C202.322 315.324 202.891 315.611 203.562 315.611C204.09 315.611 204.5 315.463 204.793 315.166C205.09 314.869 205.238 314.451 205.238 313.912V313.367C204.805 313.867 204.213 314.117 203.463 314.117C202.721 314.117 202.119 313.818 201.658 313.221C201.201 312.623 200.973 311.809 200.973 310.777ZM202.062 310.9C202.062 311.615 202.209 312.178 202.502 312.588C202.795 312.994 203.205 313.197 203.732 313.197C204.416 313.197 204.918 312.887 205.238 312.266V309.371C204.906 308.766 204.408 308.463 203.744 308.463C203.217 308.463 202.805 308.668 202.508 309.078C202.211 309.488 202.062 310.096 202.062 310.9ZM210.6 314.117C209.74 314.117 209.041 313.836 208.502 313.273C207.963 312.707 207.693 311.951 207.693 311.006V310.807C207.693 310.178 207.812 309.617 208.051 309.125C208.293 308.629 208.629 308.242 209.059 307.965C209.492 307.684 209.961 307.543 210.465 307.543C211.289 307.543 211.93 307.814 212.387 308.357C212.844 308.9 213.072 309.678 213.072 310.689V311.141H208.777C208.793 311.766 208.975 312.271 209.322 312.658C209.674 313.041 210.119 313.232 210.658 313.232C211.041 313.232 211.365 313.154 211.631 312.998C211.896 312.842 212.129 312.635 212.328 312.377L212.99 312.893C212.459 313.709 211.662 314.117 210.6 314.117ZM210.465 308.434C210.027 308.434 209.66 308.594 209.363 308.914C209.066 309.23 208.883 309.676 208.812 310.25H211.988V310.168C211.957 309.617 211.809 309.191 211.543 308.891C211.277 308.586 210.918 308.434 210.465 308.434ZM218.486 314H217.402V305H218.486V314ZM219.939 310.771C219.939 310.15 220.061 309.592 220.303 309.096C220.549 308.6 220.889 308.217 221.322 307.947C221.76 307.678 222.258 307.543 222.816 307.543C223.68 307.543 224.377 307.842 224.908 308.439C225.443 309.037 225.711 309.832 225.711 310.824V310.9C225.711 311.518 225.592 312.072 225.354 312.564C225.119 313.053 224.781 313.434 224.34 313.707C223.902 313.98 223.398 314.117 222.828 314.117C221.969 314.117 221.271 313.818 220.736 313.221C220.205 312.623 219.939 311.832 219.939 310.848V310.771ZM221.029 310.9C221.029 311.604 221.191 312.168 221.516 312.594C221.844 313.02 222.281 313.232 222.828 313.232C223.379 313.232 223.816 313.018 224.141 312.588C224.465 312.154 224.627 311.549 224.627 310.771C224.627 310.076 224.461 309.514 224.129 309.084C223.801 308.65 223.363 308.434 222.816 308.434C222.281 308.434 221.85 308.646 221.521 309.072C221.193 309.498 221.029 310.107 221.029 310.9ZM230.984 314C230.922 313.875 230.871 313.652 230.832 313.332C230.328 313.855 229.727 314.117 229.027 314.117C228.402 314.117 227.889 313.941 227.486 313.59C227.088 313.234 226.889 312.785 226.889 312.242C226.889 311.582 227.139 311.07 227.639 310.707C228.143 310.34 228.85 310.156 229.76 310.156H230.814V309.658C230.814 309.279 230.701 308.979 230.475 308.756C230.248 308.529 229.914 308.416 229.473 308.416C229.086 308.416 228.762 308.514 228.5 308.709C228.238 308.904 228.107 309.141 228.107 309.418H227.018C227.018 309.102 227.129 308.797 227.352 308.504C227.578 308.207 227.883 307.973 228.266 307.801C228.652 307.629 229.076 307.543 229.537 307.543C230.268 307.543 230.84 307.727 231.254 308.094C231.668 308.457 231.883 308.959 231.898 309.6V312.518C231.898 313.1 231.973 313.562 232.121 313.906V314H230.984ZM229.186 313.174C229.525 313.174 229.848 313.086 230.152 312.91C230.457 312.734 230.678 312.506 230.814 312.225V310.924H229.965C228.637 310.924 227.973 311.312 227.973 312.09C227.973 312.43 228.086 312.695 228.312 312.887C228.539 313.078 228.83 313.174 229.186 313.174ZM233.334 310.777C233.334 309.805 233.564 309.023 234.025 308.434C234.486 307.84 235.09 307.543 235.836 307.543C236.578 307.543 237.166 307.797 237.6 308.305V305H238.684V314H237.688L237.635 313.32C237.201 313.852 236.598 314.117 235.824 314.117C235.09 314.117 234.49 313.816 234.025 313.215C233.564 312.613 233.334 311.828 233.334 310.859V310.777ZM234.418 310.9C234.418 311.619 234.566 312.182 234.863 312.588C235.16 312.994 235.57 313.197 236.094 313.197C236.781 313.197 237.283 312.889 237.6 312.271V309.359C237.275 308.762 236.777 308.463 236.105 308.463C235.574 308.463 235.16 308.668 234.863 309.078C234.566 309.488 234.418 310.096 234.418 310.9ZM244.818 306.125V307.66H246.002V308.498H244.818V312.43C244.818 312.684 244.871 312.875 244.977 313.004C245.082 313.129 245.262 313.191 245.516 313.191C245.641 313.191 245.812 313.168 246.031 313.121V314C245.746 314.078 245.469 314.117 245.199 314.117C244.715 314.117 244.35 313.971 244.104 313.678C243.857 313.385 243.734 312.969 243.734 312.43V308.498H242.58V307.66H243.734V306.125H244.818ZM248.451 314H247.367V307.66H248.451V314ZM247.279 305.979C247.279 305.803 247.332 305.654 247.438 305.533C247.547 305.412 247.707 305.352 247.918 305.352C248.129 305.352 248.289 305.412 248.398 305.533C248.508 305.654 248.562 305.803 248.562 305.979C248.562 306.154 248.508 306.301 248.398 306.418C248.289 306.535 248.129 306.594 247.918 306.594C247.707 306.594 247.547 306.535 247.438 306.418C247.332 306.301 247.279 306.154 247.279 305.979ZM251.211 307.66L251.24 308.363C251.705 307.816 252.332 307.543 253.121 307.543C254.008 307.543 254.611 307.883 254.932 308.562C255.143 308.258 255.416 308.012 255.752 307.824C256.092 307.637 256.492 307.543 256.953 307.543C258.344 307.543 259.051 308.279 259.074 309.752V314H257.99V309.816C257.99 309.363 257.887 309.025 257.68 308.803C257.473 308.576 257.125 308.463 256.637 308.463C256.234 308.463 255.9 308.584 255.635 308.826C255.369 309.064 255.215 309.387 255.172 309.793V314H254.082V309.846C254.082 308.924 253.631 308.463 252.729 308.463C252.018 308.463 251.531 308.766 251.27 309.371V314H250.186V307.66H251.211ZM263.346 314.117C262.486 314.117 261.787 313.836 261.248 313.273C260.709 312.707 260.439 311.951 260.439 311.006V310.807C260.439 310.178 260.559 309.617 260.797 309.125C261.039 308.629 261.375 308.242 261.805 307.965C262.238 307.684 262.707 307.543 263.211 307.543C264.035 307.543 264.676 307.814 265.133 308.357C265.59 308.9 265.818 309.678 265.818 310.689V311.141H261.523C261.539 311.766 261.721 312.271 262.068 312.658C262.42 313.041 262.865 313.232 263.404 313.232C263.787 313.232 264.111 313.154 264.377 312.998C264.643 312.842 264.875 312.635 265.074 312.377L265.736 312.893C265.205 313.709 264.408 314.117 263.346 314.117ZM263.211 308.434C262.773 308.434 262.406 308.594 262.109 308.914C261.812 309.23 261.629 309.676 261.559 310.25H264.734V310.168C264.703 309.617 264.555 309.191 264.289 308.891C264.023 308.586 263.664 308.434 263.211 308.434Z" fill="#39352A"/>
<path d="M172.397 277.477L165.92 292H163.836L170.292 277.992H161.827V276.359H172.397V277.477ZM182.452 276.349V278.035H182.087C180.54 278.064 179.308 278.522 178.392 279.41C177.475 280.298 176.945 281.548 176.802 283.159C177.625 282.214 178.75 281.741 180.175 281.741C181.535 281.741 182.62 282.221 183.43 283.181C184.246 284.14 184.654 285.379 184.654 286.897C184.654 288.509 184.214 289.798 183.333 290.765C182.459 291.731 181.285 292.215 179.81 292.215C178.313 292.215 177.099 291.642 176.168 290.496C175.237 289.343 174.771 287.861 174.771 286.049V285.286C174.771 282.407 175.384 280.209 176.608 278.69C177.84 277.165 179.67 276.384 182.098 276.349H182.452ZM179.842 283.396C179.161 283.396 178.535 283.6 177.962 284.008C177.389 284.416 176.992 284.928 176.77 285.544V286.274C176.77 287.563 177.06 288.602 177.64 289.39C178.22 290.177 178.943 290.571 179.81 290.571C180.705 290.571 181.407 290.242 181.915 289.583C182.431 288.924 182.688 288.061 182.688 286.994C182.688 285.92 182.427 285.053 181.904 284.395C181.389 283.729 180.701 283.396 179.842 283.396ZM197.255 292H187.007V290.571L192.421 284.556C193.223 283.646 193.774 282.909 194.075 282.343C194.383 281.77 194.537 281.179 194.537 280.57C194.537 279.754 194.29 279.084 193.796 278.562C193.302 278.039 192.643 277.777 191.819 277.777C190.831 277.777 190.061 278.06 189.51 278.626C188.965 279.185 188.693 279.965 188.693 280.968H186.706C186.706 279.528 187.168 278.365 188.092 277.477C189.023 276.589 190.265 276.145 191.819 276.145C193.273 276.145 194.423 276.528 195.268 277.294C196.113 278.053 196.535 279.066 196.535 280.334C196.535 281.874 195.554 283.707 193.592 285.834L189.402 290.378H197.255V292ZM206.891 280.377L206.944 281.666C207.797 280.663 208.946 280.162 210.393 280.162C212.018 280.162 213.125 280.785 213.712 282.031C214.099 281.473 214.6 281.021 215.216 280.678C215.839 280.334 216.573 280.162 217.418 280.162C219.967 280.162 221.264 281.512 221.307 284.212V292H219.319V284.33C219.319 283.499 219.13 282.88 218.75 282.472C218.37 282.056 217.733 281.849 216.838 281.849C216.1 281.849 215.488 282.071 215.001 282.515C214.514 282.951 214.231 283.542 214.152 284.287V292H212.154V284.384C212.154 282.694 211.327 281.849 209.673 281.849C208.369 281.849 207.478 282.404 206.998 283.514V292H205.011V280.377H206.891ZM231.082 288.917C231.082 288.38 230.878 287.965 230.47 287.671C230.069 287.37 229.363 287.112 228.354 286.897C227.351 286.683 226.552 286.425 225.958 286.124C225.371 285.823 224.934 285.465 224.647 285.05C224.368 284.634 224.229 284.14 224.229 283.567C224.229 282.615 224.63 281.809 225.432 281.15C226.241 280.492 227.272 280.162 228.525 280.162C229.843 280.162 230.91 280.502 231.727 281.183C232.55 281.863 232.962 282.733 232.962 283.793H230.964C230.964 283.249 230.731 282.78 230.266 282.386C229.807 281.992 229.227 281.795 228.525 281.795C227.802 281.795 227.236 281.952 226.828 282.268C226.42 282.583 226.216 282.994 226.216 283.503C226.216 283.983 226.406 284.344 226.785 284.588C227.165 284.831 227.849 285.064 228.837 285.286C229.832 285.508 230.638 285.773 231.254 286.081C231.87 286.389 232.325 286.761 232.618 287.198C232.919 287.628 233.069 288.154 233.069 288.777C233.069 289.816 232.654 290.65 231.823 291.28C230.993 291.903 229.915 292.215 228.59 292.215C227.659 292.215 226.835 292.05 226.119 291.721C225.403 291.391 224.841 290.933 224.433 290.346C224.032 289.751 223.831 289.11 223.831 288.423H225.818C225.854 289.089 226.119 289.619 226.613 290.013C227.115 290.399 227.773 290.593 228.59 290.593C229.342 290.593 229.943 290.442 230.395 290.142C230.853 289.834 231.082 289.425 231.082 288.917Z" fill="#39352A"/>
<path d="M5.44336 305.469L8.23242 312.43L11.0215 305.469H12.4805V314H11.3555V310.678L11.4609 307.092L8.66016 314H7.79883L5.00391 307.109L5.11523 310.678V314H3.99023V305.469H5.44336ZM14.0098 310.771C14.0098 310.15 14.1309 309.592 14.373 309.096C14.6191 308.6 14.959 308.217 15.3926 307.947C15.8301 307.678 16.3281 307.543 16.8867 307.543C17.75 307.543 18.4473 307.842 18.9785 308.439C19.5137 309.037 19.7812 309.832 19.7812 310.824V310.9C19.7812 311.518 19.6621 312.072 19.4238 312.564C19.1895 313.053 18.8516 313.434 18.4102 313.707C17.9727 313.98 17.4688 314.117 16.8984 314.117C16.0391 314.117 15.3418 313.818 14.8066 313.221C14.2754 312.623 14.0098 311.832 14.0098 310.848V310.771ZM15.0996 310.9C15.0996 311.604 15.2617 312.168 15.5859 312.594C15.9141 313.02 16.3516 313.232 16.8984 313.232C17.4492 313.232 17.8867 313.018 18.2109 312.588C18.5352 312.154 18.6973 311.549 18.6973 310.771C18.6973 310.076 18.5312 309.514 18.1992 309.084C17.8711 308.65 17.4336 308.434 16.8867 308.434C16.3516 308.434 15.9199 308.646 15.5918 309.072C15.2637 309.498 15.0996 310.107 15.0996 310.9ZM26.5078 310.9C26.5078 311.869 26.2852 312.648 25.8398 313.238C25.3945 313.824 24.7969 314.117 24.0469 314.117C23.2461 314.117 22.627 313.834 22.1895 313.268L22.1367 314H21.1406V305H22.2246V308.357C22.6621 307.814 23.2656 307.543 24.0352 307.543C24.8047 307.543 25.4082 307.834 25.8457 308.416C26.2871 308.998 26.5078 309.795 26.5078 310.807V310.9ZM25.4238 310.777C25.4238 310.039 25.2812 309.469 24.9961 309.066C24.7109 308.664 24.3008 308.463 23.7656 308.463C23.0508 308.463 22.5371 308.795 22.2246 309.459V312.201C22.5566 312.865 23.0742 313.197 23.7773 313.197C24.2969 313.197 24.7012 312.996 24.9902 312.594C25.2793 312.191 25.4238 311.586 25.4238 310.777ZM29.0566 314H27.9727V307.66H29.0566V314ZM27.8848 305.979C27.8848 305.803 27.9375 305.654 28.043 305.533C28.1523 305.412 28.3125 305.352 28.5234 305.352C28.7344 305.352 28.8945 305.412 29.0039 305.533C29.1133 305.654 29.168 305.803 29.168 305.979C29.168 306.154 29.1133 306.301 29.0039 306.418C28.8945 306.535 28.7344 306.594 28.5234 306.594C28.3125 306.594 28.1523 306.535 28.043 306.418C27.9375 306.301 27.8848 306.154 27.8848 305.979ZM31.9746 314H30.8906V305H31.9746V314ZM36.3457 314.117C35.4863 314.117 34.7871 313.836 34.248 313.273C33.709 312.707 33.4395 311.951 33.4395 311.006V310.807C33.4395 310.178 33.5586 309.617 33.7969 309.125C34.0391 308.629 34.375 308.242 34.8047 307.965C35.2383 307.684 35.707 307.543 36.2109 307.543C37.0352 307.543 37.6758 307.814 38.1328 308.357C38.5898 308.9 38.8184 309.678 38.8184 310.689V311.141H34.5234C34.5391 311.766 34.7207 312.271 35.0684 312.658C35.4199 313.041 35.8652 313.232 36.4043 313.232C36.7871 313.232 37.1113 313.154 37.377 312.998C37.6426 312.842 37.875 312.635 38.0742 312.377L38.7363 312.893C38.2051 313.709 37.4082 314.117 36.3457 314.117ZM36.2109 308.434C35.7734 308.434 35.4062 308.594 35.1094 308.914C34.8125 309.23 34.6289 309.676 34.5586 310.25H37.7344V310.168C37.7031 309.617 37.5547 309.191 37.2891 308.891C37.0234 308.586 36.6641 308.434 36.2109 308.434ZM46.9688 313.373C46.5469 313.869 45.9277 314.117 45.1113 314.117C44.4355 314.117 43.9199 313.922 43.5645 313.531C43.2129 313.137 43.0352 312.555 43.0312 311.785V307.66H44.1152V311.756C44.1152 312.717 44.5059 313.197 45.2871 313.197C46.1152 313.197 46.666 312.889 46.9395 312.271V307.66H48.0234V314H46.9922L46.9688 313.373ZM53.3672 312.318C53.3672 312.025 53.2559 311.799 53.0332 311.639C52.8145 311.475 52.4297 311.334 51.8789 311.217C51.332 311.1 50.8965 310.959 50.5723 310.795C50.252 310.631 50.0137 310.436 49.8574 310.209C49.7051 309.982 49.6289 309.713 49.6289 309.4C49.6289 308.881 49.8477 308.441 50.2852 308.082C50.7266 307.723 51.2891 307.543 51.9727 307.543C52.6914 307.543 53.2734 307.729 53.7188 308.1C54.168 308.471 54.3926 308.945 54.3926 309.523H53.3027C53.3027 309.227 53.1758 308.971 52.9219 308.756C52.6719 308.541 52.3555 308.434 51.9727 308.434C51.5781 308.434 51.2695 308.52 51.0469 308.691C50.8242 308.863 50.7129 309.088 50.7129 309.365C50.7129 309.627 50.8164 309.824 51.0234 309.957C51.2305 310.09 51.6035 310.217 52.1426 310.338C52.6855 310.459 53.125 310.604 53.4609 310.771C53.7969 310.939 54.0449 311.143 54.2051 311.381C54.3691 311.615 54.4512 311.902 54.4512 312.242C54.4512 312.809 54.2246 313.264 53.7715 313.607C53.3184 313.947 52.7305 314.117 52.0078 314.117C51.5 314.117 51.0508 314.027 50.6602 313.848C50.2695 313.668 49.9629 313.418 49.7402 313.098C49.5215 312.773 49.4121 312.424 49.4121 312.049H50.4961C50.5156 312.412 50.6602 312.701 50.9297 312.916C51.2031 313.127 51.5625 313.232 52.0078 313.232C52.418 313.232 52.7461 313.15 52.9922 312.986C53.2422 312.818 53.3672 312.596 53.3672 312.318ZM58.4941 314.117C57.6348 314.117 56.9355 313.836 56.3965 313.273C55.8574 312.707 55.5879 311.951 55.5879 311.006V310.807C55.5879 310.178 55.707 309.617 55.9453 309.125C56.1875 308.629 56.5234 308.242 56.9531 307.965C57.3867 307.684 57.8555 307.543 58.3594 307.543C59.1836 307.543 59.8242 307.814 60.2812 308.357C60.7383 308.9 60.9668 309.678 60.9668 310.689V311.141H56.6719C56.6875 311.766 56.8691 312.271 57.2168 312.658C57.5684 313.041 58.0137 313.232 58.5527 313.232C58.9355 313.232 59.2598 313.154 59.5254 312.998C59.791 312.842 60.0234 312.635 60.2227 312.377L60.8848 312.893C60.3535 313.709 59.5566 314.117 58.4941 314.117ZM58.3594 308.434C57.9219 308.434 57.5547 308.594 57.2578 308.914C56.9609 309.23 56.7773 309.676 56.707 310.25H59.8828V310.168C59.8516 309.617 59.7031 309.191 59.4375 308.891C59.1719 308.586 58.8125 308.434 58.3594 308.434ZM65.291 308.633C65.127 308.605 64.9492 308.592 64.7578 308.592C64.0469 308.592 63.5645 308.895 63.3105 309.5V314H62.2266V307.66H63.2812L63.2988 308.393C63.6543 307.826 64.1582 307.543 64.8105 307.543C65.0215 307.543 65.1816 307.57 65.291 307.625V308.633ZM69.9844 312.318C69.9844 312.025 69.873 311.799 69.6504 311.639C69.4316 311.475 69.0469 311.334 68.4961 311.217C67.9492 311.1 67.5137 310.959 67.1895 310.795C66.8691 310.631 66.6309 310.436 66.4746 310.209C66.3223 309.982 66.2461 309.713 66.2461 309.4C66.2461 308.881 66.4648 308.441 66.9023 308.082C67.3438 307.723 67.9062 307.543 68.5898 307.543C69.3086 307.543 69.8906 307.729 70.3359 308.1C70.7852 308.471 71.0098 308.945 71.0098 309.523H69.9199C69.9199 309.227 69.793 308.971 69.5391 308.756C69.2891 308.541 68.9727 308.434 68.5898 308.434C68.1953 308.434 67.8867 308.52 67.6641 308.691C67.4414 308.863 67.3301 309.088 67.3301 309.365C67.3301 309.627 67.4336 309.824 67.6406 309.957C67.8477 310.09 68.2207 310.217 68.7598 310.338C69.3027 310.459 69.7422 310.604 70.0781 310.771C70.4141 310.939 70.6621 311.143 70.8223 311.381C70.9863 311.615 71.0684 311.902 71.0684 312.242C71.0684 312.809 70.8418 313.264 70.3887 313.607C69.9355 313.947 69.3477 314.117 68.625 314.117C68.1172 314.117 67.668 314.027 67.2773 313.848C66.8867 313.668 66.5801 313.418 66.3574 313.098C66.1387 312.773 66.0293 312.424 66.0293 312.049H67.1133C67.1328 312.412 67.2773 312.701 67.5469 312.916C67.8203 313.127 68.1797 313.232 68.625 313.232C69.0352 313.232 69.3633 313.15 69.6094 312.986C69.8594 312.818 69.9844 312.596 69.9844 312.318Z" fill="#39352A"/>
<path d="M5.21289 284.158L6.00781 276.359H14.0215V278.196H7.69434L7.22168 282.461C7.98796 282.01 8.85807 281.784 9.83203 281.784C11.2572 281.784 12.3887 282.257 13.2266 283.202C14.0645 284.14 14.4834 285.411 14.4834 287.016C14.4834 288.627 14.0465 289.898 13.1729 290.829C12.3063 291.753 11.0924 292.215 9.53125 292.215C8.14909 292.215 7.02116 291.832 6.14746 291.065C5.27376 290.299 4.77604 289.239 4.6543 287.886H6.53418C6.65592 288.781 6.97461 289.458 7.49023 289.916C8.00586 290.367 8.6862 290.593 9.53125 290.593C10.4551 290.593 11.1784 290.278 11.7012 289.647C12.2311 289.017 12.4961 288.147 12.4961 287.037C12.4961 285.992 12.2096 285.154 11.6367 284.523C11.071 283.886 10.3154 283.567 9.37012 283.567C8.50358 283.567 7.82324 283.757 7.3291 284.137L6.80273 284.566L5.21289 284.158ZM25.043 286.747H27.2129V288.369H25.043V292H23.0449V288.369H15.9229V287.198L22.9268 276.359H25.043V286.747ZM18.1787 286.747H23.0449V279.077L22.8086 279.507L18.1787 286.747ZM29.1465 295.115L28.0186 294.342C28.6917 293.404 29.0426 292.437 29.0713 291.441V289.647H31.0156V291.205C31.0156 291.928 30.8366 292.652 30.4785 293.375C30.1276 294.098 29.6836 294.678 29.1465 295.115ZM43.5732 292H33.3252V290.571L38.7393 284.556C39.5413 283.646 40.0928 282.909 40.3936 282.343C40.7015 281.77 40.8555 281.179 40.8555 280.57C40.8555 279.754 40.6084 279.084 40.1143 278.562C39.6201 278.039 38.9613 277.777 38.1377 277.777C37.1494 277.777 36.3796 278.06 35.8281 278.626C35.2839 279.185 35.0117 279.965 35.0117 280.968H33.0244C33.0244 279.528 33.4863 278.365 34.4102 277.477C35.3411 276.589 36.5837 276.145 38.1377 276.145C39.5915 276.145 40.7409 276.528 41.5859 277.294C42.431 278.053 42.8535 279.066 42.8535 280.334C42.8535 281.874 41.8724 283.707 39.9102 285.834L35.7207 290.378H43.5732V292ZM50.9639 279.367C50.9639 278.429 51.2611 277.656 51.8555 277.047C52.457 276.438 53.2269 276.134 54.165 276.134C55.1175 276.134 55.8874 276.442 56.4746 277.058C57.069 277.666 57.3662 278.458 57.3662 279.432V280.194C57.3662 281.14 57.0654 281.913 56.4639 282.515C55.8695 283.109 55.1104 283.406 54.1865 283.406C53.2555 283.406 52.4857 283.109 51.877 282.515C51.2682 281.913 50.9639 281.115 50.9639 280.119V279.367ZM52.4463 280.194C52.4463 280.753 52.6038 281.215 52.9189 281.58C53.234 281.938 53.6566 282.117 54.1865 282.117C54.695 282.117 55.1032 281.942 55.4111 281.591C55.7262 281.24 55.8838 280.76 55.8838 280.151V279.367C55.8838 278.809 55.7298 278.347 55.4219 277.981C55.1139 277.616 54.695 277.434 54.165 277.434C53.6351 277.434 53.2161 277.616 52.9082 277.981C52.6003 278.347 52.4463 278.823 52.4463 279.41V280.194ZM58.5801 288.165C58.5801 287.227 58.8773 286.457 59.4717 285.855C60.0732 285.247 60.8431 284.942 61.7812 284.942C62.7194 284.942 63.4893 285.243 64.0908 285.845C64.6924 286.446 64.9932 287.245 64.9932 288.24V289.003C64.9932 289.941 64.6924 290.715 64.0908 291.323C63.4964 291.925 62.7337 292.226 61.8027 292.226C60.8717 292.226 60.1019 291.928 59.4932 291.334C58.8844 290.732 58.5801 289.934 58.5801 288.938V288.165ZM60.0625 289.003C60.0625 289.569 60.2201 290.034 60.5352 290.399C60.8503 290.757 61.2728 290.937 61.8027 290.937C62.3184 290.937 62.7301 290.761 63.0381 290.41C63.346 290.052 63.5 289.569 63.5 288.96V288.165C63.5 287.599 63.3424 287.137 63.0273 286.779C62.7194 286.421 62.304 286.242 61.7812 286.242C61.2728 286.242 60.8574 286.421 60.5352 286.779C60.2201 287.13 60.0625 287.606 60.0625 288.208V289.003ZM54.6377 290.818L53.5098 290.109L61.1475 277.885L62.2754 278.594L54.6377 290.818Z" fill="#39352A"/>
<line y1="247.5" x2="320" y2="247.5" stroke="#EEEEEE"/>
<path d="M7.11914 210.549H5.11523V214H3.98438V205.469H6.80859C7.76953 205.469 8.50781 205.688 9.02344 206.125C9.54297 206.562 9.80273 207.199 9.80273 208.035C9.80273 208.566 9.6582 209.029 9.36914 209.424C9.08398 209.818 8.68555 210.113 8.17383 210.309L10.1777 213.93V214H8.9707L7.11914 210.549ZM5.11523 209.629H6.84375C7.40234 209.629 7.8457 209.484 8.17383 209.195C8.50586 208.906 8.67188 208.52 8.67188 208.035C8.67188 207.508 8.51367 207.104 8.19727 206.822C7.88477 206.541 7.43164 206.398 6.83789 206.395H5.11523V209.629ZM13.8457 214.117C12.9863 214.117 12.2871 213.836 11.748 213.273C11.209 212.707 10.9395 211.951 10.9395 211.006V210.807C10.9395 210.178 11.0586 209.617 11.2969 209.125C11.5391 208.629 11.875 208.242 12.3047 207.965C12.7383 207.684 13.207 207.543 13.7109 207.543C14.5352 207.543 15.1758 207.814 15.6328 208.357C16.0898 208.9 16.3184 209.678 16.3184 210.689V211.141H12.0234C12.0391 211.766 12.2207 212.271 12.5684 212.658C12.9199 213.041 13.3652 213.232 13.9043 213.232C14.2871 213.232 14.6113 213.154 14.877 212.998C15.1426 212.842 15.375 212.635 15.5742 212.377L16.2363 212.893C15.7051 213.709 14.9082 214.117 13.8457 214.117ZM13.7109 208.434C13.2734 208.434 12.9062 208.594 12.6094 208.914C12.3125 209.23 12.1289 209.676 12.0586 210.25H15.2344V210.168C15.2031 209.617 15.0547 209.191 14.7891 208.891C14.5234 208.586 14.1641 208.434 13.7109 208.434ZM19.0488 206.125V207.66H20.2324V208.498H19.0488V212.43C19.0488 212.684 19.1016 212.875 19.207 213.004C19.3125 213.129 19.4922 213.191 19.7461 213.191C19.8711 213.191 20.043 213.168 20.2617 213.121V214C19.9766 214.078 19.6992 214.117 19.4297 214.117C18.9453 214.117 18.5801 213.971 18.334 213.678C18.0879 213.385 17.9648 212.969 17.9648 212.43V208.498H16.8105V207.66H17.9648V206.125H19.0488ZM25.418 213.373C24.9961 213.869 24.377 214.117 23.5605 214.117C22.8848 214.117 22.3691 213.922 22.0137 213.531C21.6621 213.137 21.4844 212.555 21.4805 211.785V207.66H22.5645V211.756C22.5645 212.717 22.9551 213.197 23.7363 213.197C24.5645 213.197 25.1152 212.889 25.3887 212.271V207.66H26.4727V214H25.4414L25.418 213.373ZM31.1895 208.633C31.0254 208.605 30.8477 208.592 30.6562 208.592C29.9453 208.592 29.4629 208.895 29.209 209.5V214H28.125V207.66H29.1797L29.1973 208.393C29.5527 207.826 30.0566 207.543 30.709 207.543C30.9199 207.543 31.0801 207.57 31.1895 207.625V208.633ZM33.2168 207.66L33.252 208.457C33.7363 207.848 34.3691 207.543 35.1504 207.543C36.4902 207.543 37.166 208.299 37.1777 209.811V214H36.0938V209.805C36.0898 209.348 35.9844 209.01 35.7773 208.791C35.5742 208.572 35.2559 208.463 34.8223 208.463C34.4707 208.463 34.1621 208.557 33.8965 208.744C33.6309 208.932 33.4238 209.178 33.2754 209.482V214H32.1914V207.66H33.2168ZM39.9902 214H38.9062V207.66H39.9902V214ZM38.8184 205.979C38.8184 205.803 38.8711 205.654 38.9766 205.533C39.0859 205.412 39.2461 205.352 39.457 205.352C39.668 205.352 39.8281 205.412 39.9375 205.533C40.0469 205.654 40.1016 205.803 40.1016 205.979C40.1016 206.154 40.0469 206.301 39.9375 206.418C39.8281 206.535 39.668 206.594 39.457 206.594C39.2461 206.594 39.0859 206.535 38.9766 206.418C38.8711 206.301 38.8184 206.154 38.8184 205.979ZM42.7559 207.66L42.791 208.457C43.2754 207.848 43.9082 207.543 44.6895 207.543C46.0293 207.543 46.7051 208.299 46.7168 209.811V214H45.6328V209.805C45.6289 209.348 45.5234 209.01 45.3164 208.791C45.1133 208.572 44.7949 208.463 44.3613 208.463C44.0098 208.463 43.7012 208.557 43.4355 208.744C43.1699 208.932 42.9629 209.178 42.8145 209.482V214H41.7305V207.66H42.7559ZM48.0938 210.777C48.0938 209.789 48.3223 209.004 48.7793 208.422C49.2363 207.836 49.8418 207.543 50.5957 207.543C51.3691 207.543 51.9727 207.816 52.4062 208.363L52.459 207.66H53.4492V213.848C53.4492 214.668 53.2051 215.314 52.7168 215.787C52.2324 216.26 51.5801 216.496 50.7598 216.496C50.3027 216.496 49.8555 216.398 49.418 216.203C48.9805 216.008 48.6465 215.74 48.416 215.4L48.9785 214.75C49.4434 215.324 50.0117 215.611 50.6836 215.611C51.2109 215.611 51.6211 215.463 51.9141 215.166C52.2109 214.869 52.3594 214.451 52.3594 213.912V213.367C51.9258 213.867 51.334 214.117 50.584 214.117C49.8418 214.117 49.2402 213.818 48.7793 213.221C48.3223 212.623 48.0938 211.809 48.0938 210.777ZM49.1836 210.9C49.1836 211.615 49.3301 212.178 49.623 212.588C49.916 212.994 50.3262 213.197 50.8535 213.197C51.5371 213.197 52.0391 212.887 52.3594 212.266V209.371C52.0273 208.766 51.5293 208.463 50.8652 208.463C50.3379 208.463 49.9258 208.668 49.6289 209.078C49.332 209.488 49.1836 210.096 49.1836 210.9ZM61.9805 213.373C61.5586 213.869 60.9395 214.117 60.123 214.117C59.4473 214.117 58.9316 213.922 58.5762 213.531C58.2246 213.137 58.0469 212.555 58.043 211.785V207.66H59.127V211.756C59.127 212.717 59.5176 213.197 60.2988 213.197C61.127 213.197 61.6777 212.889 61.9512 212.271V207.66H63.0352V214H62.0039L61.9805 213.373ZM68.3789 212.318C68.3789 212.025 68.2676 211.799 68.0449 211.639C67.8262 211.475 67.4414 211.334 66.8906 211.217C66.3438 211.1 65.9082 210.959 65.584 210.795C65.2637 210.631 65.0254 210.436 64.8691 210.209C64.7168 209.982 64.6406 209.713 64.6406 209.4C64.6406 208.881 64.8594 208.441 65.2969 208.082C65.7383 207.723 66.3008 207.543 66.9844 207.543C67.7031 207.543 68.2852 207.729 68.7305 208.1C69.1797 208.471 69.4043 208.945 69.4043 209.523H68.3145C68.3145 209.227 68.1875 208.971 67.9336 208.756C67.6836 208.541 67.3672 208.434 66.9844 208.434C66.5898 208.434 66.2812 208.52 66.0586 208.691C65.8359 208.863 65.7246 209.088 65.7246 209.365C65.7246 209.627 65.8281 209.824 66.0352 209.957C66.2422 210.09 66.6152 210.217 67.1543 210.338C67.6973 210.459 68.1367 210.604 68.4727 210.771C68.8086 210.939 69.0566 211.143 69.2168 211.381C69.3809 211.615 69.4629 211.902 69.4629 212.242C69.4629 212.809 69.2363 213.264 68.7832 213.607C68.3301 213.947 67.7422 214.117 67.0195 214.117C66.5117 214.117 66.0625 214.027 65.6719 213.848C65.2812 213.668 64.9746 213.418 64.752 213.098C64.5332 212.773 64.4238 212.424 64.4238 212.049H65.5078C65.5273 212.412 65.6719 212.701 65.9414 212.916C66.2148 213.127 66.5742 213.232 67.0195 213.232C67.4297 213.232 67.7578 213.15 68.0039 212.986C68.2539 212.818 68.3789 212.596 68.3789 212.318ZM73.5059 214.117C72.6465 214.117 71.9473 213.836 71.4082 213.273C70.8691 212.707 70.5996 211.951 70.5996 211.006V210.807C70.5996 210.178 70.7188 209.617 70.957 209.125C71.1992 208.629 71.5352 208.242 71.9648 207.965C72.3984 207.684 72.8672 207.543 73.3711 207.543C74.1953 207.543 74.8359 207.814 75.293 208.357C75.75 208.9 75.9785 209.678 75.9785 210.689V211.141H71.6836C71.6992 211.766 71.8809 212.271 72.2285 212.658C72.5801 213.041 73.0254 213.232 73.5645 213.232C73.9473 213.232 74.2715 213.154 74.5371 212.998C74.8027 212.842 75.0352 212.635 75.2344 212.377L75.8965 212.893C75.3652 213.709 74.5684 214.117 73.5059 214.117ZM73.3711 208.434C72.9336 208.434 72.5664 208.594 72.2695 208.914C71.9727 209.23 71.7891 209.676 71.7188 210.25H74.8945V210.168C74.8633 209.617 74.7148 209.191 74.4492 208.891C74.1836 208.586 73.8242 208.434 73.3711 208.434ZM80.3027 208.633C80.1387 208.605 79.9609 208.592 79.7695 208.592C79.0586 208.592 78.5762 208.895 78.3223 209.5V214H77.2383V207.66H78.293L78.3105 208.393C78.666 207.826 79.1699 207.543 79.8223 207.543C80.0332 207.543 80.1934 207.57 80.3027 207.625V208.633ZM84.9961 212.318C84.9961 212.025 84.8848 211.799 84.6621 211.639C84.4434 211.475 84.0586 211.334 83.5078 211.217C82.9609 211.1 82.5254 210.959 82.2012 210.795C81.8809 210.631 81.6426 210.436 81.4863 210.209C81.334 209.982 81.2578 209.713 81.2578 209.4C81.2578 208.881 81.4766 208.441 81.9141 208.082C82.3555 207.723 82.918 207.543 83.6016 207.543C84.3203 207.543 84.9023 207.729 85.3477 208.1C85.7969 208.471 86.0215 208.945 86.0215 209.523H84.9316C84.9316 209.227 84.8047 208.971 84.5508 208.756C84.3008 208.541 83.9844 208.434 83.6016 208.434C83.207 208.434 82.8984 208.52 82.6758 208.691C82.4531 208.863 82.3418 209.088 82.3418 209.365C82.3418 209.627 82.4453 209.824 82.6523 209.957C82.8594 210.09 83.2324 210.217 83.7715 210.338C84.3145 210.459 84.7539 210.604 85.0898 210.771C85.4258 210.939 85.6738 211.143 85.834 211.381C85.998 211.615 86.0801 211.902 86.0801 212.242C86.0801 212.809 85.8535 213.264 85.4004 213.607C84.9473 213.947 84.3594 214.117 83.6367 214.117C83.1289 214.117 82.6797 214.027 82.2891 213.848C81.8984 213.668 81.5918 213.418 81.3691 213.098C81.1504 212.773 81.041 212.424 81.041 212.049H82.125C82.1445 212.412 82.2891 212.701 82.5586 212.916C82.832 213.127 83.1914 213.232 83.6367 213.232C84.0469 213.232 84.375 213.15 84.6211 212.986C84.8711 212.818 84.9961 212.596 84.9961 212.318Z" fill="#39352A"/>
<path d="M10.8311 192H8.83301V178.755L4.82617 180.227V178.422L10.5195 176.284H10.8311V192ZM25.043 186.747H27.2129V188.369H25.043V192H23.0449V188.369H15.9229V187.198L22.9268 176.359H25.043V186.747ZM18.1787 186.747H23.0449V179.077L22.8086 179.507L18.1787 186.747ZM29.1465 195.115L28.0186 194.342C28.6917 193.404 29.0426 192.437 29.0713 191.441V189.647H31.0156V191.205C31.0156 191.928 30.8366 192.652 30.4785 193.375C30.1276 194.098 29.6836 194.678 29.1465 195.115ZM43.5732 192H33.3252V190.571L38.7393 184.556C39.5413 183.646 40.0928 182.909 40.3936 182.343C40.7015 181.77 40.8555 181.179 40.8555 180.57C40.8555 179.754 40.6084 179.084 40.1143 178.562C39.6201 178.039 38.9613 177.777 38.1377 177.777C37.1494 177.777 36.3796 178.06 35.8281 178.626C35.2839 179.185 35.0117 179.965 35.0117 180.968H33.0244C33.0244 179.528 33.4863 178.365 34.4102 177.477C35.3411 176.589 36.5837 176.145 38.1377 176.145C39.5915 176.145 40.7409 176.528 41.5859 177.294C42.431 178.053 42.8535 179.066 42.8535 180.334C42.8535 181.874 41.8724 183.707 39.9102 185.834L35.7207 190.378H43.5732V192ZM50.9639 179.367C50.9639 178.429 51.2611 177.656 51.8555 177.047C52.457 176.438 53.2269 176.134 54.165 176.134C55.1175 176.134 55.8874 176.442 56.4746 177.058C57.069 177.666 57.3662 178.458 57.3662 179.432V180.194C57.3662 181.14 57.0654 181.913 56.4639 182.515C55.8695 183.109 55.1104 183.406 54.1865 183.406C53.2555 183.406 52.4857 183.109 51.877 182.515C51.2682 181.913 50.9639 181.115 50.9639 180.119V179.367ZM52.4463 180.194C52.4463 180.753 52.6038 181.215 52.9189 181.58C53.234 181.938 53.6566 182.117 54.1865 182.117C54.695 182.117 55.1032 181.942 55.4111 181.591C55.7262 181.24 55.8838 180.76 55.8838 180.151V179.367C55.8838 178.809 55.7298 178.347 55.4219 177.981C55.1139 177.616 54.695 177.434 54.165 177.434C53.6351 177.434 53.2161 177.616 52.9082 177.981C52.6003 178.347 52.4463 178.823 52.4463 179.41V180.194ZM58.5801 188.165C58.5801 187.227 58.8773 186.457 59.4717 185.855C60.0732 185.247 60.8431 184.942 61.7812 184.942C62.7194 184.942 63.4893 185.243 64.0908 185.845C64.6924 186.446 64.9932 187.245 64.9932 188.24V189.003C64.9932 189.941 64.6924 190.715 64.0908 191.323C63.4964 191.925 62.7337 192.226 61.8027 192.226C60.8717 192.226 60.1019 191.928 59.4932 191.334C58.8844 190.732 58.5801 189.934 58.5801 188.938V188.165ZM60.0625 189.003C60.0625 189.569 60.2201 190.034 60.5352 190.399C60.8503 190.757 61.2728 190.937 61.8027 190.937C62.3184 190.937 62.7301 190.761 63.0381 190.41C63.346 190.052 63.5 189.569 63.5 188.96V188.165C63.5 187.599 63.3424 187.137 63.0273 186.779C62.7194 186.421 62.304 186.242 61.7812 186.242C61.2728 186.242 60.8574 186.421 60.5352 186.779C60.2201 187.13 60.0625 187.606 60.0625 188.208V189.003ZM54.6377 190.818L53.5098 190.109L61.1475 177.885L62.2754 178.594L54.6377 190.818Z" fill="#39352A"/>
<path d="M161.99 135V126.469H164.779C165.705 126.469 166.4 126.66 166.865 127.043C167.334 127.426 167.568 127.992 167.568 128.742C167.568 129.141 167.455 129.494 167.229 129.803C167.002 130.107 166.693 130.344 166.303 130.512C166.764 130.641 167.127 130.887 167.393 131.25C167.662 131.609 167.797 132.039 167.797 132.539C167.797 133.305 167.549 133.906 167.053 134.344C166.557 134.781 165.855 135 164.949 135H161.99ZM163.115 131.01V134.08H164.973C165.496 134.08 165.908 133.945 166.209 133.676C166.514 133.402 166.666 133.027 166.666 132.551C166.666 131.523 166.107 131.01 164.99 131.01H163.115ZM163.115 130.107H164.814C165.307 130.107 165.699 129.984 165.992 129.738C166.289 129.492 166.438 129.158 166.438 128.736C166.438 128.268 166.301 127.928 166.027 127.717C165.754 127.502 165.338 127.395 164.779 127.395H163.115V130.107ZM169.01 131.771C169.01 131.15 169.131 130.592 169.373 130.096C169.619 129.6 169.959 129.217 170.393 128.947C170.83 128.678 171.328 128.543 171.887 128.543C172.75 128.543 173.447 128.842 173.979 129.439C174.514 130.037 174.781 130.832 174.781 131.824V131.9C174.781 132.518 174.662 133.072 174.424 133.564C174.189 134.053 173.852 134.434 173.41 134.707C172.973 134.98 172.469 135.117 171.898 135.117C171.039 135.117 170.342 134.818 169.807 134.221C169.275 133.623 169.01 132.832 169.01 131.848V131.771ZM170.1 131.9C170.1 132.604 170.262 133.168 170.586 133.594C170.914 134.02 171.352 134.232 171.898 134.232C172.449 134.232 172.887 134.018 173.211 133.588C173.535 133.154 173.697 132.549 173.697 131.771C173.697 131.076 173.531 130.514 173.199 130.084C172.871 129.65 172.434 129.434 171.887 129.434C171.352 129.434 170.92 129.646 170.592 130.072C170.264 130.498 170.1 131.107 170.1 131.9ZM180.055 134.373C179.633 134.869 179.014 135.117 178.197 135.117C177.521 135.117 177.006 134.922 176.65 134.531C176.299 134.137 176.121 133.555 176.117 132.785V128.66H177.201V132.756C177.201 133.717 177.592 134.197 178.373 134.197C179.201 134.197 179.752 133.889 180.025 133.271V128.66H181.109V135H180.078L180.055 134.373ZM183.787 128.66L183.822 129.457C184.307 128.848 184.939 128.543 185.721 128.543C187.061 128.543 187.736 129.299 187.748 130.811V135H186.664V130.805C186.66 130.348 186.555 130.01 186.348 129.791C186.145 129.572 185.826 129.463 185.393 129.463C185.041 129.463 184.732 129.557 184.467 129.744C184.201 129.932 183.994 130.178 183.846 130.482V135H182.762V128.66H183.787ZM191.926 134.232C192.312 134.232 192.65 134.115 192.939 133.881C193.229 133.646 193.389 133.354 193.42 133.002H194.445C194.426 133.365 194.301 133.711 194.07 134.039C193.84 134.367 193.531 134.629 193.145 134.824C192.762 135.02 192.355 135.117 191.926 135.117C191.062 135.117 190.375 134.83 189.863 134.256C189.355 133.678 189.102 132.889 189.102 131.889V131.707C189.102 131.09 189.215 130.541 189.441 130.061C189.668 129.58 189.992 129.207 190.414 128.941C190.84 128.676 191.342 128.543 191.92 128.543C192.631 128.543 193.221 128.756 193.689 129.182C194.162 129.607 194.414 130.16 194.445 130.84H193.42C193.389 130.43 193.232 130.094 192.951 129.832C192.674 129.566 192.33 129.434 191.92 129.434C191.369 129.434 190.941 129.633 190.637 130.031C190.336 130.426 190.186 130.998 190.186 131.748V131.953C190.186 132.684 190.336 133.246 190.637 133.641C190.938 134.035 191.367 134.232 191.926 134.232ZM198.295 135.117C197.436 135.117 196.736 134.836 196.197 134.273C195.658 133.707 195.389 132.951 195.389 132.006V131.807C195.389 131.178 195.508 130.617 195.746 130.125C195.988 129.629 196.324 129.242 196.754 128.965C197.188 128.684 197.656 128.543 198.16 128.543C198.984 128.543 199.625 128.814 200.082 129.357C200.539 129.9 200.768 130.678 200.768 131.689V132.141H196.473C196.488 132.766 196.67 133.271 197.018 133.658C197.369 134.041 197.814 134.232 198.354 134.232C198.736 134.232 199.061 134.154 199.326 133.998C199.592 133.842 199.824 133.635 200.023 133.377L200.686 133.893C200.154 134.709 199.357 135.117 198.295 135.117ZM198.16 129.434C197.723 129.434 197.355 129.594 197.059 129.914C196.762 130.23 196.578 130.676 196.508 131.25H199.684V131.168C199.652 130.617 199.504 130.191 199.238 129.891C198.973 129.586 198.613 129.434 198.16 129.434ZM208.068 129.633C207.904 129.605 207.727 129.592 207.535 129.592C206.824 129.592 206.342 129.895 206.088 130.5V135H205.004V128.66H206.059L206.076 129.393C206.432 128.826 206.936 128.543 207.588 128.543C207.799 128.543 207.959 128.57 208.068 128.625V129.633ZM212.75 135C212.688 134.875 212.637 134.652 212.598 134.332C212.094 134.855 211.492 135.117 210.793 135.117C210.168 135.117 209.654 134.941 209.252 134.59C208.854 134.234 208.654 133.785 208.654 133.242C208.654 132.582 208.904 132.07 209.404 131.707C209.908 131.34 210.615 131.156 211.525 131.156H212.58V130.658C212.58 130.279 212.467 129.979 212.24 129.756C212.014 129.529 211.68 129.416 211.238 129.416C210.852 129.416 210.527 129.514 210.266 129.709C210.004 129.904 209.873 130.141 209.873 130.418H208.783C208.783 130.102 208.895 129.797 209.117 129.504C209.344 129.207 209.648 128.973 210.031 128.801C210.418 128.629 210.842 128.543 211.303 128.543C212.033 128.543 212.605 128.727 213.02 129.094C213.434 129.457 213.648 129.959 213.664 130.6V133.518C213.664 134.1 213.738 134.562 213.887 134.906V135H212.75ZM210.951 134.174C211.291 134.174 211.613 134.086 211.918 133.91C212.223 133.734 212.443 133.506 212.58 133.225V131.924H211.73C210.402 131.924 209.738 132.312 209.738 133.09C209.738 133.43 209.852 133.695 210.078 133.887C210.305 134.078 210.596 134.174 210.951 134.174ZM216.834 127.125V128.66H218.018V129.498H216.834V133.43C216.834 133.684 216.887 133.875 216.992 134.004C217.098 134.129 217.277 134.191 217.531 134.191C217.656 134.191 217.828 134.168 218.047 134.121V135C217.762 135.078 217.484 135.117 217.215 135.117C216.73 135.117 216.365 134.971 216.119 134.678C215.873 134.385 215.75 133.969 215.75 133.43V129.498H214.596V128.66H215.75V127.125H216.834ZM221.92 135.117C221.061 135.117 220.361 134.836 219.822 134.273C219.283 133.707 219.014 132.951 219.014 132.006V131.807C219.014 131.178 219.133 130.617 219.371 130.125C219.613 129.629 219.949 129.242 220.379 128.965C220.812 128.684 221.281 128.543 221.785 128.543C222.609 128.543 223.25 128.814 223.707 129.357C224.164 129.9 224.393 130.678 224.393 131.689V132.141H220.098C220.113 132.766 220.295 133.271 220.643 133.658C220.994 134.041 221.439 134.232 221.979 134.232C222.361 134.232 222.686 134.154 222.951 133.998C223.217 133.842 223.449 133.635 223.648 133.377L224.311 133.893C223.779 134.709 222.982 135.117 221.92 135.117ZM221.785 129.434C221.348 129.434 220.98 129.594 220.684 129.914C220.387 130.23 220.203 130.676 220.133 131.25H223.309V131.168C223.277 130.617 223.129 130.191 222.863 129.891C222.598 129.586 222.238 129.434 221.785 129.434Z" fill="#39352A"/>
<path d="M172.548 113H162.3V111.571L167.714 105.556C168.516 104.646 169.067 103.909 169.368 103.343C169.676 102.77 169.83 102.179 169.83 101.57C169.83 100.754 169.583 100.084 169.089 99.5615C168.595 99.0387 167.936 98.7773 167.112 98.7773C166.124 98.7773 165.354 99.0602 164.803 99.626C164.258 100.185 163.986 100.965 163.986 101.968H161.999C161.999 100.528 162.461 99.3646 163.385 98.4766C164.316 97.5885 165.558 97.1445 167.112 97.1445C168.566 97.1445 169.715 97.5277 170.561 98.2939C171.406 99.0531 171.828 100.066 171.828 101.334C171.828 102.874 170.847 104.707 168.885 106.834L164.695 111.378H172.548V113ZM184.139 101.441C184.139 102.222 183.931 102.917 183.516 103.525C183.107 104.134 182.552 104.61 181.851 104.954C182.667 105.305 183.312 105.817 183.784 106.49C184.264 107.163 184.504 107.926 184.504 108.778C184.504 110.132 184.046 111.21 183.129 112.012C182.219 112.814 181.02 113.215 179.53 113.215C178.026 113.215 176.82 112.814 175.91 112.012C175.008 111.202 174.557 110.125 174.557 108.778C174.557 107.933 174.786 107.171 175.244 106.49C175.71 105.81 176.351 105.294 177.167 104.943C176.472 104.6 175.924 104.123 175.523 103.515C175.122 102.906 174.922 102.215 174.922 101.441C174.922 100.124 175.344 99.0781 176.189 98.3047C177.035 97.5312 178.148 97.1445 179.53 97.1445C180.905 97.1445 182.015 97.5312 182.86 98.3047C183.713 99.0781 184.139 100.124 184.139 101.441ZM182.517 108.735C182.517 107.862 182.237 107.149 181.679 106.598C181.127 106.046 180.404 105.771 179.509 105.771C178.614 105.771 177.894 106.043 177.35 106.587C176.812 107.131 176.544 107.847 176.544 108.735C176.544 109.623 176.805 110.322 177.328 110.83C177.858 111.339 178.592 111.593 179.53 111.593C180.461 111.593 181.192 111.339 181.722 110.83C182.252 110.314 182.517 109.616 182.517 108.735ZM179.53 98.7773C178.75 98.7773 178.116 99.0208 177.629 99.5078C177.149 99.9876 176.909 100.643 176.909 101.474C176.909 102.269 177.146 102.913 177.618 103.407C178.098 103.894 178.735 104.138 179.53 104.138C180.325 104.138 180.959 103.894 181.432 103.407C181.911 102.913 182.151 102.269 182.151 101.474C182.151 100.679 181.904 100.031 181.41 99.5293C180.916 99.028 180.289 98.7773 179.53 98.7773ZM187.146 116.115L186.019 115.342C186.692 114.404 187.043 113.437 187.071 112.441V110.647H189.016V112.205C189.016 112.928 188.837 113.652 188.479 114.375C188.128 115.098 187.684 115.678 187.146 116.115ZM199.124 97.3486V99.0352H198.759C197.212 99.0638 195.98 99.5221 195.063 100.41C194.147 101.298 193.617 102.548 193.474 104.159C194.297 103.214 195.422 102.741 196.847 102.741C198.207 102.741 199.292 103.221 200.102 104.181C200.918 105.14 201.326 106.379 201.326 107.897C201.326 109.509 200.886 110.798 200.005 111.765C199.131 112.731 197.957 113.215 196.481 113.215C194.985 113.215 193.771 112.642 192.84 111.496C191.909 110.343 191.443 108.861 191.443 107.049V106.286C191.443 103.407 192.056 101.209 193.28 99.6904C194.512 98.165 196.342 97.3844 198.77 97.3486H199.124ZM196.514 104.396C195.833 104.396 195.207 104.6 194.634 105.008C194.061 105.416 193.663 105.928 193.441 106.544V107.274C193.441 108.563 193.731 109.602 194.312 110.39C194.892 111.177 195.615 111.571 196.481 111.571C197.377 111.571 198.078 111.242 198.587 110.583C199.103 109.924 199.36 109.061 199.36 107.994C199.36 106.92 199.099 106.053 198.576 105.395C198.061 104.729 197.373 104.396 196.514 104.396ZM208.964 100.367C208.964 99.429 209.261 98.6556 209.855 98.0469C210.457 97.4382 211.227 97.1338 212.165 97.1338C213.118 97.1338 213.887 97.4417 214.475 98.0576C215.069 98.6663 215.366 99.4577 215.366 100.432V101.194C215.366 102.14 215.065 102.913 214.464 103.515C213.869 104.109 213.11 104.406 212.187 104.406C211.256 104.406 210.486 104.109 209.877 103.515C209.268 102.913 208.964 102.115 208.964 101.119V100.367ZM210.446 101.194C210.446 101.753 210.604 102.215 210.919 102.58C211.234 102.938 211.657 103.117 212.187 103.117C212.695 103.117 213.103 102.942 213.411 102.591C213.726 102.24 213.884 101.76 213.884 101.151V100.367C213.884 99.8086 213.73 99.3467 213.422 98.9814C213.114 98.6162 212.695 98.4336 212.165 98.4336C211.635 98.4336 211.216 98.6162 210.908 98.9814C210.6 99.3467 210.446 99.8229 210.446 100.41V101.194ZM216.58 109.165C216.58 108.227 216.877 107.457 217.472 106.855C218.073 106.247 218.843 105.942 219.781 105.942C220.719 105.942 221.489 106.243 222.091 106.845C222.692 107.446 222.993 108.245 222.993 109.24V110.003C222.993 110.941 222.692 111.715 222.091 112.323C221.496 112.925 220.734 113.226 219.803 113.226C218.872 113.226 218.102 112.928 217.493 112.334C216.884 111.732 216.58 110.934 216.58 109.938V109.165ZM218.062 110.003C218.062 110.569 218.22 111.034 218.535 111.399C218.85 111.757 219.273 111.937 219.803 111.937C220.318 111.937 220.73 111.761 221.038 111.41C221.346 111.052 221.5 110.569 221.5 109.96V109.165C221.5 108.599 221.342 108.137 221.027 107.779C220.719 107.421 220.304 107.242 219.781 107.242C219.273 107.242 218.857 107.421 218.535 107.779C218.22 108.13 218.062 108.606 218.062 109.208V110.003ZM212.638 111.818L211.51 111.109L219.147 98.8848L220.275 99.5938L212.638 111.818Z" fill="#39352A"/>
<path d="M8.70117 132.773H5.12695L4.32422 135H3.16406L6.42188 126.469H7.40625L10.6699 135H9.51562L8.70117 132.773ZM5.4668 131.848H8.36719L6.91406 127.857L5.4668 131.848ZM13.4473 133.529L15.0176 128.66H16.125L13.8516 135H13.0254L10.7285 128.66H11.8359L13.4473 133.529ZM16.8281 131.777C16.8281 130.789 17.0566 130.004 17.5137 129.422C17.9707 128.836 18.5762 128.543 19.3301 128.543C20.1035 128.543 20.707 128.816 21.1406 129.363L21.1934 128.66H22.1836V134.848C22.1836 135.668 21.9395 136.314 21.4512 136.787C20.9668 137.26 20.3145 137.496 19.4941 137.496C19.0371 137.496 18.5898 137.398 18.1523 137.203C17.7148 137.008 17.3809 136.74 17.1504 136.4L17.7129 135.75C18.1777 136.324 18.7461 136.611 19.418 136.611C19.9453 136.611 20.3555 136.463 20.6484 136.166C20.9453 135.869 21.0938 135.451 21.0938 134.912V134.367C20.6602 134.867 20.0684 135.117 19.3184 135.117C18.5762 135.117 17.9746 134.818 17.5137 134.221C17.0566 133.623 16.8281 132.809 16.8281 131.777ZM17.918 131.9C17.918 132.615 18.0645 133.178 18.3574 133.588C18.6504 133.994 19.0605 134.197 19.5879 134.197C20.2715 134.197 20.7734 133.887 21.0938 133.266V130.371C20.7617 129.766 20.2637 129.463 19.5996 129.463C19.0723 129.463 18.6602 129.668 18.3633 130.078C18.0664 130.488 17.918 131.096 17.918 131.9ZM23.8477 134.432C23.8477 134.244 23.9023 134.088 24.0117 133.963C24.125 133.838 24.293 133.775 24.5156 133.775C24.7383 133.775 24.9062 133.838 25.0195 133.963C25.1367 134.088 25.1953 134.244 25.1953 134.432C25.1953 134.611 25.1367 134.762 25.0195 134.883C24.9062 135.004 24.7383 135.064 24.5156 135.064C24.293 135.064 24.125 135.004 24.0117 134.883C23.9023 134.762 23.8477 134.611 23.8477 134.432ZM35.3203 131.9C35.3203 132.865 35.0996 133.643 34.6582 134.232C34.2168 134.822 33.6191 135.117 32.8652 135.117C32.0957 135.117 31.4902 134.873 31.0488 134.385V137.438H29.9648V128.66H30.9551L31.0078 129.363C31.4492 128.816 32.0625 128.543 32.8477 128.543C33.6094 128.543 34.2109 128.83 34.6523 129.404C35.0977 129.979 35.3203 130.777 35.3203 131.801V131.9ZM34.2363 131.777C34.2363 131.062 34.084 130.498 33.7793 130.084C33.4746 129.67 33.0566 129.463 32.5254 129.463C31.8691 129.463 31.377 129.754 31.0488 130.336V133.365C31.373 133.943 31.8691 134.232 32.5371 134.232C33.0566 134.232 33.4688 134.027 33.7734 133.617C34.082 133.203 34.2363 132.59 34.2363 131.777ZM40.6172 135C40.5547 134.875 40.5039 134.652 40.4648 134.332C39.9609 134.855 39.3594 135.117 38.6602 135.117C38.0352 135.117 37.5215 134.941 37.1191 134.59C36.7207 134.234 36.5215 133.785 36.5215 133.242C36.5215 132.582 36.7715 132.07 37.2715 131.707C37.7754 131.34 38.4824 131.156 39.3926 131.156H40.4473V130.658C40.4473 130.279 40.334 129.979 40.1074 129.756C39.8809 129.529 39.5469 129.416 39.1055 129.416C38.7188 129.416 38.3945 129.514 38.1328 129.709C37.8711 129.904 37.7402 130.141 37.7402 130.418H36.6504C36.6504 130.102 36.7617 129.797 36.9844 129.504C37.2109 129.207 37.5156 128.973 37.8984 128.801C38.2852 128.629 38.709 128.543 39.1699 128.543C39.9004 128.543 40.4727 128.727 40.8867 129.094C41.3008 129.457 41.5156 129.959 41.5312 130.6V133.518C41.5312 134.1 41.6055 134.562 41.7539 134.906V135H40.6172ZM38.8184 134.174C39.1582 134.174 39.4805 134.086 39.7852 133.91C40.0898 133.734 40.3105 133.506 40.4473 133.225V131.924H39.5977C38.2695 131.924 37.6055 132.312 37.6055 133.09C37.6055 133.43 37.7188 133.695 37.9453 133.887C38.1719 134.078 38.4629 134.174 38.8184 134.174ZM42.9727 131.777C42.9727 130.789 43.2012 130.004 43.6582 129.422C44.1152 128.836 44.7207 128.543 45.4746 128.543C46.248 128.543 46.8516 128.816 47.2852 129.363L47.3379 128.66H48.3281V134.848C48.3281 135.668 48.084 136.314 47.5957 136.787C47.1113 137.26 46.459 137.496 45.6387 137.496C45.1816 137.496 44.7344 137.398 44.2969 137.203C43.8594 137.008 43.5254 136.74 43.2949 136.4L43.8574 135.75C44.3223 136.324 44.8906 136.611 45.5625 136.611C46.0898 136.611 46.5 136.463 46.793 136.166C47.0898 135.869 47.2383 135.451 47.2383 134.912V134.367C46.8047 134.867 46.2129 135.117 45.4629 135.117C44.7207 135.117 44.1191 134.818 43.6582 134.221C43.2012 133.623 42.9727 132.809 42.9727 131.777ZM44.0625 131.9C44.0625 132.615 44.209 133.178 44.502 133.588C44.7949 133.994 45.2051 134.197 45.7324 134.197C46.416 134.197 46.918 133.887 47.2383 133.266V130.371C46.9062 129.766 46.4082 129.463 45.7441 129.463C45.2168 129.463 44.8047 129.668 44.5078 130.078C44.2109 130.488 44.0625 131.096 44.0625 131.9ZM52.5996 135.117C51.7402 135.117 51.041 134.836 50.502 134.273C49.9629 133.707 49.6934 132.951 49.6934 132.006V131.807C49.6934 131.178 49.8125 130.617 50.0508 130.125C50.293 129.629 50.6289 129.242 51.0586 128.965C51.4922 128.684 51.9609 128.543 52.4648 128.543C53.2891 128.543 53.9297 128.814 54.3867 129.357C54.8438 129.9 55.0723 130.678 55.0723 131.689V132.141H50.7773C50.793 132.766 50.9746 133.271 51.3223 133.658C51.6738 134.041 52.1191 134.232 52.6582 134.232C53.041 134.232 53.3652 134.154 53.6309 133.998C53.8965 133.842 54.1289 133.635 54.3281 133.377L54.9902 133.893C54.459 134.709 53.6621 135.117 52.5996 135.117ZM52.4648 129.434C52.0273 129.434 51.6602 129.594 51.3633 129.914C51.0664 130.23 50.8828 130.676 50.8125 131.25H53.9883V131.168C53.957 130.617 53.8086 130.191 53.543 129.891C53.2773 129.586 52.918 129.434 52.4648 129.434ZM59.0449 131.777C59.0449 130.805 59.2754 130.023 59.7363 129.434C60.1973 128.84 60.8008 128.543 61.5469 128.543C62.2891 128.543 62.877 128.797 63.3105 129.305V126H64.3945V135H63.3984L63.3457 134.32C62.9121 134.852 62.3086 135.117 61.5352 135.117C60.8008 135.117 60.2012 134.816 59.7363 134.215C59.2754 133.613 59.0449 132.828 59.0449 131.859V131.777ZM60.1289 131.9C60.1289 132.619 60.2773 133.182 60.5742 133.588C60.8711 133.994 61.2812 134.197 61.8047 134.197C62.4922 134.197 62.9941 133.889 63.3105 133.271V130.359C62.9863 129.762 62.4883 129.463 61.8164 129.463C61.2852 129.463 60.8711 129.668 60.5742 130.078C60.2773 130.488 60.1289 131.096 60.1289 131.9ZM68.7129 135.117C67.8535 135.117 67.1543 134.836 66.6152 134.273C66.0762 133.707 65.8066 132.951 65.8066 132.006V131.807C65.8066 131.178 65.9258 130.617 66.1641 130.125C66.4062 129.629 66.7422 129.242 67.1719 128.965C67.6055 128.684 68.0742 128.543 68.5781 128.543C69.4023 128.543 70.043 128.814 70.5 129.357C70.957 129.9 71.1855 130.678 71.1855 131.689V132.141H66.8906C66.9062 132.766 67.0879 133.271 67.4355 133.658C67.7871 134.041 68.2324 134.232 68.7715 134.232C69.1543 134.232 69.4785 134.154 69.7441 133.998C70.0098 133.842 70.2422 133.635 70.4414 133.377L71.1035 133.893C70.5723 134.709 69.7754 135.117 68.7129 135.117ZM68.5781 129.434C68.1406 129.434 67.7734 129.594 67.4766 129.914C67.1797 130.23 66.9961 130.676 66.9258 131.25H70.1016V131.168C70.0703 130.617 69.9219 130.191 69.6562 129.891C69.3906 129.586 69.0312 129.434 68.5781 129.434ZM77.8008 131.9C77.8008 132.865 77.5801 133.643 77.1387 134.232C76.6973 134.822 76.0996 135.117 75.3457 135.117C74.5762 135.117 73.9707 134.873 73.5293 134.385V137.438H72.4453V128.66H73.4355L73.4883 129.363C73.9297 128.816 74.543 128.543 75.3281 128.543C76.0898 128.543 76.6914 128.83 77.1328 129.404C77.5781 129.979 77.8008 130.777 77.8008 131.801V131.9ZM76.7168 131.777C76.7168 131.062 76.5645 130.498 76.2598 130.084C75.9551 129.67 75.5371 129.463 75.0059 129.463C74.3496 129.463 73.8574 129.754 73.5293 130.336V133.365C73.8535 133.943 74.3496 134.232 75.0176 134.232C75.5371 134.232 75.9492 134.027 76.2539 133.617C76.5625 133.203 76.7168 132.59 76.7168 131.777ZM80.6543 127.125V128.66H81.8379V129.498H80.6543V133.43C80.6543 133.684 80.707 133.875 80.8125 134.004C80.918 134.129 81.0977 134.191 81.3516 134.191C81.4766 134.191 81.6484 134.168 81.8672 134.121V135C81.582 135.078 81.3047 135.117 81.0352 135.117C80.5508 135.117 80.1855 134.971 79.9395 134.678C79.6934 134.385 79.5703 133.969 79.5703 133.43V129.498H78.416V128.66H79.5703V127.125H80.6543ZM84.1934 129.428C84.6738 128.838 85.2988 128.543 86.0684 128.543C87.4082 128.543 88.084 129.299 88.0957 130.811V135H87.0117V130.805C87.0078 130.348 86.9023 130.01 86.6953 129.791C86.4922 129.572 86.1738 129.463 85.7402 129.463C85.3887 129.463 85.0801 129.557 84.8145 129.744C84.5488 129.932 84.3418 130.178 84.1934 130.482V135H83.1094V126H84.1934V129.428Z" fill="#39352A"/>
<path d="M14.5479 113H4.2998V111.571L9.71387 105.556C10.516 104.646 11.0674 103.909 11.3682 103.343C11.6761 102.77 11.8301 102.179 11.8301 101.57C11.8301 100.754 11.583 100.084 11.0889 99.5615C10.5947 99.0387 9.93587 98.7773 9.1123 98.7773C8.12402 98.7773 7.35417 99.0602 6.80273 99.626C6.25846 100.185 5.98633 100.965 5.98633 101.968H3.99902C3.99902 100.528 4.46094 99.3646 5.38477 98.4766C6.31576 97.5885 7.55827 97.1445 9.1123 97.1445C10.5661 97.1445 11.7155 97.5277 12.5605 98.2939C13.4056 99.0531 13.8281 100.066 13.8281 101.334C13.8281 102.874 12.847 104.707 10.8848 106.834L6.69531 111.378H14.5479V113ZM16.793 116.115L15.665 115.342C16.3382 114.404 16.6891 113.437 16.7178 112.441V110.647H18.6621V112.205C18.6621 112.928 18.4831 113.652 18.125 114.375C17.7741 115.098 17.3301 115.678 16.793 116.115ZM28.5879 106.125C28.1725 106.619 27.6748 107.017 27.0947 107.317C26.5218 107.618 25.8916 107.769 25.2041 107.769C24.3018 107.769 23.514 107.547 22.8408 107.103C22.1748 106.659 21.6592 106.035 21.2939 105.233C20.9287 104.424 20.7461 103.533 20.7461 102.559C20.7461 101.513 20.943 100.571 21.3369 99.7334C21.738 98.8955 22.3037 98.2546 23.0342 97.8105C23.7646 97.3665 24.6169 97.1445 25.5908 97.1445C27.1377 97.1445 28.3551 97.7246 29.2432 98.8848C30.1383 100.038 30.5859 101.613 30.5859 103.611V104.191C30.5859 107.235 29.9844 109.459 28.7812 110.862C27.5781 112.259 25.7627 112.975 23.335 113.011H22.9482V111.335H23.3672C25.0072 111.306 26.2676 110.88 27.1484 110.057C28.0293 109.226 28.5091 107.915 28.5879 106.125ZM25.5264 106.125C26.1924 106.125 26.8047 105.921 27.3633 105.513C27.929 105.104 28.3408 104.6 28.5986 103.998V103.203C28.5986 101.9 28.3158 100.84 27.75 100.023C27.1842 99.207 26.4681 98.7988 25.6016 98.7988C24.7279 98.7988 24.026 99.1354 23.4961 99.8086C22.9661 100.475 22.7012 101.355 22.7012 102.451C22.7012 103.518 22.9554 104.399 23.4639 105.094C23.9795 105.781 24.667 106.125 25.5264 106.125Z" fill="#39352A"/>
<line y1="72.5" x2="320" y2="72.5" stroke="#EEEEEE"/>
<path d="M167.996 32.4688V38.2695C167.992 39.0742 167.738 39.7324 167.234 40.2441C166.734 40.7559 166.055 41.043 165.195 41.1055L164.896 41.1172C163.963 41.1172 163.219 40.8652 162.664 40.3613C162.109 39.8574 161.828 39.1641 161.82 38.2812V32.4688H162.934V38.2461C162.934 38.8633 163.104 39.3438 163.443 39.6875C163.783 40.0273 164.268 40.1973 164.896 40.1973C165.533 40.1973 166.02 40.0273 166.355 39.6875C166.695 39.3477 166.865 38.8691 166.865 38.252V32.4688H167.996ZM170.627 34.6602L170.662 35.457C171.146 34.8477 171.779 34.543 172.561 34.543C173.9 34.543 174.576 35.2988 174.588 36.8105V41H173.504V36.8047C173.5 36.3477 173.395 36.0098 173.188 35.791C172.984 35.5723 172.666 35.4629 172.232 35.4629C171.881 35.4629 171.572 35.5566 171.307 35.7441C171.041 35.9316 170.834 36.1777 170.686 36.4824V41H169.602V34.6602H170.627ZM177.4 41H176.316V34.6602H177.4V41ZM176.229 32.9785C176.229 32.8027 176.281 32.6543 176.387 32.5332C176.496 32.4121 176.656 32.3516 176.867 32.3516C177.078 32.3516 177.238 32.4121 177.348 32.5332C177.457 32.6543 177.512 32.8027 177.512 32.9785C177.512 33.1543 177.457 33.3008 177.348 33.418C177.238 33.5352 177.078 33.5938 176.867 33.5938C176.656 33.5938 176.496 33.5352 176.387 33.418C176.281 33.3008 176.229 33.1543 176.229 32.9785ZM178.877 37.7773C178.877 36.7812 179.105 35.9941 179.562 35.416C180.02 34.834 180.633 34.543 181.402 34.543C182.152 34.543 182.744 34.7949 183.178 35.2988L183.225 34.6602H184.221V43.4375H183.137V40.4141C182.699 40.8828 182.117 41.1172 181.391 41.1172C180.625 41.1172 180.014 40.8203 179.557 40.2266C179.104 39.6289 178.877 38.8379 178.877 37.8535V37.7773ZM179.961 37.9004C179.961 38.627 180.113 39.1973 180.418 39.6113C180.727 40.0254 181.141 40.2324 181.66 40.2324C182.305 40.2324 182.797 39.9473 183.137 39.377V36.2715C182.793 35.7129 182.305 35.4336 181.672 35.4336C181.148 35.4336 180.732 35.6426 180.424 36.0605C180.115 36.4746 179.961 37.0879 179.961 37.9004ZM189.875 40.373C189.453 40.8691 188.834 41.1172 188.018 41.1172C187.342 41.1172 186.826 40.9219 186.471 40.5312C186.119 40.1367 185.941 39.5547 185.938 38.7852V34.6602H187.021V38.7559C187.021 39.7168 187.412 40.1973 188.193 40.1973C189.021 40.1973 189.572 39.8887 189.846 39.2715V34.6602H190.93V41H189.898L189.875 40.373ZM195.213 41.1172C194.354 41.1172 193.654 40.8359 193.115 40.2734C192.576 39.707 192.307 38.9512 192.307 38.0059V37.8066C192.307 37.1777 192.426 36.6172 192.664 36.125C192.906 35.6289 193.242 35.2422 193.672 34.9648C194.105 34.6836 194.574 34.543 195.078 34.543C195.902 34.543 196.543 34.8145 197 35.3574C197.457 35.9004 197.686 36.6777 197.686 37.6895V38.1406H193.391C193.406 38.7656 193.588 39.2715 193.936 39.6582C194.287 40.041 194.732 40.2324 195.271 40.2324C195.654 40.2324 195.979 40.1543 196.244 39.998C196.51 39.8418 196.742 39.6348 196.941 39.377L197.604 39.8926C197.072 40.709 196.275 41.1172 195.213 41.1172ZM195.078 35.4336C194.641 35.4336 194.273 35.5938 193.977 35.9141C193.68 36.2305 193.496 36.6758 193.426 37.25H196.602V37.168C196.57 36.6172 196.422 36.1914 196.156 35.8906C195.891 35.5859 195.531 35.4336 195.078 35.4336ZM205.613 39.3184C205.613 39.0254 205.502 38.7988 205.279 38.6387C205.061 38.4746 204.676 38.334 204.125 38.2168C203.578 38.0996 203.143 37.959 202.818 37.7949C202.498 37.6309 202.26 37.4355 202.104 37.209C201.951 36.9824 201.875 36.7129 201.875 36.4004C201.875 35.8809 202.094 35.4414 202.531 35.082C202.973 34.7227 203.535 34.543 204.219 34.543C204.938 34.543 205.52 34.7285 205.965 35.0996C206.414 35.4707 206.639 35.9453 206.639 36.5234H205.549C205.549 36.2266 205.422 35.9707 205.168 35.7559C204.918 35.541 204.602 35.4336 204.219 35.4336C203.824 35.4336 203.516 35.5195 203.293 35.6914C203.07 35.8633 202.959 36.0879 202.959 36.3652C202.959 36.627 203.062 36.8242 203.27 36.957C203.477 37.0898 203.85 37.2168 204.389 37.3379C204.932 37.459 205.371 37.6035 205.707 37.7715C206.043 37.9395 206.291 38.1426 206.451 38.3809C206.615 38.6152 206.697 38.9023 206.697 39.2422C206.697 39.8086 206.471 40.2637 206.018 40.6074C205.564 40.9473 204.977 41.1172 204.254 41.1172C203.746 41.1172 203.297 41.0273 202.906 40.8477C202.516 40.668 202.209 40.418 201.986 40.0977C201.768 39.7734 201.658 39.4238 201.658 39.0488H202.742C202.762 39.4121 202.906 39.7012 203.176 39.916C203.449 40.127 203.809 40.2324 204.254 40.2324C204.664 40.2324 204.992 40.1504 205.238 39.9863C205.488 39.8184 205.613 39.5957 205.613 39.3184ZM210.74 41.1172C209.881 41.1172 209.182 40.8359 208.643 40.2734C208.104 39.707 207.834 38.9512 207.834 38.0059V37.8066C207.834 37.1777 207.953 36.6172 208.191 36.125C208.434 35.6289 208.77 35.2422 209.199 34.9648C209.633 34.6836 210.102 34.543 210.605 34.543C211.43 34.543 212.07 34.8145 212.527 35.3574C212.984 35.9004 213.213 36.6777 213.213 37.6895V38.1406H208.918C208.934 38.7656 209.115 39.2715 209.463 39.6582C209.814 40.041 210.26 40.2324 210.799 40.2324C211.182 40.2324 211.506 40.1543 211.771 39.998C212.037 39.8418 212.27 39.6348 212.469 39.377L213.131 39.8926C212.6 40.709 211.803 41.1172 210.74 41.1172ZM210.605 35.4336C210.168 35.4336 209.801 35.5938 209.504 35.9141C209.207 36.2305 209.023 36.6758 208.953 37.25H212.129V37.168C212.098 36.6172 211.949 36.1914 211.684 35.8906C211.418 35.5859 211.059 35.4336 210.605 35.4336ZM218.164 39.3184C218.164 39.0254 218.053 38.7988 217.83 38.6387C217.611 38.4746 217.227 38.334 216.676 38.2168C216.129 38.0996 215.693 37.959 215.369 37.7949C215.049 37.6309 214.811 37.4355 214.654 37.209C214.502 36.9824 214.426 36.7129 214.426 36.4004C214.426 35.8809 214.645 35.4414 215.082 35.082C215.523 34.7227 216.086 34.543 216.77 34.543C217.488 34.543 218.07 34.7285 218.516 35.0996C218.965 35.4707 219.189 35.9453 219.189 36.5234H218.1C218.1 36.2266 217.973 35.9707 217.719 35.7559C217.469 35.541 217.152 35.4336 216.77 35.4336C216.375 35.4336 216.066 35.5195 215.844 35.6914C215.621 35.8633 215.51 36.0879 215.51 36.3652C215.51 36.627 215.613 36.8242 215.82 36.957C216.027 37.0898 216.4 37.2168 216.939 37.3379C217.482 37.459 217.922 37.6035 218.258 37.7715C218.594 37.9395 218.842 38.1426 219.002 38.3809C219.166 38.6152 219.248 38.9023 219.248 39.2422C219.248 39.8086 219.021 40.2637 218.568 40.6074C218.115 40.9473 217.527 41.1172 216.805 41.1172C216.297 41.1172 215.848 41.0273 215.457 40.8477C215.066 40.668 214.76 40.418 214.537 40.0977C214.318 39.7734 214.209 39.4238 214.209 39.0488H215.293C215.312 39.4121 215.457 39.7012 215.727 39.916C216 40.127 216.359 40.2324 216.805 40.2324C217.215 40.2324 217.543 40.1504 217.789 39.9863C218.039 39.8184 218.164 39.5957 218.164 39.3184ZM224.352 39.3184C224.352 39.0254 224.24 38.7988 224.018 38.6387C223.799 38.4746 223.414 38.334 222.863 38.2168C222.316 38.0996 221.881 37.959 221.557 37.7949C221.236 37.6309 220.998 37.4355 220.842 37.209C220.689 36.9824 220.613 36.7129 220.613 36.4004C220.613 35.8809 220.832 35.4414 221.27 35.082C221.711 34.7227 222.273 34.543 222.957 34.543C223.676 34.543 224.258 34.7285 224.703 35.0996C225.152 35.4707 225.377 35.9453 225.377 36.5234H224.287C224.287 36.2266 224.16 35.9707 223.906 35.7559C223.656 35.541 223.34 35.4336 222.957 35.4336C222.562 35.4336 222.254 35.5195 222.031 35.6914C221.809 35.8633 221.697 36.0879 221.697 36.3652C221.697 36.627 221.801 36.8242 222.008 36.957C222.215 37.0898 222.588 37.2168 223.127 37.3379C223.67 37.459 224.109 37.6035 224.445 37.7715C224.781 37.9395 225.029 38.1426 225.189 38.3809C225.354 38.6152 225.436 38.9023 225.436 39.2422C225.436 39.8086 225.209 40.2637 224.756 40.6074C224.303 40.9473 223.715 41.1172 222.992 41.1172C222.484 41.1172 222.035 41.0273 221.645 40.8477C221.254 40.668 220.947 40.418 220.725 40.0977C220.506 39.7734 220.396 39.4238 220.396 39.0488H221.48C221.5 39.4121 221.645 39.7012 221.914 39.916C222.188 40.127 222.547 40.2324 222.992 40.2324C223.402 40.2324 223.73 40.1504 223.977 39.9863C224.227 39.8184 224.352 39.5957 224.352 39.3184ZM228.025 41H226.941V34.6602H228.025V41ZM226.854 32.9785C226.854 32.8027 226.906 32.6543 227.012 32.5332C227.121 32.4121 227.281 32.3516 227.492 32.3516C227.703 32.3516 227.863 32.4121 227.973 32.5332C228.082 32.6543 228.137 32.8027 228.137 32.9785C228.137 33.1543 228.082 33.3008 227.973 33.418C227.863 33.5352 227.703 33.5938 227.492 33.5938C227.281 33.5938 227.121 33.5352 227.012 33.418C226.906 33.3008 226.854 33.1543 226.854 32.9785ZM229.479 37.7715C229.479 37.1504 229.6 36.5918 229.842 36.0957C230.088 35.5996 230.428 35.2168 230.861 34.9473C231.299 34.6777 231.797 34.543 232.355 34.543C233.219 34.543 233.916 34.8418 234.447 35.4395C234.982 36.0371 235.25 36.832 235.25 37.8242V37.9004C235.25 38.5176 235.131 39.0723 234.893 39.5645C234.658 40.0527 234.32 40.4336 233.879 40.707C233.441 40.9805 232.938 41.1172 232.367 41.1172C231.508 41.1172 230.811 40.8184 230.275 40.2207C229.744 39.623 229.479 38.832 229.479 37.8477V37.7715ZM230.568 37.9004C230.568 38.6035 230.73 39.168 231.055 39.5938C231.383 40.0195 231.82 40.2324 232.367 40.2324C232.918 40.2324 233.355 40.0176 233.68 39.5879C234.004 39.1543 234.166 38.5488 234.166 37.7715C234.166 37.0762 234 36.5137 233.668 36.084C233.34 35.6504 232.902 35.4336 232.355 35.4336C231.82 35.4336 231.389 35.6465 231.061 36.0723C230.732 36.498 230.568 37.1074 230.568 37.9004ZM237.635 34.6602L237.67 35.457C238.154 34.8477 238.787 34.543 239.568 34.543C240.908 34.543 241.584 35.2988 241.596 36.8105V41H240.512V36.8047C240.508 36.3477 240.402 36.0098 240.195 35.791C239.992 35.5723 239.674 35.4629 239.24 35.4629C238.889 35.4629 238.58 35.5566 238.314 35.7441C238.049 35.9316 237.842 36.1777 237.693 36.4824V41H236.609V34.6602H237.635ZM246.922 39.3184C246.922 39.0254 246.811 38.7988 246.588 38.6387C246.369 38.4746 245.984 38.334 245.434 38.2168C244.887 38.0996 244.451 37.959 244.127 37.7949C243.807 37.6309 243.568 37.4355 243.412 37.209C243.26 36.9824 243.184 36.7129 243.184 36.4004C243.184 35.8809 243.402 35.4414 243.84 35.082C244.281 34.7227 244.844 34.543 245.527 34.543C246.246 34.543 246.828 34.7285 247.273 35.0996C247.723 35.4707 247.947 35.9453 247.947 36.5234H246.857C246.857 36.2266 246.73 35.9707 246.477 35.7559C246.227 35.541 245.91 35.4336 245.527 35.4336C245.133 35.4336 244.824 35.5195 244.602 35.6914C244.379 35.8633 244.268 36.0879 244.268 36.3652C244.268 36.627 244.371 36.8242 244.578 36.957C244.785 37.0898 245.158 37.2168 245.697 37.3379C246.24 37.459 246.68 37.6035 247.016 37.7715C247.352 37.9395 247.6 38.1426 247.76 38.3809C247.924 38.6152 248.006 38.9023 248.006 39.2422C248.006 39.8086 247.779 40.2637 247.326 40.6074C246.873 40.9473 246.285 41.1172 245.562 41.1172C245.055 41.1172 244.605 41.0273 244.215 40.8477C243.824 40.668 243.518 40.418 243.295 40.0977C243.076 39.7734 242.967 39.4238 242.967 39.0488H244.051C244.07 39.4121 244.215 39.7012 244.484 39.916C244.758 40.127 245.117 40.2324 245.562 40.2324C245.973 40.2324 246.301 40.1504 246.547 39.9863C246.797 39.8184 246.922 39.5957 246.922 39.3184Z" fill="#39352A"/>
<path d="M166.713 10.0176H168.749C170.028 9.99805 171.034 9.66113 171.767 9.00684C172.499 8.35254 172.865 7.46875 172.865 6.35547C172.865 3.85547 171.62 2.60547 169.13 2.60547C167.958 2.60547 167.021 2.94238 166.317 3.61621C165.624 4.28027 165.277 5.16406 165.277 6.26758H162.567C162.567 4.57813 163.183 3.17676 164.413 2.06348C165.653 0.94043 167.226 0.378906 169.13 0.378906C171.142 0.378906 172.719 0.911133 173.861 1.97559C175.004 3.04004 175.575 4.51953 175.575 6.41406C175.575 7.3418 175.272 8.24023 174.667 9.10938C174.071 9.97852 173.256 10.6279 172.221 11.0576C173.393 11.4287 174.296 12.0439 174.931 12.9033C175.575 13.7627 175.897 14.8125 175.897 16.0527C175.897 17.9668 175.272 19.4854 174.022 20.6084C172.772 21.7314 171.146 22.293 169.145 22.293C167.143 22.293 165.512 21.751 164.252 20.667C163.002 19.583 162.377 18.1523 162.377 16.375H165.102C165.102 17.498 165.468 18.3965 166.2 19.0703C166.933 19.7441 167.914 20.0811 169.145 20.0811C170.453 20.0811 171.454 19.7393 172.147 19.0557C172.841 18.3721 173.188 17.3906 173.188 16.1113C173.188 14.8711 172.807 13.9189 172.045 13.2549C171.283 12.5908 170.185 12.249 168.749 12.2295H166.713V10.0176ZM179.955 20.5791C179.955 20.1104 180.092 19.7197 180.365 19.4072C180.648 19.0947 181.068 18.9385 181.625 18.9385C182.182 18.9385 182.602 19.0947 182.885 19.4072C183.178 19.7197 183.324 20.1104 183.324 20.5791C183.324 21.0283 183.178 21.4043 182.885 21.707C182.602 22.0098 182.182 22.1611 181.625 22.1611C181.068 22.1611 180.648 22.0098 180.365 21.707C180.092 21.4043 179.955 21.0283 179.955 20.5791ZM191.469 10.0176H193.505C194.784 9.99805 195.79 9.66113 196.522 9.00684C197.255 8.35254 197.621 7.46875 197.621 6.35547C197.621 3.85547 196.376 2.60547 193.886 2.60547C192.714 2.60547 191.776 2.94238 191.073 3.61621C190.38 4.28027 190.033 5.16406 190.033 6.26758H187.323C187.323 4.57813 187.938 3.17676 189.169 2.06348C190.409 0.94043 191.981 0.378906 193.886 0.378906C195.897 0.378906 197.475 0.911133 198.617 1.97559C199.76 3.04004 200.331 4.51953 200.331 6.41406C200.331 7.3418 200.028 8.24023 199.423 9.10938C198.827 9.97852 198.012 10.6279 196.977 11.0576C198.148 11.4287 199.052 12.0439 199.687 12.9033C200.331 13.7627 200.653 14.8125 200.653 16.0527C200.653 17.9668 200.028 19.4854 198.778 20.6084C197.528 21.7314 195.902 22.293 193.9 22.293C191.898 22.293 190.268 21.751 189.008 20.667C187.758 19.583 187.133 18.1523 187.133 16.375H189.857C189.857 17.498 190.224 18.3965 190.956 19.0703C191.688 19.7441 192.67 20.0811 193.9 20.0811C195.209 20.0811 196.21 19.7393 196.903 19.0557C197.597 18.3721 197.943 17.3906 197.943 16.1113C197.943 14.8711 197.562 13.9189 196.801 13.2549C196.039 12.5908 194.94 12.249 193.505 12.2295H191.469V10.0176ZM218.144 2.19531L209.311 22H206.469L215.272 2.89844H203.729V0.671875H218.144V2.19531ZM235.194 22H221.22V20.0518L228.603 11.8486C229.696 10.6084 230.448 9.60254 230.858 8.83105C231.278 8.0498 231.488 7.24414 231.488 6.41406C231.488 5.30078 231.151 4.3877 230.478 3.6748C229.804 2.96191 228.905 2.60547 227.782 2.60547C226.435 2.60547 225.385 2.99121 224.633 3.7627C223.891 4.52441 223.52 5.58887 223.52 6.95605H220.81C220.81 4.99316 221.439 3.40625 222.699 2.19531C223.969 0.984375 225.663 0.378906 227.782 0.378906C229.765 0.378906 231.332 0.901367 232.484 1.94629C233.637 2.98145 234.213 4.36328 234.213 6.0918C234.213 8.19141 232.875 10.6914 230.199 13.5918L224.486 19.7881H235.194V22Z" fill="#39352A"/>
<path d="M9.99609 32.4688V38.2695C9.99219 39.0742 9.73828 39.7324 9.23438 40.2441C8.73438 40.7559 8.05469 41.043 7.19531 41.1055L6.89648 41.1172C5.96289 41.1172 5.21875 40.8652 4.66406 40.3613C4.10938 39.8574 3.82812 39.1641 3.82031 38.2812V32.4688H4.93359V38.2461C4.93359 38.8633 5.10352 39.3438 5.44336 39.6875C5.7832 40.0273 6.26758 40.1973 6.89648 40.1973C7.5332 40.1973 8.01953 40.0273 8.35547 39.6875C8.69531 39.3477 8.86523 38.8691 8.86523 38.252V32.4688H9.99609ZM12.627 34.6602L12.6621 35.457C13.1465 34.8477 13.7793 34.543 14.5605 34.543C15.9004 34.543 16.5762 35.2988 16.5879 36.8105V41H15.5039V36.8047C15.5 36.3477 15.3945 36.0098 15.1875 35.791C14.9844 35.5723 14.666 35.4629 14.2324 35.4629C13.8809 35.4629 13.5723 35.5566 13.3066 35.7441C13.041 35.9316 12.834 36.1777 12.6855 36.4824V41H11.6016V34.6602H12.627ZM19.4004 41H18.3164V34.6602H19.4004V41ZM18.2285 32.9785C18.2285 32.8027 18.2812 32.6543 18.3867 32.5332C18.4961 32.4121 18.6562 32.3516 18.8672 32.3516C19.0781 32.3516 19.2383 32.4121 19.3477 32.5332C19.457 32.6543 19.5117 32.8027 19.5117 32.9785C19.5117 33.1543 19.457 33.3008 19.3477 33.418C19.2383 33.5352 19.0781 33.5938 18.8672 33.5938C18.6562 33.5938 18.4961 33.5352 18.3867 33.418C18.2812 33.3008 18.2285 33.1543 18.2285 32.9785ZM20.877 37.7773C20.877 36.7812 21.1055 35.9941 21.5625 35.416C22.0195 34.834 22.6328 34.543 23.4023 34.543C24.1523 34.543 24.7441 34.7949 25.1777 35.2988L25.2246 34.6602H26.2207V43.4375H25.1367V40.4141C24.6992 40.8828 24.1172 41.1172 23.3906 41.1172C22.625 41.1172 22.0137 40.8203 21.5566 40.2266C21.1035 39.6289 20.877 38.8379 20.877 37.8535V37.7773ZM21.9609 37.9004C21.9609 38.627 22.1133 39.1973 22.418 39.6113C22.7266 40.0254 23.1406 40.2324 23.6602 40.2324C24.3047 40.2324 24.7969 39.9473 25.1367 39.377V36.2715C24.793 35.7129 24.3047 35.4336 23.6719 35.4336C23.1484 35.4336 22.7324 35.6426 22.4238 36.0605C22.1152 36.4746 21.9609 37.0879 21.9609 37.9004ZM31.875 40.373C31.4531 40.8691 30.834 41.1172 30.0176 41.1172C29.3418 41.1172 28.8262 40.9219 28.4707 40.5312C28.1191 40.1367 27.9414 39.5547 27.9375 38.7852V34.6602H29.0215V38.7559C29.0215 39.7168 29.4121 40.1973 30.1934 40.1973C31.0215 40.1973 31.5723 39.8887 31.8457 39.2715V34.6602H32.9297V41H31.8984L31.875 40.373ZM37.2129 41.1172C36.3535 41.1172 35.6543 40.8359 35.1152 40.2734C34.5762 39.707 34.3066 38.9512 34.3066 38.0059V37.8066C34.3066 37.1777 34.4258 36.6172 34.6641 36.125C34.9062 35.6289 35.2422 35.2422 35.6719 34.9648C36.1055 34.6836 36.5742 34.543 37.0781 34.543C37.9023 34.543 38.543 34.8145 39 35.3574C39.457 35.9004 39.6855 36.6777 39.6855 37.6895V38.1406H35.3906C35.4062 38.7656 35.5879 39.2715 35.9355 39.6582C36.2871 40.041 36.7324 40.2324 37.2715 40.2324C37.6543 40.2324 37.9785 40.1543 38.2441 39.998C38.5098 39.8418 38.7422 39.6348 38.9414 39.377L39.6035 39.8926C39.0723 40.709 38.2754 41.1172 37.2129 41.1172ZM37.0781 35.4336C36.6406 35.4336 36.2734 35.5938 35.9766 35.9141C35.6797 36.2305 35.4961 36.6758 35.4258 37.25H38.6016V37.168C38.5703 36.6172 38.4219 36.1914 38.1562 35.8906C37.8906 35.5859 37.5312 35.4336 37.0781 35.4336ZM47.8359 40.373C47.4141 40.8691 46.7949 41.1172 45.9785 41.1172C45.3027 41.1172 44.7871 40.9219 44.4316 40.5312C44.0801 40.1367 43.9023 39.5547 43.8984 38.7852V34.6602H44.9824V38.7559C44.9824 39.7168 45.373 40.1973 46.1543 40.1973C46.9824 40.1973 47.5332 39.8887 47.8066 39.2715V34.6602H48.8906V41H47.8594L47.8359 40.373ZM54.2344 39.3184C54.2344 39.0254 54.123 38.7988 53.9004 38.6387C53.6816 38.4746 53.2969 38.334 52.7461 38.2168C52.1992 38.0996 51.7637 37.959 51.4395 37.7949C51.1191 37.6309 50.8809 37.4355 50.7246 37.209C50.5723 36.9824 50.4961 36.7129 50.4961 36.4004C50.4961 35.8809 50.7148 35.4414 51.1523 35.082C51.5938 34.7227 52.1562 34.543 52.8398 34.543C53.5586 34.543 54.1406 34.7285 54.5859 35.0996C55.0352 35.4707 55.2598 35.9453 55.2598 36.5234H54.1699C54.1699 36.2266 54.043 35.9707 53.7891 35.7559C53.5391 35.541 53.2227 35.4336 52.8398 35.4336C52.4453 35.4336 52.1367 35.5195 51.9141 35.6914C51.6914 35.8633 51.5801 36.0879 51.5801 36.3652C51.5801 36.627 51.6836 36.8242 51.8906 36.957C52.0977 37.0898 52.4707 37.2168 53.0098 37.3379C53.5527 37.459 53.9922 37.6035 54.3281 37.7715C54.6641 37.9395 54.9121 38.1426 55.0723 38.3809C55.2363 38.6152 55.3184 38.9023 55.3184 39.2422C55.3184 39.8086 55.0918 40.2637 54.6387 40.6074C54.1855 40.9473 53.5977 41.1172 52.875 41.1172C52.3672 41.1172 51.918 41.0273 51.5273 40.8477C51.1367 40.668 50.8301 40.418 50.6074 40.0977C50.3887 39.7734 50.2793 39.4238 50.2793 39.0488H51.3633C51.3828 39.4121 51.5273 39.7012 51.7969 39.916C52.0703 40.127 52.4297 40.2324 52.875 40.2324C53.2852 40.2324 53.6133 40.1504 53.8594 39.9863C54.1094 39.8184 54.2344 39.5957 54.2344 39.3184ZM59.3613 41.1172C58.502 41.1172 57.8027 40.8359 57.2637 40.2734C56.7246 39.707 56.4551 38.9512 56.4551 38.0059V37.8066C56.4551 37.1777 56.5742 36.6172 56.8125 36.125C57.0547 35.6289 57.3906 35.2422 57.8203 34.9648C58.2539 34.6836 58.7227 34.543 59.2266 34.543C60.0508 34.543 60.6914 34.8145 61.1484 35.3574C61.6055 35.9004 61.834 36.6777 61.834 37.6895V38.1406H57.5391C57.5547 38.7656 57.7363 39.2715 58.084 39.6582C58.4355 40.041 58.8809 40.2324 59.4199 40.2324C59.8027 40.2324 60.127 40.1543 60.3926 39.998C60.6582 39.8418 60.8906 39.6348 61.0898 39.377L61.752 39.8926C61.2207 40.709 60.4238 41.1172 59.3613 41.1172ZM59.2266 35.4336C58.7891 35.4336 58.4219 35.5938 58.125 35.9141C57.8281 36.2305 57.6445 36.6758 57.5742 37.25H60.75V37.168C60.7188 36.6172 60.5703 36.1914 60.3047 35.8906C60.0391 35.5859 59.6797 35.4336 59.2266 35.4336ZM66.1582 35.6328C65.9941 35.6055 65.8164 35.5918 65.625 35.5918C64.9141 35.5918 64.4316 35.8945 64.1777 36.5V41H63.0938V34.6602H64.1484L64.166 35.3926C64.5215 34.8262 65.0254 34.543 65.6777 34.543C65.8887 34.543 66.0488 34.5703 66.1582 34.625V35.6328ZM70.8516 39.3184C70.8516 39.0254 70.7402 38.7988 70.5176 38.6387C70.2988 38.4746 69.9141 38.334 69.3633 38.2168C68.8164 38.0996 68.3809 37.959 68.0566 37.7949C67.7363 37.6309 67.498 37.4355 67.3418 37.209C67.1895 36.9824 67.1133 36.7129 67.1133 36.4004C67.1133 35.8809 67.332 35.4414 67.7695 35.082C68.2109 34.7227 68.7734 34.543 69.457 34.543C70.1758 34.543 70.7578 34.7285 71.2031 35.0996C71.6523 35.4707 71.877 35.9453 71.877 36.5234H70.7871C70.7871 36.2266 70.6602 35.9707 70.4062 35.7559C70.1562 35.541 69.8398 35.4336 69.457 35.4336C69.0625 35.4336 68.7539 35.5195 68.5312 35.6914C68.3086 35.8633 68.1973 36.0879 68.1973 36.3652C68.1973 36.627 68.3008 36.8242 68.5078 36.957C68.7148 37.0898 69.0879 37.2168 69.627 37.3379C70.1699 37.459 70.6094 37.6035 70.9453 37.7715C71.2812 37.9395 71.5293 38.1426 71.6895 38.3809C71.8535 38.6152 71.9355 38.9023 71.9355 39.2422C71.9355 39.8086 71.709 40.2637 71.2559 40.6074C70.8027 40.9473 70.2148 41.1172 69.4922 41.1172C68.9844 41.1172 68.5352 41.0273 68.1445 40.8477C67.7539 40.668 67.4473 40.418 67.2246 40.0977C67.0059 39.7734 66.8965 39.4238 66.8965 39.0488H67.9805C68 39.4121 68.1445 39.7012 68.4141 39.916C68.6875 40.127 69.0469 40.2324 69.4922 40.2324C69.9023 40.2324 70.2305 40.1504 70.4766 39.9863C70.7266 39.8184 70.8516 39.5957 70.8516 39.3184Z" fill="#39352A"/>
<path d="M17.707 6.23828C17.707 7.30273 17.4238 8.25 16.8574 9.08008C16.3008 9.91016 15.5439 10.5596 14.5869 11.0283C15.7002 11.5068 16.5791 12.2051 17.2236 13.123C17.8779 14.041 18.2051 15.0811 18.2051 16.2432C18.2051 18.0889 17.5801 19.5586 16.3301 20.6523C15.0898 21.7461 13.4541 22.293 11.4229 22.293C9.37207 22.293 7.72656 21.7461 6.48633 20.6523C5.25586 19.5488 4.64062 18.0791 4.64062 16.2432C4.64062 15.0908 4.95312 14.0508 5.57812 13.123C6.21289 12.1953 7.08691 11.4922 8.2002 11.0137C7.25293 10.5449 6.50586 9.89551 5.95898 9.06543C5.41211 8.23535 5.13867 7.29297 5.13867 6.23828C5.13867 4.44141 5.71484 3.01562 6.86719 1.96094C8.01953 0.90625 9.53809 0.378906 11.4229 0.378906C13.2979 0.378906 14.8115 0.90625 15.9639 1.96094C17.126 3.01562 17.707 4.44141 17.707 6.23828ZM15.4951 16.1846C15.4951 14.9932 15.1143 14.0215 14.3525 13.2695C13.6006 12.5176 12.6143 12.1416 11.3936 12.1416C10.1729 12.1416 9.19141 12.5127 8.44922 13.2549C7.7168 13.9971 7.35059 14.9736 7.35059 16.1846C7.35059 17.3955 7.70703 18.3477 8.41992 19.041C9.14258 19.7344 10.1436 20.0811 11.4229 20.0811C12.6924 20.0811 13.6885 19.7344 14.4111 19.041C15.1338 18.3379 15.4951 17.3857 15.4951 16.1846ZM11.4229 2.60547C10.3584 2.60547 9.49414 2.9375 8.83008 3.60156C8.17578 4.25586 7.84863 5.14941 7.84863 6.28223C7.84863 7.36621 8.1709 8.24512 8.81543 8.91895C9.46973 9.58301 10.3389 9.91504 11.4229 9.91504C12.5068 9.91504 13.3711 9.58301 14.0156 8.91895C14.6699 8.24512 14.9971 7.36621 14.9971 6.28223C14.9971 5.19824 14.6602 4.31445 13.9863 3.63086C13.3125 2.94727 12.458 2.60547 11.4229 2.60547ZM22.8633 11.3066L23.9473 0.671875H34.875V3.17676H26.2471L25.6025 8.99219C26.6475 8.37695 27.834 8.06934 29.1621 8.06934C31.1055 8.06934 32.6484 8.71387 33.791 10.0029C34.9336 11.2822 35.5049 13.0156 35.5049 15.2031C35.5049 17.4004 34.9092 19.1338 33.7178 20.4033C32.5361 21.6631 30.8809 22.293 28.752 22.293C26.8672 22.293 25.3291 21.7705 24.1377 20.7256C22.9463 19.6807 22.2676 18.2354 22.1016 16.3896H24.665C24.8311 17.6104 25.2656 18.5332 25.9688 19.1582C26.6719 19.7734 27.5996 20.0811 28.752 20.0811C30.0117 20.0811 30.998 19.6514 31.7109 18.792C32.4336 17.9326 32.7949 16.7461 32.7949 15.2324C32.7949 13.8066 32.4043 12.6641 31.623 11.8047C30.8516 10.9355 29.8213 10.501 28.5322 10.501C27.3506 10.501 26.4229 10.7598 25.749 11.2773L25.0312 11.8633L22.8633 11.3066ZM48.8496 12.625C48.2832 13.2988 47.6045 13.8408 46.8135 14.251C46.0322 14.6611 45.1729 14.8662 44.2354 14.8662C43.0049 14.8662 41.9307 14.5635 41.0127 13.958C40.1045 13.3525 39.4014 12.5029 38.9033 11.4092C38.4053 10.3057 38.1562 9.08984 38.1562 7.76172C38.1562 6.33594 38.4248 5.05176 38.9619 3.90918C39.5088 2.7666 40.2803 1.89258 41.2764 1.28711C42.2725 0.681641 43.4346 0.378906 44.7627 0.378906C46.8721 0.378906 48.5322 1.16992 49.7432 2.75195C50.9639 4.32422 51.5742 6.47266 51.5742 9.19727V9.98828C51.5742 14.1387 50.7539 17.1709 49.1133 19.085C47.4727 20.9893 44.9971 21.9658 41.6865 22.0146H41.1592V19.7295H41.7305C43.9668 19.6904 45.6855 19.1094 46.8867 17.9863C48.0879 16.8535 48.7422 15.0664 48.8496 12.625ZM44.6748 12.625C45.583 12.625 46.418 12.3467 47.1797 11.79C47.9512 11.2334 48.5127 10.5449 48.8643 9.72461V8.64062C48.8643 6.86328 48.4785 5.41797 47.707 4.30469C46.9355 3.19141 45.959 2.63477 44.7773 2.63477C43.5859 2.63477 42.6289 3.09375 41.9062 4.01172C41.1836 4.91992 40.8223 6.12109 40.8223 7.61523C40.8223 9.07031 41.1689 10.2715 41.8623 11.2188C42.5654 12.1562 43.5029 12.625 44.6748 12.625Z" fill="#39352A"/>
</svg>
