<svg width="320" height="302" viewBox="0 0 320 302" fill="none" xmlns="http://www.w3.org/2000/svg">
<rect x="55" y="238" width="64" height="64" fill="#137752"/>
<rect x="55" y="238" width="45" height="23" fill="white" fill-opacity="0.7"/>
<path d="M64.2715 254H63.1816V246.775L60.9961 247.578V246.594L64.1016 245.428H64.2715V254ZM72.7969 250.361C72.7969 251.631 72.5801 252.574 72.1465 253.191C71.7129 253.809 71.0352 254.117 70.1133 254.117C69.2031 254.117 68.5293 253.816 68.0918 253.215C67.6543 252.609 67.4277 251.707 67.4121 250.508V249.061C67.4121 247.807 67.6289 246.875 68.0625 246.266C68.4961 245.656 69.1758 245.352 70.1016 245.352C71.0195 245.352 71.6953 245.646 72.1289 246.236C72.5625 246.822 72.7852 247.729 72.7969 248.955V250.361ZM71.7129 248.879C71.7129 247.961 71.584 247.293 71.3262 246.875C71.0684 246.453 70.6602 246.242 70.1016 246.242C69.5469 246.242 69.1426 246.451 68.8887 246.869C68.6348 247.287 68.5039 247.93 68.4961 248.797V250.531C68.4961 251.453 68.6289 252.135 68.8945 252.576C69.1641 253.014 69.5703 253.232 70.1133 253.232C70.6484 253.232 71.0449 253.025 71.3027 252.611C71.5645 252.197 71.7012 251.545 71.7129 250.654V248.879ZM79.5352 250.361C79.5352 251.631 79.3184 252.574 78.8848 253.191C78.4512 253.809 77.7734 254.117 76.8516 254.117C75.9414 254.117 75.2676 253.816 74.8301 253.215C74.3926 252.609 74.166 251.707 74.1504 250.508V249.061C74.1504 247.807 74.3672 246.875 74.8008 246.266C75.2344 245.656 75.9141 245.352 76.8398 245.352C77.7578 245.352 78.4336 245.646 78.8672 246.236C79.3008 246.822 79.5234 247.729 79.5352 248.955V250.361ZM78.4512 248.879C78.4512 247.961 78.3223 247.293 78.0645 246.875C77.8066 246.453 77.3984 246.242 76.8398 246.242C76.2852 246.242 75.8809 246.451 75.627 246.869C75.373 247.287 75.2422 247.93 75.2344 248.797V250.531C75.2344 251.453 75.3672 252.135 75.6328 252.576C75.9023 253.014 76.3086 253.232 76.8516 253.232C77.3867 253.232 77.7832 253.025 78.041 252.611C78.3027 252.197 78.4395 251.545 78.4512 250.654V248.879ZM83.8066 247.109C83.8066 246.598 83.9688 246.176 84.293 245.844C84.6211 245.512 85.041 245.346 85.5527 245.346C86.0723 245.346 86.4922 245.514 86.8125 245.85C87.1367 246.182 87.2988 246.613 87.2988 247.145V247.561C87.2988 248.076 87.1348 248.498 86.8066 248.826C86.4824 249.15 86.0684 249.312 85.5645 249.312C85.0566 249.312 84.6367 249.15 84.3047 248.826C83.9727 248.498 83.8066 248.062 83.8066 247.52V247.109ZM84.6152 247.561C84.6152 247.865 84.7012 248.117 84.873 248.316C85.0449 248.512 85.2754 248.609 85.5645 248.609C85.8418 248.609 86.0645 248.514 86.2324 248.322C86.4043 248.131 86.4902 247.869 86.4902 247.537V247.109C86.4902 246.805 86.4062 246.553 86.2383 246.354C86.0703 246.154 85.8418 246.055 85.5527 246.055C85.2637 246.055 85.0352 246.154 84.8672 246.354C84.6992 246.553 84.6152 246.812 84.6152 247.133V247.561ZM87.9609 251.908C87.9609 251.396 88.123 250.977 88.4473 250.648C88.7754 250.316 89.1953 250.15 89.707 250.15C90.2188 250.15 90.6387 250.314 90.9668 250.643C91.2949 250.971 91.459 251.406 91.459 251.949V252.365C91.459 252.877 91.2949 253.299 90.9668 253.631C90.6426 253.959 90.2266 254.123 89.7188 254.123C89.2109 254.123 88.791 253.961 88.459 253.637C88.127 253.309 87.9609 252.873 87.9609 252.33V251.908ZM88.7695 252.365C88.7695 252.674 88.8555 252.928 89.0273 253.127C89.1992 253.322 89.4297 253.42 89.7188 253.42C90 253.42 90.2246 253.324 90.3926 253.133C90.5605 252.938 90.6445 252.674 90.6445 252.342V251.908C90.6445 251.6 90.5586 251.348 90.3867 251.152C90.2188 250.957 89.9922 250.859 89.707 250.859C89.4297 250.859 89.2031 250.957 89.0273 251.152C88.8555 251.344 88.7695 251.604 88.7695 251.932V252.365ZM85.8105 253.355L85.1953 252.969L89.3613 246.301L89.9766 246.688L85.8105 253.355Z" fill="#39352A"/>
<rect x="122" y="172" width="64" height="64" fill="#137752" fill-opacity="0.65"/>
<rect x="122" y="172" width="45" height="23" fill="white" fill-opacity="0.7"/>
<path d="M132.285 185.135H133.469V186.02H132.285V188H131.195V186.02H127.311V185.381L131.131 179.469H132.285V185.135ZM128.541 185.135H131.195V180.951L131.066 181.186L128.541 185.135ZM140.037 188H134.447V187.221L137.4 183.939C137.838 183.443 138.139 183.041 138.303 182.732C138.471 182.42 138.555 182.098 138.555 181.766C138.555 181.32 138.42 180.955 138.15 180.67C137.881 180.385 137.521 180.242 137.072 180.242C136.533 180.242 136.113 180.396 135.812 180.705C135.516 181.01 135.367 181.436 135.367 181.982H134.283C134.283 181.197 134.535 180.562 135.039 180.078C135.547 179.594 136.225 179.352 137.072 179.352C137.865 179.352 138.492 179.561 138.953 179.979C139.414 180.393 139.645 180.945 139.645 181.637C139.645 182.477 139.109 183.477 138.039 184.637L135.754 187.115H140.037V188ZM144.068 181.109C144.068 180.598 144.23 180.176 144.555 179.844C144.883 179.512 145.303 179.346 145.814 179.346C146.334 179.346 146.754 179.514 147.074 179.85C147.398 180.182 147.561 180.613 147.561 181.145V181.561C147.561 182.076 147.396 182.498 147.068 182.826C146.744 183.15 146.33 183.312 145.826 183.312C145.318 183.312 144.898 183.15 144.566 182.826C144.234 182.498 144.068 182.062 144.068 181.52V181.109ZM144.877 181.561C144.877 181.865 144.963 182.117 145.135 182.316C145.307 182.512 145.537 182.609 145.826 182.609C146.104 182.609 146.326 182.514 146.494 182.322C146.666 182.131 146.752 181.869 146.752 181.537V181.109C146.752 180.805 146.668 180.553 146.5 180.354C146.332 180.154 146.104 180.055 145.814 180.055C145.525 180.055 145.297 180.154 145.129 180.354C144.961 180.553 144.877 180.812 144.877 181.133V181.561ZM148.223 185.908C148.223 185.396 148.385 184.977 148.709 184.648C149.037 184.316 149.457 184.15 149.969 184.15C150.48 184.15 150.9 184.314 151.229 184.643C151.557 184.971 151.721 185.406 151.721 185.949V186.365C151.721 186.877 151.557 187.299 151.229 187.631C150.904 187.959 150.488 188.123 149.98 188.123C149.473 188.123 149.053 187.961 148.721 187.637C148.389 187.309 148.223 186.873 148.223 186.33V185.908ZM149.031 186.365C149.031 186.674 149.117 186.928 149.289 187.127C149.461 187.322 149.691 187.42 149.98 187.42C150.262 187.42 150.486 187.324 150.654 187.133C150.822 186.938 150.906 186.674 150.906 186.342V185.908C150.906 185.6 150.82 185.348 150.648 185.152C150.48 184.957 150.254 184.859 149.969 184.859C149.691 184.859 149.465 184.957 149.289 185.152C149.117 185.344 149.031 185.604 149.031 185.932V186.365ZM146.072 187.355L145.457 186.969L149.623 180.301L150.238 180.688L146.072 187.355Z" fill="#39352A"/>
<rect x="55" y="172" width="64" height="64" fill="#137752"/>
<rect x="55" y="172" width="45" height="23" fill="white" fill-opacity="0.7"/>
<path d="M64.2715 188H63.1816V180.775L60.9961 181.578V180.594L64.1016 179.428H64.2715V188ZM72.7969 184.361C72.7969 185.631 72.5801 186.574 72.1465 187.191C71.7129 187.809 71.0352 188.117 70.1133 188.117C69.2031 188.117 68.5293 187.816 68.0918 187.215C67.6543 186.609 67.4277 185.707 67.4121 184.508V183.061C67.4121 181.807 67.6289 180.875 68.0625 180.266C68.4961 179.656 69.1758 179.352 70.1016 179.352C71.0195 179.352 71.6953 179.646 72.1289 180.236C72.5625 180.822 72.7852 181.729 72.7969 182.955V184.361ZM71.7129 182.879C71.7129 181.961 71.584 181.293 71.3262 180.875C71.0684 180.453 70.6602 180.242 70.1016 180.242C69.5469 180.242 69.1426 180.451 68.8887 180.869C68.6348 181.287 68.5039 181.93 68.4961 182.797V184.531C68.4961 185.453 68.6289 186.135 68.8945 186.576C69.1641 187.014 69.5703 187.232 70.1133 187.232C70.6484 187.232 71.0449 187.025 71.3027 186.611C71.5645 186.197 71.7012 185.545 71.7129 184.654V182.879ZM79.5352 184.361C79.5352 185.631 79.3184 186.574 78.8848 187.191C78.4512 187.809 77.7734 188.117 76.8516 188.117C75.9414 188.117 75.2676 187.816 74.8301 187.215C74.3926 186.609 74.166 185.707 74.1504 184.508V183.061C74.1504 181.807 74.3672 180.875 74.8008 180.266C75.2344 179.656 75.9141 179.352 76.8398 179.352C77.7578 179.352 78.4336 179.646 78.8672 180.236C79.3008 180.822 79.5234 181.729 79.5352 182.955V184.361ZM78.4512 182.879C78.4512 181.961 78.3223 181.293 78.0645 180.875C77.8066 180.453 77.3984 180.242 76.8398 180.242C76.2852 180.242 75.8809 180.451 75.627 180.869C75.373 181.287 75.2422 181.93 75.2344 182.797V184.531C75.2344 185.453 75.3672 186.135 75.6328 186.576C75.9023 187.014 76.3086 187.232 76.8516 187.232C77.3867 187.232 77.7832 187.025 78.041 186.611C78.3027 186.197 78.4395 185.545 78.4512 184.654V182.879ZM83.8066 181.109C83.8066 180.598 83.9688 180.176 84.293 179.844C84.6211 179.512 85.041 179.346 85.5527 179.346C86.0723 179.346 86.4922 179.514 86.8125 179.85C87.1367 180.182 87.2988 180.613 87.2988 181.145V181.561C87.2988 182.076 87.1348 182.498 86.8066 182.826C86.4824 183.15 86.0684 183.312 85.5645 183.312C85.0566 183.312 84.6367 183.15 84.3047 182.826C83.9727 182.498 83.8066 182.062 83.8066 181.52V181.109ZM84.6152 181.561C84.6152 181.865 84.7012 182.117 84.873 182.316C85.0449 182.512 85.2754 182.609 85.5645 182.609C85.8418 182.609 86.0645 182.514 86.2324 182.322C86.4043 182.131 86.4902 181.869 86.4902 181.537V181.109C86.4902 180.805 86.4062 180.553 86.2383 180.354C86.0703 180.154 85.8418 180.055 85.5527 180.055C85.2637 180.055 85.0352 180.154 84.8672 180.354C84.6992 180.553 84.6152 180.812 84.6152 181.133V181.561ZM87.9609 185.908C87.9609 185.396 88.123 184.977 88.4473 184.648C88.7754 184.316 89.1953 184.15 89.707 184.15C90.2188 184.15 90.6387 184.314 90.9668 184.643C91.2949 184.971 91.459 185.406 91.459 185.949V186.365C91.459 186.877 91.2949 187.299 90.9668 187.631C90.6426 187.959 90.2266 188.123 89.7188 188.123C89.2109 188.123 88.791 187.961 88.459 187.637C88.127 187.309 87.9609 186.873 87.9609 186.33V185.908ZM88.7695 186.365C88.7695 186.674 88.8555 186.928 89.0273 187.127C89.1992 187.322 89.4297 187.42 89.7188 187.42C90 187.42 90.2246 187.324 90.3926 187.133C90.5605 186.938 90.6445 186.674 90.6445 186.342V185.908C90.6445 185.6 90.5586 185.348 90.3867 185.152C90.2188 184.957 89.9922 184.859 89.707 184.859C89.4297 184.859 89.2031 184.957 89.0273 185.152C88.8555 185.344 88.7695 185.604 88.7695 185.932V186.365ZM85.8105 187.355L85.1953 186.969L89.3613 180.301L89.9766 180.688L85.8105 187.355Z" fill="#39352A"/>
<rect x="189" y="106" width="64" height="64" fill="#137752" fill-opacity="0.31"/>
<rect x="189" y="106" width="45" height="23" fill="white" fill-opacity="0.7"/>
<path d="M198.271 122H197.182V114.775L194.996 115.578V114.594L198.102 113.428H198.271V122ZM206.621 115.695C206.621 116.121 206.508 116.5 206.281 116.832C206.059 117.164 205.756 117.424 205.373 117.611C205.818 117.803 206.17 118.082 206.428 118.449C206.689 118.816 206.82 119.232 206.82 119.697C206.82 120.436 206.57 121.023 206.07 121.461C205.574 121.898 204.92 122.117 204.107 122.117C203.287 122.117 202.629 121.898 202.133 121.461C201.641 121.02 201.395 120.432 201.395 119.697C201.395 119.236 201.52 118.82 201.77 118.449C202.023 118.078 202.373 117.797 202.818 117.605C202.439 117.418 202.141 117.158 201.922 116.826C201.703 116.494 201.594 116.117 201.594 115.695C201.594 114.977 201.824 114.406 202.285 113.984C202.746 113.562 203.354 113.352 204.107 113.352C204.857 113.352 205.463 113.562 205.924 113.984C206.389 114.406 206.621 114.977 206.621 115.695ZM205.736 119.674C205.736 119.197 205.584 118.809 205.279 118.508C204.979 118.207 204.584 118.057 204.096 118.057C203.607 118.057 203.215 118.205 202.918 118.502C202.625 118.799 202.479 119.189 202.479 119.674C202.479 120.158 202.621 120.539 202.906 120.816C203.195 121.094 203.596 121.232 204.107 121.232C204.615 121.232 205.014 121.094 205.303 120.816C205.592 120.535 205.736 120.154 205.736 119.674ZM204.107 114.242C203.682 114.242 203.336 114.375 203.07 114.641C202.809 114.902 202.678 115.26 202.678 115.713C202.678 116.146 202.807 116.498 203.064 116.768C203.326 117.033 203.674 117.166 204.107 117.166C204.541 117.166 204.887 117.033 205.145 116.768C205.406 116.498 205.537 116.146 205.537 115.713C205.537 115.279 205.402 114.926 205.133 114.652C204.863 114.379 204.521 114.242 204.107 114.242ZM211.068 115.109C211.068 114.598 211.23 114.176 211.555 113.844C211.883 113.512 212.303 113.346 212.814 113.346C213.334 113.346 213.754 113.514 214.074 113.85C214.398 114.182 214.561 114.613 214.561 115.145V115.561C214.561 116.076 214.396 116.498 214.068 116.826C213.744 117.15 213.33 117.312 212.826 117.312C212.318 117.312 211.898 117.15 211.566 116.826C211.234 116.498 211.068 116.062 211.068 115.52V115.109ZM211.877 115.561C211.877 115.865 211.963 116.117 212.135 116.316C212.307 116.512 212.537 116.609 212.826 116.609C213.104 116.609 213.326 116.514 213.494 116.322C213.666 116.131 213.752 115.869 213.752 115.537V115.109C213.752 114.805 213.668 114.553 213.5 114.354C213.332 114.154 213.104 114.055 212.814 114.055C212.525 114.055 212.297 114.154 212.129 114.354C211.961 114.553 211.877 114.812 211.877 115.133V115.561ZM215.223 119.908C215.223 119.396 215.385 118.977 215.709 118.648C216.037 118.316 216.457 118.15 216.969 118.15C217.48 118.15 217.9 118.314 218.229 118.643C218.557 118.971 218.721 119.406 218.721 119.949V120.365C218.721 120.877 218.557 121.299 218.229 121.631C217.904 121.959 217.488 122.123 216.98 122.123C216.473 122.123 216.053 121.961 215.721 121.637C215.389 121.309 215.223 120.873 215.223 120.33V119.908ZM216.031 120.365C216.031 120.674 216.117 120.928 216.289 121.127C216.461 121.322 216.691 121.42 216.98 121.42C217.262 121.42 217.486 121.324 217.654 121.133C217.822 120.938 217.906 120.674 217.906 120.342V119.908C217.906 119.6 217.82 119.348 217.648 119.152C217.48 118.957 217.254 118.859 216.969 118.859C216.691 118.859 216.465 118.957 216.289 119.152C216.117 119.344 216.031 119.604 216.031 119.932V120.365ZM213.072 121.355L212.457 120.969L216.623 114.301L217.238 114.688L213.072 121.355Z" fill="#39352A"/>
<rect x="122" y="106" width="64" height="64" fill="#137752" fill-opacity="0.53"/>
<rect x="122" y="106" width="45" height="23" fill="white" fill-opacity="0.7"/>
<path d="M129.285 117.207H130.1C130.611 117.199 131.014 117.064 131.307 116.803C131.6 116.541 131.746 116.188 131.746 115.742C131.746 114.742 131.248 114.242 130.252 114.242C129.783 114.242 129.408 114.377 129.127 114.646C128.85 114.912 128.711 115.266 128.711 115.707H127.627C127.627 115.031 127.873 114.471 128.365 114.025C128.861 113.576 129.49 113.352 130.252 113.352C131.057 113.352 131.688 113.564 132.145 113.99C132.602 114.416 132.83 115.008 132.83 115.766C132.83 116.137 132.709 116.496 132.467 116.844C132.229 117.191 131.902 117.451 131.488 117.623C131.957 117.771 132.318 118.018 132.572 118.361C132.83 118.705 132.959 119.125 132.959 119.621C132.959 120.387 132.709 120.994 132.209 121.443C131.709 121.893 131.059 122.117 130.258 122.117C129.457 122.117 128.805 121.9 128.301 121.467C127.801 121.033 127.551 120.461 127.551 119.75H128.641C128.641 120.199 128.787 120.559 129.08 120.828C129.373 121.098 129.766 121.232 130.258 121.232C130.781 121.232 131.182 121.096 131.459 120.822C131.736 120.549 131.875 120.156 131.875 119.645C131.875 119.148 131.723 118.768 131.418 118.502C131.113 118.236 130.674 118.1 130.1 118.092H129.285V117.207ZM136.023 117.207H136.838C137.35 117.199 137.752 117.064 138.045 116.803C138.338 116.541 138.484 116.188 138.484 115.742C138.484 114.742 137.986 114.242 136.99 114.242C136.521 114.242 136.146 114.377 135.865 114.646C135.588 114.912 135.449 115.266 135.449 115.707H134.365C134.365 115.031 134.611 114.471 135.104 114.025C135.6 113.576 136.229 113.352 136.99 113.352C137.795 113.352 138.426 113.564 138.883 113.99C139.34 114.416 139.568 115.008 139.568 115.766C139.568 116.137 139.447 116.496 139.205 116.844C138.967 117.191 138.641 117.451 138.227 117.623C138.695 117.771 139.057 118.018 139.311 118.361C139.568 118.705 139.697 119.125 139.697 119.621C139.697 120.387 139.447 120.994 138.947 121.443C138.447 121.893 137.797 122.117 136.996 122.117C136.195 122.117 135.543 121.9 135.039 121.467C134.539 121.033 134.289 120.461 134.289 119.75H135.379C135.379 120.199 135.525 120.559 135.818 120.828C136.111 121.098 136.504 121.232 136.996 121.232C137.52 121.232 137.92 121.096 138.197 120.822C138.475 120.549 138.613 120.156 138.613 119.645C138.613 119.148 138.461 118.768 138.156 118.502C137.852 118.236 137.412 118.1 136.838 118.092H136.023V117.207ZM144.068 115.109C144.068 114.598 144.23 114.176 144.555 113.844C144.883 113.512 145.303 113.346 145.814 113.346C146.334 113.346 146.754 113.514 147.074 113.85C147.398 114.182 147.561 114.613 147.561 115.145V115.561C147.561 116.076 147.396 116.498 147.068 116.826C146.744 117.15 146.33 117.312 145.826 117.312C145.318 117.312 144.898 117.15 144.566 116.826C144.234 116.498 144.068 116.062 144.068 115.52V115.109ZM144.877 115.561C144.877 115.865 144.963 116.117 145.135 116.316C145.307 116.512 145.537 116.609 145.826 116.609C146.104 116.609 146.326 116.514 146.494 116.322C146.666 116.131 146.752 115.869 146.752 115.537V115.109C146.752 114.805 146.668 114.553 146.5 114.354C146.332 114.154 146.104 114.055 145.814 114.055C145.525 114.055 145.297 114.154 145.129 114.354C144.961 114.553 144.877 114.812 144.877 115.133V115.561ZM148.223 119.908C148.223 119.396 148.385 118.977 148.709 118.648C149.037 118.316 149.457 118.15 149.969 118.15C150.48 118.15 150.9 118.314 151.229 118.643C151.557 118.971 151.721 119.406 151.721 119.949V120.365C151.721 120.877 151.557 121.299 151.229 121.631C150.904 121.959 150.488 122.123 149.98 122.123C149.473 122.123 149.053 121.961 148.721 121.637C148.389 121.309 148.223 120.873 148.223 120.33V119.908ZM149.031 120.365C149.031 120.674 149.117 120.928 149.289 121.127C149.461 121.322 149.691 121.42 149.98 121.42C150.262 121.42 150.486 121.324 150.654 121.133C150.822 120.938 150.906 120.674 150.906 120.342V119.908C150.906 119.6 150.82 119.348 150.648 119.152C150.48 118.957 150.254 118.859 149.969 118.859C149.691 118.859 149.465 118.957 149.289 119.152C149.117 119.344 149.031 119.604 149.031 119.932V120.365ZM146.072 121.355L145.457 120.969L149.623 114.301L150.238 114.688L146.072 121.355Z" fill="#39352A"/>
<rect x="55" y="106" width="64" height="64" fill="#137752"/>
<rect x="55" y="106" width="45" height="23" fill="white" fill-opacity="0.7"/>
<path d="M64.2715 122H63.1816V114.775L60.9961 115.578V114.594L64.1016 113.428H64.2715V122ZM72.7969 118.361C72.7969 119.631 72.5801 120.574 72.1465 121.191C71.7129 121.809 71.0352 122.117 70.1133 122.117C69.2031 122.117 68.5293 121.816 68.0918 121.215C67.6543 120.609 67.4277 119.707 67.4121 118.508V117.061C67.4121 115.807 67.6289 114.875 68.0625 114.266C68.4961 113.656 69.1758 113.352 70.1016 113.352C71.0195 113.352 71.6953 113.646 72.1289 114.236C72.5625 114.822 72.7852 115.729 72.7969 116.955V118.361ZM71.7129 116.879C71.7129 115.961 71.584 115.293 71.3262 114.875C71.0684 114.453 70.6602 114.242 70.1016 114.242C69.5469 114.242 69.1426 114.451 68.8887 114.869C68.6348 115.287 68.5039 115.93 68.4961 116.797V118.531C68.4961 119.453 68.6289 120.135 68.8945 120.576C69.1641 121.014 69.5703 121.232 70.1133 121.232C70.6484 121.232 71.0449 121.025 71.3027 120.611C71.5645 120.197 71.7012 119.545 71.7129 118.654V116.879ZM79.5352 118.361C79.5352 119.631 79.3184 120.574 78.8848 121.191C78.4512 121.809 77.7734 122.117 76.8516 122.117C75.9414 122.117 75.2676 121.816 74.8301 121.215C74.3926 120.609 74.166 119.707 74.1504 118.508V117.061C74.1504 115.807 74.3672 114.875 74.8008 114.266C75.2344 113.656 75.9141 113.352 76.8398 113.352C77.7578 113.352 78.4336 113.646 78.8672 114.236C79.3008 114.822 79.5234 115.729 79.5352 116.955V118.361ZM78.4512 116.879C78.4512 115.961 78.3223 115.293 78.0645 114.875C77.8066 114.453 77.3984 114.242 76.8398 114.242C76.2852 114.242 75.8809 114.451 75.627 114.869C75.373 115.287 75.2422 115.93 75.2344 116.797V118.531C75.2344 119.453 75.3672 120.135 75.6328 120.576C75.9023 121.014 76.3086 121.232 76.8516 121.232C77.3867 121.232 77.7832 121.025 78.041 120.611C78.3027 120.197 78.4395 119.545 78.4512 118.654V116.879ZM83.8066 115.109C83.8066 114.598 83.9688 114.176 84.293 113.844C84.6211 113.512 85.041 113.346 85.5527 113.346C86.0723 113.346 86.4922 113.514 86.8125 113.85C87.1367 114.182 87.2988 114.613 87.2988 115.145V115.561C87.2988 116.076 87.1348 116.498 86.8066 116.826C86.4824 117.15 86.0684 117.312 85.5645 117.312C85.0566 117.312 84.6367 117.15 84.3047 116.826C83.9727 116.498 83.8066 116.062 83.8066 115.52V115.109ZM84.6152 115.561C84.6152 115.865 84.7012 116.117 84.873 116.316C85.0449 116.512 85.2754 116.609 85.5645 116.609C85.8418 116.609 86.0645 116.514 86.2324 116.322C86.4043 116.131 86.4902 115.869 86.4902 115.537V115.109C86.4902 114.805 86.4062 114.553 86.2383 114.354C86.0703 114.154 85.8418 114.055 85.5527 114.055C85.2637 114.055 85.0352 114.154 84.8672 114.354C84.6992 114.553 84.6152 114.812 84.6152 115.133V115.561ZM87.9609 119.908C87.9609 119.396 88.123 118.977 88.4473 118.648C88.7754 118.316 89.1953 118.15 89.707 118.15C90.2188 118.15 90.6387 118.314 90.9668 118.643C91.2949 118.971 91.459 119.406 91.459 119.949V120.365C91.459 120.877 91.2949 121.299 90.9668 121.631C90.6426 121.959 90.2266 122.123 89.7188 122.123C89.2109 122.123 88.791 121.961 88.459 121.637C88.127 121.309 87.9609 120.873 87.9609 120.33V119.908ZM88.7695 120.365C88.7695 120.674 88.8555 120.928 89.0273 121.127C89.1992 121.322 89.4297 121.42 89.7188 121.42C90 121.42 90.2246 121.324 90.3926 121.133C90.5605 120.938 90.6445 120.674 90.6445 120.342V119.908C90.6445 119.6 90.5586 119.348 90.3867 119.152C90.2188 118.957 89.9922 118.859 89.707 118.859C89.4297 118.859 89.2031 118.957 89.0273 119.152C88.8555 119.344 88.7695 119.604 88.7695 119.932V120.365ZM85.8105 121.355L85.1953 120.969L89.3613 114.301L89.9766 114.688L85.8105 121.355Z" fill="#39352A"/>
<rect x="256" y="40" width="64" height="64" fill="#137752" fill-opacity="0.15"/>
<rect x="256" y="40" width="45" height="23" fill="white" fill-opacity="0.7"/>
<path d="M262.207 51.7227L262.641 47.4688H267.012V48.4707H263.561L263.303 50.7969C263.721 50.5508 264.195 50.4277 264.727 50.4277C265.504 50.4277 266.121 50.6855 266.578 51.2012C267.035 51.7129 267.264 52.4062 267.264 53.2812C267.264 54.1602 267.025 54.8535 266.549 55.3613C266.076 55.8652 265.414 56.1172 264.562 56.1172C263.809 56.1172 263.193 55.9082 262.717 55.4902C262.24 55.0723 261.969 54.4941 261.902 53.7559H262.928C262.994 54.2441 263.168 54.6133 263.449 54.8633C263.73 55.1094 264.102 55.2324 264.562 55.2324C265.066 55.2324 265.461 55.0605 265.746 54.7168C266.035 54.373 266.18 53.8984 266.18 53.293C266.18 52.7227 266.023 52.2656 265.711 51.9219C265.402 51.5742 264.99 51.4004 264.475 51.4004C264.002 51.4004 263.631 51.5039 263.361 51.7109L263.074 51.9453L262.207 51.7227ZM271.33 49.1094C271.33 48.5977 271.492 48.1758 271.816 47.8438C272.145 47.5117 272.564 47.3457 273.076 47.3457C273.596 47.3457 274.016 47.5137 274.336 47.8496C274.66 48.1816 274.822 48.6133 274.822 49.1445V49.5605C274.822 50.0762 274.658 50.498 274.33 50.8262C274.006 51.1504 273.592 51.3125 273.088 51.3125C272.58 51.3125 272.16 51.1504 271.828 50.8262C271.496 50.498 271.33 50.0625 271.33 49.5195V49.1094ZM272.139 49.5605C272.139 49.8652 272.225 50.1172 272.396 50.3164C272.568 50.5117 272.799 50.6094 273.088 50.6094C273.365 50.6094 273.588 50.5137 273.756 50.3223C273.928 50.1309 274.014 49.8691 274.014 49.5371V49.1094C274.014 48.8047 273.93 48.5527 273.762 48.3535C273.594 48.1543 273.365 48.0547 273.076 48.0547C272.787 48.0547 272.559 48.1543 272.391 48.3535C272.223 48.5527 272.139 48.8125 272.139 49.1328V49.5605ZM275.484 53.9082C275.484 53.3965 275.646 52.9766 275.971 52.6484C276.299 52.3164 276.719 52.1504 277.23 52.1504C277.742 52.1504 278.162 52.3145 278.49 52.6426C278.818 52.9707 278.982 53.4062 278.982 53.9492V54.3652C278.982 54.877 278.818 55.2988 278.49 55.6309C278.166 55.959 277.75 56.123 277.242 56.123C276.734 56.123 276.314 55.9609 275.982 55.6367C275.65 55.3086 275.484 54.873 275.484 54.3301V53.9082ZM276.293 54.3652C276.293 54.6738 276.379 54.9277 276.551 55.127C276.723 55.3223 276.953 55.4199 277.242 55.4199C277.523 55.4199 277.748 55.3242 277.916 55.1328C278.084 54.9375 278.168 54.6738 278.168 54.3418V53.9082C278.168 53.5996 278.082 53.3477 277.91 53.1523C277.742 52.957 277.516 52.8594 277.23 52.8594C276.953 52.8594 276.727 52.957 276.551 53.1523C276.379 53.3438 276.293 53.6035 276.293 53.9316V54.3652ZM273.334 55.3555L272.719 54.9688L276.885 48.3008L277.5 48.6875L273.334 55.3555Z" fill="#39352A"/>
<rect x="189" y="40" width="64" height="64" fill="#137752" fill-opacity="0.32"/>
<rect x="189" y="40" width="45" height="23" fill="white" fill-opacity="0.7"/>
<path d="M198.271 56H197.182V48.7754L194.996 49.5781V48.5938L198.102 47.4277H198.271V56ZM205.602 52.25C205.375 52.5195 205.104 52.7363 204.787 52.9004C204.475 53.0645 204.131 53.1465 203.756 53.1465C203.264 53.1465 202.834 53.0254 202.467 52.7832C202.104 52.541 201.822 52.2012 201.623 51.7637C201.424 51.3223 201.324 50.8359 201.324 50.3047C201.324 49.7344 201.432 49.2207 201.646 48.7637C201.865 48.3066 202.174 47.957 202.572 47.7148C202.971 47.4727 203.436 47.3516 203.967 47.3516C204.811 47.3516 205.475 47.668 205.959 48.3008C206.447 48.9297 206.691 49.7891 206.691 50.8789V51.1953C206.691 52.8555 206.363 54.0684 205.707 54.834C205.051 55.5957 204.061 55.9863 202.736 56.0059H202.525V55.0918H202.754C203.648 55.0762 204.336 54.8438 204.816 54.3945C205.297 53.9414 205.559 53.2266 205.602 52.25ZM203.932 52.25C204.295 52.25 204.629 52.1387 204.934 51.916C205.242 51.6934 205.467 51.418 205.607 51.0898V50.6562C205.607 49.9453 205.453 49.3672 205.145 48.9219C204.836 48.4766 204.445 48.2539 203.973 48.2539C203.496 48.2539 203.113 48.4375 202.824 48.8047C202.535 49.168 202.391 49.6484 202.391 50.2461C202.391 50.8281 202.529 51.3086 202.807 51.6875C203.088 52.0625 203.463 52.25 203.932 52.25ZM211.068 49.1094C211.068 48.5977 211.23 48.1758 211.555 47.8438C211.883 47.5117 212.303 47.3457 212.814 47.3457C213.334 47.3457 213.754 47.5137 214.074 47.8496C214.398 48.1816 214.561 48.6133 214.561 49.1445V49.5605C214.561 50.0762 214.396 50.498 214.068 50.8262C213.744 51.1504 213.33 51.3125 212.826 51.3125C212.318 51.3125 211.898 51.1504 211.566 50.8262C211.234 50.498 211.068 50.0625 211.068 49.5195V49.1094ZM211.877 49.5605C211.877 49.8652 211.963 50.1172 212.135 50.3164C212.307 50.5117 212.537 50.6094 212.826 50.6094C213.104 50.6094 213.326 50.5137 213.494 50.3223C213.666 50.1309 213.752 49.8691 213.752 49.5371V49.1094C213.752 48.8047 213.668 48.5527 213.5 48.3535C213.332 48.1543 213.104 48.0547 212.814 48.0547C212.525 48.0547 212.297 48.1543 212.129 48.3535C211.961 48.5527 211.877 48.8125 211.877 49.1328V49.5605ZM215.223 53.9082C215.223 53.3965 215.385 52.9766 215.709 52.6484C216.037 52.3164 216.457 52.1504 216.969 52.1504C217.48 52.1504 217.9 52.3145 218.229 52.6426C218.557 52.9707 218.721 53.4062 218.721 53.9492V54.3652C218.721 54.877 218.557 55.2988 218.229 55.6309C217.904 55.959 217.488 56.123 216.98 56.123C216.473 56.123 216.053 55.9609 215.721 55.6367C215.389 55.3086 215.223 54.873 215.223 54.3301V53.9082ZM216.031 54.3652C216.031 54.6738 216.117 54.9277 216.289 55.127C216.461 55.3223 216.691 55.4199 216.98 55.4199C217.262 55.4199 217.486 55.3242 217.654 55.1328C217.822 54.9375 217.906 54.6738 217.906 54.3418V53.9082C217.906 53.5996 217.82 53.3477 217.648 53.1523C217.48 52.957 217.254 52.8594 216.969 52.8594C216.691 52.8594 216.465 52.957 216.289 53.1523C216.117 53.3438 216.031 53.6035 216.031 53.9316V54.3652ZM213.072 55.3555L212.457 54.9688L216.623 48.3008L217.238 48.6875L213.072 55.3555Z" fill="#39352A"/>
<rect x="122" y="40" width="64" height="64" fill="#137752" fill-opacity="0.47"/>
<rect x="122" y="40" width="45" height="23" fill="white" fill-opacity="0.7"/>
<path d="M133.299 56H127.709V55.2207L130.662 51.9395C131.1 51.4434 131.4 51.041 131.564 50.7324C131.732 50.4199 131.816 50.0977 131.816 49.7656C131.816 49.3203 131.682 48.9551 131.412 48.6699C131.143 48.3848 130.783 48.2422 130.334 48.2422C129.795 48.2422 129.375 48.3965 129.074 48.7051C128.777 49.0098 128.629 49.4355 128.629 49.9824H127.545C127.545 49.1973 127.797 48.5625 128.301 48.0781C128.809 47.5938 129.486 47.3516 130.334 47.3516C131.127 47.3516 131.754 47.5605 132.215 47.9785C132.676 48.3926 132.906 48.9453 132.906 49.6367C132.906 50.4766 132.371 51.4766 131.301 52.6367L129.016 55.1152H133.299V56ZM139.955 48.0781L136.422 56H135.285L138.807 48.3594H134.189V47.4688H139.955V48.0781ZM144.068 49.1094C144.068 48.5977 144.23 48.1758 144.555 47.8438C144.883 47.5117 145.303 47.3457 145.814 47.3457C146.334 47.3457 146.754 47.5137 147.074 47.8496C147.398 48.1816 147.561 48.6133 147.561 49.1445V49.5605C147.561 50.0762 147.396 50.498 147.068 50.8262C146.744 51.1504 146.33 51.3125 145.826 51.3125C145.318 51.3125 144.898 51.1504 144.566 50.8262C144.234 50.498 144.068 50.0625 144.068 49.5195V49.1094ZM144.877 49.5605C144.877 49.8652 144.963 50.1172 145.135 50.3164C145.307 50.5117 145.537 50.6094 145.826 50.6094C146.104 50.6094 146.326 50.5137 146.494 50.3223C146.666 50.1309 146.752 49.8691 146.752 49.5371V49.1094C146.752 48.8047 146.668 48.5527 146.5 48.3535C146.332 48.1543 146.104 48.0547 145.814 48.0547C145.525 48.0547 145.297 48.1543 145.129 48.3535C144.961 48.5527 144.877 48.8125 144.877 49.1328V49.5605ZM148.223 53.9082C148.223 53.3965 148.385 52.9766 148.709 52.6484C149.037 52.3164 149.457 52.1504 149.969 52.1504C150.48 52.1504 150.9 52.3145 151.229 52.6426C151.557 52.9707 151.721 53.4062 151.721 53.9492V54.3652C151.721 54.877 151.557 55.2988 151.229 55.6309C150.904 55.959 150.488 56.123 149.98 56.123C149.473 56.123 149.053 55.9609 148.721 55.6367C148.389 55.3086 148.223 54.873 148.223 54.3301V53.9082ZM149.031 54.3652C149.031 54.6738 149.117 54.9277 149.289 55.127C149.461 55.3223 149.691 55.4199 149.98 55.4199C150.262 55.4199 150.486 55.3242 150.654 55.1328C150.822 54.9375 150.906 54.6738 150.906 54.3418V53.9082C150.906 53.5996 150.82 53.3477 150.648 53.1523C150.48 52.957 150.254 52.8594 149.969 52.8594C149.691 52.8594 149.465 52.957 149.289 53.1523C149.117 53.3438 149.031 53.6035 149.031 53.9316V54.3652ZM146.072 55.3555L145.457 54.9688L149.623 48.3008L150.238 48.6875L146.072 55.3555Z" fill="#39352A"/>
<rect x="55" y="40" width="64" height="64" fill="#137752"/>
<rect x="55" y="40" width="45" height="23" fill="white" fill-opacity="0.7"/>
<path d="M64.2715 56H63.1816V48.7754L60.9961 49.5781V48.5938L64.1016 47.4277H64.2715V56ZM72.7969 52.3613C72.7969 53.6309 72.5801 54.5742 72.1465 55.1914C71.7129 55.8086 71.0352 56.1172 70.1133 56.1172C69.2031 56.1172 68.5293 55.8164 68.0918 55.2148C67.6543 54.6094 67.4277 53.707 67.4121 52.5078V51.0605C67.4121 49.8066 67.6289 48.875 68.0625 48.2656C68.4961 47.6562 69.1758 47.3516 70.1016 47.3516C71.0195 47.3516 71.6953 47.6465 72.1289 48.2363C72.5625 48.8223 72.7852 49.7285 72.7969 50.9551V52.3613ZM71.7129 50.8789C71.7129 49.9609 71.584 49.293 71.3262 48.875C71.0684 48.4531 70.6602 48.2422 70.1016 48.2422C69.5469 48.2422 69.1426 48.4512 68.8887 48.8691C68.6348 49.2871 68.5039 49.9297 68.4961 50.7969V52.5312C68.4961 53.4531 68.6289 54.1348 68.8945 54.5762C69.1641 55.0137 69.5703 55.2324 70.1133 55.2324C70.6484 55.2324 71.0449 55.0254 71.3027 54.6113C71.5645 54.1973 71.7012 53.5449 71.7129 52.6543V50.8789ZM79.5352 52.3613C79.5352 53.6309 79.3184 54.5742 78.8848 55.1914C78.4512 55.8086 77.7734 56.1172 76.8516 56.1172C75.9414 56.1172 75.2676 55.8164 74.8301 55.2148C74.3926 54.6094 74.166 53.707 74.1504 52.5078V51.0605C74.1504 49.8066 74.3672 48.875 74.8008 48.2656C75.2344 47.6562 75.9141 47.3516 76.8398 47.3516C77.7578 47.3516 78.4336 47.6465 78.8672 48.2363C79.3008 48.8223 79.5234 49.7285 79.5352 50.9551V52.3613ZM78.4512 50.8789C78.4512 49.9609 78.3223 49.293 78.0645 48.875C77.8066 48.4531 77.3984 48.2422 76.8398 48.2422C76.2852 48.2422 75.8809 48.4512 75.627 48.8691C75.373 49.2871 75.2422 49.9297 75.2344 50.7969V52.5312C75.2344 53.4531 75.3672 54.1348 75.6328 54.5762C75.9023 55.0137 76.3086 55.2324 76.8516 55.2324C77.3867 55.2324 77.7832 55.0254 78.041 54.6113C78.3027 54.1973 78.4395 53.5449 78.4512 52.6543V50.8789ZM83.8066 49.1094C83.8066 48.5977 83.9688 48.1758 84.293 47.8438C84.6211 47.5117 85.041 47.3457 85.5527 47.3457C86.0723 47.3457 86.4922 47.5137 86.8125 47.8496C87.1367 48.1816 87.2988 48.6133 87.2988 49.1445V49.5605C87.2988 50.0762 87.1348 50.498 86.8066 50.8262C86.4824 51.1504 86.0684 51.3125 85.5645 51.3125C85.0566 51.3125 84.6367 51.1504 84.3047 50.8262C83.9727 50.498 83.8066 50.0625 83.8066 49.5195V49.1094ZM84.6152 49.5605C84.6152 49.8652 84.7012 50.1172 84.873 50.3164C85.0449 50.5117 85.2754 50.6094 85.5645 50.6094C85.8418 50.6094 86.0645 50.5137 86.2324 50.3223C86.4043 50.1309 86.4902 49.8691 86.4902 49.5371V49.1094C86.4902 48.8047 86.4062 48.5527 86.2383 48.3535C86.0703 48.1543 85.8418 48.0547 85.5527 48.0547C85.2637 48.0547 85.0352 48.1543 84.8672 48.3535C84.6992 48.5527 84.6152 48.8125 84.6152 49.1328V49.5605ZM87.9609 53.9082C87.9609 53.3965 88.123 52.9766 88.4473 52.6484C88.7754 52.3164 89.1953 52.1504 89.707 52.1504C90.2188 52.1504 90.6387 52.3145 90.9668 52.6426C91.2949 52.9707 91.459 53.4062 91.459 53.9492V54.3652C91.459 54.877 91.2949 55.2988 90.9668 55.6309C90.6426 55.959 90.2266 56.123 89.7188 56.123C89.2109 56.123 88.791 55.9609 88.459 55.6367C88.127 55.3086 87.9609 54.873 87.9609 54.3301V53.9082ZM88.7695 54.3652C88.7695 54.6738 88.8555 54.9277 89.0273 55.127C89.1992 55.3223 89.4297 55.4199 89.7188 55.4199C90 55.4199 90.2246 55.3242 90.3926 55.1328C90.5605 54.9375 90.6445 54.6738 90.6445 54.3418V53.9082C90.6445 53.5996 90.5586 53.3477 90.3867 53.1523C90.2188 52.957 89.9922 52.8594 89.707 52.8594C89.4297 52.8594 89.2031 52.957 89.0273 53.1523C88.8555 53.3438 88.7695 53.6035 88.7695 53.9316V54.3652ZM85.8105 55.3555L85.1953 54.9688L89.3613 48.3008L89.9766 48.6875L85.8105 55.3555Z" fill="#39352A"/>
<path d="M7.54688 254H6.41602L2.12109 247.426V254H0.990234V245.469H2.12109L6.42773 252.072V245.469H7.54688V254ZM9.08789 250.771C9.08789 250.15 9.20898 249.592 9.45117 249.096C9.69727 248.6 10.0371 248.217 10.4707 247.947C10.9082 247.678 11.4062 247.543 11.9648 247.543C12.8281 247.543 13.5254 247.842 14.0566 248.439C14.5918 249.037 14.8594 249.832 14.8594 250.824V250.9C14.8594 251.518 14.7402 252.072 14.502 252.564C14.2676 253.053 13.9297 253.434 13.4883 253.707C13.0508 253.98 12.5469 254.117 11.9766 254.117C11.1172 254.117 10.4199 253.818 9.88477 253.221C9.35352 252.623 9.08789 251.832 9.08789 250.848V250.771ZM10.1777 250.9C10.1777 251.604 10.3398 252.168 10.6641 252.594C10.9922 253.02 11.4297 253.232 11.9766 253.232C12.5273 253.232 12.9648 253.018 13.2891 252.588C13.6133 252.154 13.7754 251.549 13.7754 250.771C13.7754 250.076 13.6094 249.514 13.2773 249.084C12.9492 248.65 12.5117 248.434 11.9648 248.434C11.4297 248.434 10.998 248.646 10.6699 249.072C10.3418 249.498 10.1777 250.107 10.1777 250.9ZM21.832 252.506L23.0508 247.66H24.1348L22.2891 254H21.4102L19.8691 249.195L18.3691 254H17.4902L15.6504 247.66H16.7285L17.9766 252.406L19.4531 247.66H20.3262L21.832 252.506Z" fill="#39352A"/>
<path d="M6.2168 180.078L2.68359 188H1.54688L5.06836 180.359H0.451172V179.469H6.2168V180.078ZM10.2715 184.777C10.2715 183.805 10.502 183.023 10.9629 182.434C11.4238 181.84 12.0273 181.543 12.7734 181.543C13.5156 181.543 14.1035 181.797 14.5371 182.305V179H15.6211V188H14.625L14.5723 187.32C14.1387 187.852 13.5352 188.117 12.7617 188.117C12.0273 188.117 11.4277 187.816 10.9629 187.215C10.502 186.613 10.2715 185.828 10.2715 184.859V184.777ZM11.3555 184.9C11.3555 185.619 11.5039 186.182 11.8008 186.588C12.0977 186.994 12.5078 187.197 13.0312 187.197C13.7188 187.197 14.2207 186.889 14.5371 186.271V183.359C14.2129 182.762 13.7148 182.463 13.043 182.463C12.5117 182.463 12.0977 182.668 11.8008 183.078C11.5039 183.488 11.3555 184.096 11.3555 184.9ZM21.2227 188C21.1602 187.875 21.1094 187.652 21.0703 187.332C20.5664 187.855 19.9648 188.117 19.2656 188.117C18.6406 188.117 18.127 187.941 17.7246 187.59C17.3262 187.234 17.127 186.785 17.127 186.242C17.127 185.582 17.377 185.07 17.877 184.707C18.3809 184.34 19.0879 184.156 19.998 184.156H21.0527V183.658C21.0527 183.279 20.9395 182.979 20.7129 182.756C20.4863 182.529 20.1523 182.416 19.7109 182.416C19.3242 182.416 19 182.514 18.7383 182.709C18.4766 182.904 18.3457 183.141 18.3457 183.418H17.2559C17.2559 183.102 17.3672 182.797 17.5898 182.504C17.8164 182.207 18.1211 181.973 18.5039 181.801C18.8906 181.629 19.3145 181.543 19.7754 181.543C20.5059 181.543 21.0781 181.727 21.4922 182.094C21.9062 182.457 22.1211 182.959 22.1367 183.6V186.518C22.1367 187.1 22.2109 187.562 22.3594 187.906V188H21.2227ZM19.4238 187.174C19.7637 187.174 20.0859 187.086 20.3906 186.91C20.6953 186.734 20.916 186.506 21.0527 186.225V184.924H20.2031C18.875 184.924 18.2109 185.312 18.2109 186.09C18.2109 186.43 18.3242 186.695 18.5508 186.887C18.7773 187.078 19.0684 187.174 19.4238 187.174ZM25.8164 186.412L27.293 181.66H28.4531L25.9043 188.979C25.5098 190.033 24.8828 190.561 24.0234 190.561L23.8184 190.543L23.4141 190.467V189.588L23.707 189.611C24.0742 189.611 24.3594 189.537 24.5625 189.389C24.7695 189.24 24.9395 188.969 25.0723 188.574L25.3125 187.93L23.0508 181.66H24.2344L25.8164 186.412ZM33.1172 186.318C33.1172 186.025 33.0059 185.799 32.7832 185.639C32.5645 185.475 32.1797 185.334 31.6289 185.217C31.082 185.1 30.6465 184.959 30.3223 184.795C30.002 184.631 29.7637 184.436 29.6074 184.209C29.4551 183.982 29.3789 183.713 29.3789 183.4C29.3789 182.881 29.5977 182.441 30.0352 182.082C30.4766 181.723 31.0391 181.543 31.7227 181.543C32.4414 181.543 33.0234 181.729 33.4688 182.1C33.918 182.471 34.1426 182.945 34.1426 183.523H33.0527C33.0527 183.227 32.9258 182.971 32.6719 182.756C32.4219 182.541 32.1055 182.434 31.7227 182.434C31.3281 182.434 31.0195 182.52 30.7969 182.691C30.5742 182.863 30.4629 183.088 30.4629 183.365C30.4629 183.627 30.5664 183.824 30.7734 183.957C30.9805 184.09 31.3535 184.217 31.8926 184.338C32.4355 184.459 32.875 184.604 33.2109 184.771C33.5469 184.939 33.7949 185.143 33.9551 185.381C34.1191 185.615 34.2012 185.902 34.2012 186.242C34.2012 186.809 33.9746 187.264 33.5215 187.607C33.0684 187.947 32.4805 188.117 31.7578 188.117C31.25 188.117 30.8008 188.027 30.4102 187.848C30.0195 187.668 29.7129 187.418 29.4902 187.098C29.2715 186.773 29.1621 186.424 29.1621 186.049H30.2461C30.2656 186.412 30.4102 186.701 30.6797 186.916C30.9531 187.127 31.3125 187.232 31.7578 187.232C32.168 187.232 32.4961 187.15 32.7422 186.986C32.9922 186.818 33.1172 186.596 33.1172 186.318ZM3.45117 204.117C2.5918 204.117 1.89258 203.836 1.35352 203.273C0.814453 202.707 0.544922 201.951 0.544922 201.006V200.807C0.544922 200.178 0.664062 199.617 0.902344 199.125C1.14453 198.629 1.48047 198.242 1.91016 197.965C2.34375 197.684 2.8125 197.543 3.31641 197.543C4.14062 197.543 4.78125 197.814 5.23828 198.357C5.69531 198.9 5.92383 199.678 5.92383 200.689V201.141H1.62891C1.64453 201.766 1.82617 202.271 2.17383 202.658C2.52539 203.041 2.9707 203.232 3.50977 203.232C3.89258 203.232 4.2168 203.154 4.48242 202.998C4.74805 202.842 4.98047 202.635 5.17969 202.377L5.8418 202.893C5.31055 203.709 4.51367 204.117 3.45117 204.117ZM3.31641 198.434C2.87891 198.434 2.51172 198.594 2.21484 198.914C1.91797 199.23 1.73438 199.676 1.66406 200.25H4.83984V200.168C4.80859 199.617 4.66016 199.191 4.39453 198.891C4.12891 198.586 3.76953 198.434 3.31641 198.434ZM10.248 198.633C10.084 198.605 9.90625 198.592 9.71484 198.592C9.00391 198.592 8.52148 198.895 8.26758 199.5V204H7.18359V197.66H8.23828L8.25586 198.393C8.61133 197.826 9.11523 197.543 9.76758 197.543C9.97852 197.543 10.1387 197.57 10.248 197.625V198.633ZM12.4277 204H11.3438V195H12.4277V204ZM15.3457 204H14.2617V197.66H15.3457V204ZM14.1738 195.979C14.1738 195.803 14.2266 195.654 14.332 195.533C14.4414 195.412 14.6016 195.352 14.8125 195.352C15.0234 195.352 15.1836 195.412 15.293 195.533C15.4023 195.654 15.457 195.803 15.457 195.979C15.457 196.154 15.4023 196.301 15.293 196.418C15.1836 196.535 15.0234 196.594 14.8125 196.594C14.6016 196.594 14.4414 196.535 14.332 196.418C14.2266 196.301 14.1738 196.154 14.1738 195.979ZM19.7168 204.117C18.8574 204.117 18.1582 203.836 17.6191 203.273C17.0801 202.707 16.8105 201.951 16.8105 201.006V200.807C16.8105 200.178 16.9297 199.617 17.168 199.125C17.4102 198.629 17.7461 198.242 18.1758 197.965C18.6094 197.684 19.0781 197.543 19.582 197.543C20.4062 197.543 21.0469 197.814 21.5039 198.357C21.9609 198.9 22.1895 199.678 22.1895 200.689V201.141H17.8945C17.9102 201.766 18.0918 202.271 18.4395 202.658C18.791 203.041 19.2363 203.232 19.7754 203.232C20.1582 203.232 20.4824 203.154 20.748 202.998C21.0137 202.842 21.2461 202.635 21.4453 202.377L22.1074 202.893C21.5762 203.709 20.7793 204.117 19.7168 204.117ZM19.582 198.434C19.1445 198.434 18.7773 198.594 18.4805 198.914C18.1836 199.23 18 199.676 17.9297 200.25H21.1055V200.168C21.0742 199.617 20.9258 199.191 20.6602 198.891C20.3945 198.586 20.0352 198.434 19.582 198.434ZM26.5137 198.633C26.3496 198.605 26.1719 198.592 25.9805 198.592C25.2695 198.592 24.7871 198.895 24.5332 199.5V204H23.4492V197.66H24.5039L24.5215 198.393C24.877 197.826 25.3809 197.543 26.0332 197.543C26.2441 197.543 26.4043 197.57 26.5137 197.625V198.633Z" fill="#39352A"/>
<path d="M4.27148 122H3.18164V114.775L0.996094 115.578V114.594L4.10156 113.428H4.27148V122ZM12.0234 119.135H13.207V120.02H12.0234V122H10.9336V120.02H7.04883V119.381L10.8691 113.469H12.0234V119.135ZM8.2793 119.135H10.9336V114.951L10.8047 115.186L8.2793 119.135ZM17.0098 118.777C17.0098 117.805 17.2402 117.023 17.7012 116.434C18.1621 115.84 18.7656 115.543 19.5117 115.543C20.2539 115.543 20.8418 115.797 21.2754 116.305V113H22.3594V122H21.3633L21.3105 121.32C20.877 121.852 20.2734 122.117 19.5 122.117C18.7656 122.117 18.166 121.816 17.7012 121.215C17.2402 120.613 17.0098 119.828 17.0098 118.859V118.777ZM18.0938 118.9C18.0938 119.619 18.2422 120.182 18.5391 120.588C18.8359 120.994 19.2461 121.197 19.7695 121.197C20.457 121.197 20.959 120.889 21.2754 120.271V117.359C20.9512 116.762 20.4531 116.463 19.7812 116.463C19.25 116.463 18.8359 116.668 18.5391 117.078C18.2422 117.488 18.0938 118.096 18.0938 118.9ZM27.9609 122C27.8984 121.875 27.8477 121.652 27.8086 121.332C27.3047 121.855 26.7031 122.117 26.0039 122.117C25.3789 122.117 24.8652 121.941 24.4629 121.59C24.0645 121.234 23.8652 120.785 23.8652 120.242C23.8652 119.582 24.1152 119.07 24.6152 118.707C25.1191 118.34 25.8262 118.156 26.7363 118.156H27.791V117.658C27.791 117.279 27.6777 116.979 27.4512 116.756C27.2246 116.529 26.8906 116.416 26.4492 116.416C26.0625 116.416 25.7383 116.514 25.4766 116.709C25.2148 116.904 25.084 117.141 25.084 117.418H23.9941C23.9941 117.102 24.1055 116.797 24.3281 116.504C24.5547 116.207 24.8594 115.973 25.2422 115.801C25.6289 115.629 26.0527 115.543 26.5137 115.543C27.2441 115.543 27.8164 115.727 28.2305 116.094C28.6445 116.457 28.8594 116.959 28.875 117.6V120.518C28.875 121.1 28.9492 121.562 29.0977 121.906V122H27.9609ZM26.1621 121.174C26.502 121.174 26.8242 121.086 27.1289 120.91C27.4336 120.734 27.6543 120.506 27.791 120.225V118.924H26.9414C25.6133 118.924 24.9492 119.312 24.9492 120.09C24.9492 120.43 25.0625 120.695 25.2891 120.887C25.5156 121.078 25.8066 121.174 26.1621 121.174ZM32.5547 120.412L34.0312 115.66H35.1914L32.6426 122.979C32.248 124.033 31.6211 124.561 30.7617 124.561L30.5566 124.543L30.1523 124.467V123.588L30.4453 123.611C30.8125 123.611 31.0977 123.537 31.3008 123.389C31.5078 123.24 31.6777 122.969 31.8105 122.574L32.0508 121.93L29.7891 115.66H30.9727L32.5547 120.412ZM39.8555 120.318C39.8555 120.025 39.7441 119.799 39.5215 119.639C39.3027 119.475 38.918 119.334 38.3672 119.217C37.8203 119.1 37.3848 118.959 37.0605 118.795C36.7402 118.631 36.502 118.436 36.3457 118.209C36.1934 117.982 36.1172 117.713 36.1172 117.4C36.1172 116.881 36.3359 116.441 36.7734 116.082C37.2148 115.723 37.7773 115.543 38.4609 115.543C39.1797 115.543 39.7617 115.729 40.207 116.1C40.6562 116.471 40.8809 116.945 40.8809 117.523H39.791C39.791 117.227 39.6641 116.971 39.4102 116.756C39.1602 116.541 38.8438 116.434 38.4609 116.434C38.0664 116.434 37.7578 116.52 37.5352 116.691C37.3125 116.863 37.2012 117.088 37.2012 117.365C37.2012 117.627 37.3047 117.824 37.5117 117.957C37.7188 118.09 38.0918 118.217 38.6309 118.338C39.1738 118.459 39.6133 118.604 39.9492 118.771C40.2852 118.939 40.5332 119.143 40.6934 119.381C40.8574 119.615 40.9395 119.902 40.9395 120.242C40.9395 120.809 40.7129 121.264 40.2598 121.607C39.8066 121.947 39.2188 122.117 38.4961 122.117C37.9883 122.117 37.5391 122.027 37.1484 121.848C36.7578 121.668 36.4512 121.418 36.2285 121.098C36.0098 120.773 35.9004 120.424 35.9004 120.049H36.9844C37.0039 120.412 37.1484 120.701 37.418 120.916C37.6914 121.127 38.0508 121.232 38.4961 121.232C38.9062 121.232 39.2344 121.15 39.4805 120.986C39.7305 120.818 39.8555 120.596 39.8555 120.318ZM3.45117 138.117C2.5918 138.117 1.89258 137.836 1.35352 137.273C0.814453 136.707 0.544922 135.951 0.544922 135.006V134.807C0.544922 134.178 0.664062 133.617 0.902344 133.125C1.14453 132.629 1.48047 132.242 1.91016 131.965C2.34375 131.684 2.8125 131.543 3.31641 131.543C4.14062 131.543 4.78125 131.814 5.23828 132.357C5.69531 132.9 5.92383 133.678 5.92383 134.689V135.141H1.62891C1.64453 135.766 1.82617 136.271 2.17383 136.658C2.52539 137.041 2.9707 137.232 3.50977 137.232C3.89258 137.232 4.2168 137.154 4.48242 136.998C4.74805 136.842 4.98047 136.635 5.17969 136.377L5.8418 136.893C5.31055 137.709 4.51367 138.117 3.45117 138.117ZM3.31641 132.434C2.87891 132.434 2.51172 132.594 2.21484 132.914C1.91797 133.23 1.73438 133.676 1.66406 134.25H4.83984V134.168C4.80859 133.617 4.66016 133.191 4.39453 132.891C4.12891 132.586 3.76953 132.434 3.31641 132.434ZM10.248 132.633C10.084 132.605 9.90625 132.592 9.71484 132.592C9.00391 132.592 8.52148 132.895 8.26758 133.5V138H7.18359V131.66H8.23828L8.25586 132.393C8.61133 131.826 9.11523 131.543 9.76758 131.543C9.97852 131.543 10.1387 131.57 10.248 131.625V132.633ZM12.4277 138H11.3438V129H12.4277V138ZM15.3457 138H14.2617V131.66H15.3457V138ZM14.1738 129.979C14.1738 129.803 14.2266 129.654 14.332 129.533C14.4414 129.412 14.6016 129.352 14.8125 129.352C15.0234 129.352 15.1836 129.412 15.293 129.533C15.4023 129.654 15.457 129.803 15.457 129.979C15.457 130.154 15.4023 130.301 15.293 130.418C15.1836 130.535 15.0234 130.594 14.8125 130.594C14.6016 130.594 14.4414 130.535 14.332 130.418C14.2266 130.301 14.1738 130.154 14.1738 129.979ZM19.7168 138.117C18.8574 138.117 18.1582 137.836 17.6191 137.273C17.0801 136.707 16.8105 135.951 16.8105 135.006V134.807C16.8105 134.178 16.9297 133.617 17.168 133.125C17.4102 132.629 17.7461 132.242 18.1758 131.965C18.6094 131.684 19.0781 131.543 19.582 131.543C20.4062 131.543 21.0469 131.814 21.5039 132.357C21.9609 132.9 22.1895 133.678 22.1895 134.689V135.141H17.8945C17.9102 135.766 18.0918 136.271 18.4395 136.658C18.791 137.041 19.2363 137.232 19.7754 137.232C20.1582 137.232 20.4824 137.154 20.748 136.998C21.0137 136.842 21.2461 136.635 21.4453 136.377L22.1074 136.893C21.5762 137.709 20.7793 138.117 19.7168 138.117ZM19.582 132.434C19.1445 132.434 18.7773 132.594 18.4805 132.914C18.1836 133.23 18 133.676 17.9297 134.25H21.1055V134.168C21.0742 133.617 20.9258 133.191 20.6602 132.891C20.3945 132.586 20.0352 132.434 19.582 132.434ZM26.5137 132.633C26.3496 132.605 26.1719 132.592 25.9805 132.592C25.2695 132.592 24.7871 132.895 24.5332 133.5V138H23.4492V131.66H24.5039L24.5215 132.393C24.877 131.826 25.3809 131.543 26.0332 131.543C26.2441 131.543 26.4043 131.57 26.5137 131.625V132.633Z" fill="#39352A"/>
<path d="M6.29883 56H0.708984V55.2207L3.66211 51.9395C4.09961 51.4434 4.40039 51.041 4.56445 50.7324C4.73242 50.4199 4.81641 50.0977 4.81641 49.7656C4.81641 49.3203 4.68164 48.9551 4.41211 48.6699C4.14258 48.3848 3.7832 48.2422 3.33398 48.2422C2.79492 48.2422 2.375 48.3965 2.07422 48.7051C1.77734 49.0098 1.62891 49.4355 1.62891 49.9824H0.544922C0.544922 49.1973 0.796875 48.5625 1.30078 48.0781C1.80859 47.5938 2.48633 47.3516 3.33398 47.3516C4.12695 47.3516 4.75391 47.5605 5.21484 47.9785C5.67578 48.3926 5.90625 48.9453 5.90625 49.6367C5.90625 50.4766 5.37109 51.4766 4.30078 52.6367L2.01562 55.1152H6.29883V56ZM11.0098 56H9.91992V48.7754L7.73438 49.5781V48.5938L10.8398 47.4277H11.0098V56ZM17.0098 52.7773C17.0098 51.8047 17.2402 51.0234 17.7012 50.4336C18.1621 49.8398 18.7656 49.543 19.5117 49.543C20.2539 49.543 20.8418 49.7969 21.2754 50.3047V47H22.3594V56H21.3633L21.3105 55.3203C20.877 55.8516 20.2734 56.1172 19.5 56.1172C18.7656 56.1172 18.166 55.8164 17.7012 55.2148C17.2402 54.6133 17.0098 53.8281 17.0098 52.8594V52.7773ZM18.0938 52.9004C18.0938 53.6191 18.2422 54.1816 18.5391 54.5879C18.8359 54.9941 19.2461 55.1973 19.7695 55.1973C20.457 55.1973 20.959 54.8887 21.2754 54.2715V51.3594C20.9512 50.7617 20.4531 50.4629 19.7812 50.4629C19.25 50.4629 18.8359 50.668 18.5391 51.0781C18.2422 51.4883 18.0938 52.0957 18.0938 52.9004ZM27.9609 56C27.8984 55.875 27.8477 55.6523 27.8086 55.332C27.3047 55.8555 26.7031 56.1172 26.0039 56.1172C25.3789 56.1172 24.8652 55.9414 24.4629 55.5898C24.0645 55.2344 23.8652 54.7852 23.8652 54.2422C23.8652 53.582 24.1152 53.0703 24.6152 52.707C25.1191 52.3398 25.8262 52.1562 26.7363 52.1562H27.791V51.6582C27.791 51.2793 27.6777 50.9785 27.4512 50.7559C27.2246 50.5293 26.8906 50.416 26.4492 50.416C26.0625 50.416 25.7383 50.5137 25.4766 50.709C25.2148 50.9043 25.084 51.1406 25.084 51.418H23.9941C23.9941 51.1016 24.1055 50.7969 24.3281 50.5039C24.5547 50.207 24.8594 49.9727 25.2422 49.8008C25.6289 49.6289 26.0527 49.543 26.5137 49.543C27.2441 49.543 27.8164 49.7266 28.2305 50.0938C28.6445 50.457 28.8594 50.959 28.875 51.5996V54.5176C28.875 55.0996 28.9492 55.5625 29.0977 55.9062V56H27.9609ZM26.1621 55.1738C26.502 55.1738 26.8242 55.0859 27.1289 54.9102C27.4336 54.7344 27.6543 54.5059 27.791 54.2246V52.9238H26.9414C25.6133 52.9238 24.9492 53.3125 24.9492 54.0898C24.9492 54.4297 25.0625 54.6953 25.2891 54.8867C25.5156 55.0781 25.8066 55.1738 26.1621 55.1738ZM32.5547 54.4121L34.0312 49.6602H35.1914L32.6426 56.9785C32.248 58.0332 31.6211 58.5605 30.7617 58.5605L30.5566 58.543L30.1523 58.4668V57.5879L30.4453 57.6113C30.8125 57.6113 31.0977 57.5371 31.3008 57.3887C31.5078 57.2402 31.6777 56.9688 31.8105 56.5742L32.0508 55.9297L29.7891 49.6602H30.9727L32.5547 54.4121ZM39.8555 54.3184C39.8555 54.0254 39.7441 53.7988 39.5215 53.6387C39.3027 53.4746 38.918 53.334 38.3672 53.2168C37.8203 53.0996 37.3848 52.959 37.0605 52.7949C36.7402 52.6309 36.502 52.4355 36.3457 52.209C36.1934 51.9824 36.1172 51.7129 36.1172 51.4004C36.1172 50.8809 36.3359 50.4414 36.7734 50.082C37.2148 49.7227 37.7773 49.543 38.4609 49.543C39.1797 49.543 39.7617 49.7285 40.207 50.0996C40.6562 50.4707 40.8809 50.9453 40.8809 51.5234H39.791C39.791 51.2266 39.6641 50.9707 39.4102 50.7559C39.1602 50.541 38.8438 50.4336 38.4609 50.4336C38.0664 50.4336 37.7578 50.5195 37.5352 50.6914C37.3125 50.8633 37.2012 51.0879 37.2012 51.3652C37.2012 51.627 37.3047 51.8242 37.5117 51.957C37.7188 52.0898 38.0918 52.2168 38.6309 52.3379C39.1738 52.459 39.6133 52.6035 39.9492 52.7715C40.2852 52.9395 40.5332 53.1426 40.6934 53.3809C40.8574 53.6152 40.9395 53.9023 40.9395 54.2422C40.9395 54.8086 40.7129 55.2637 40.2598 55.6074C39.8066 55.9473 39.2188 56.1172 38.4961 56.1172C37.9883 56.1172 37.5391 56.0273 37.1484 55.8477C36.7578 55.668 36.4512 55.418 36.2285 55.0977C36.0098 54.7734 35.9004 54.4238 35.9004 54.0488H36.9844C37.0039 54.4121 37.1484 54.7012 37.418 54.916C37.6914 55.127 38.0508 55.2324 38.4961 55.2324C38.9062 55.2324 39.2344 55.1504 39.4805 54.9863C39.7305 54.8184 39.8555 54.5957 39.8555 54.3184ZM3.45117 72.1172C2.5918 72.1172 1.89258 71.8359 1.35352 71.2734C0.814453 70.707 0.544922 69.9512 0.544922 69.0059V68.8066C0.544922 68.1777 0.664062 67.6172 0.902344 67.125C1.14453 66.6289 1.48047 66.2422 1.91016 65.9648C2.34375 65.6836 2.8125 65.543 3.31641 65.543C4.14062 65.543 4.78125 65.8145 5.23828 66.3574C5.69531 66.9004 5.92383 67.6777 5.92383 68.6895V69.1406H1.62891C1.64453 69.7656 1.82617 70.2715 2.17383 70.6582C2.52539 71.041 2.9707 71.2324 3.50977 71.2324C3.89258 71.2324 4.2168 71.1543 4.48242 70.998C4.74805 70.8418 4.98047 70.6348 5.17969 70.377L5.8418 70.8926C5.31055 71.709 4.51367 72.1172 3.45117 72.1172ZM3.31641 66.4336C2.87891 66.4336 2.51172 66.5938 2.21484 66.9141C1.91797 67.2305 1.73438 67.6758 1.66406 68.25H4.83984V68.168C4.80859 67.6172 4.66016 67.1914 4.39453 66.8906C4.12891 66.5859 3.76953 66.4336 3.31641 66.4336ZM10.248 66.6328C10.084 66.6055 9.90625 66.5918 9.71484 66.5918C9.00391 66.5918 8.52148 66.8945 8.26758 67.5V72H7.18359V65.6602H8.23828L8.25586 66.3926C8.61133 65.8262 9.11523 65.543 9.76758 65.543C9.97852 65.543 10.1387 65.5703 10.248 65.625V66.6328ZM12.4277 72H11.3438V63H12.4277V72ZM15.3457 72H14.2617V65.6602H15.3457V72ZM14.1738 63.9785C14.1738 63.8027 14.2266 63.6543 14.332 63.5332C14.4414 63.4121 14.6016 63.3516 14.8125 63.3516C15.0234 63.3516 15.1836 63.4121 15.293 63.5332C15.4023 63.6543 15.457 63.8027 15.457 63.9785C15.457 64.1543 15.4023 64.3008 15.293 64.418C15.1836 64.5352 15.0234 64.5938 14.8125 64.5938C14.6016 64.5938 14.4414 64.5352 14.332 64.418C14.2266 64.3008 14.1738 64.1543 14.1738 63.9785ZM19.7168 72.1172C18.8574 72.1172 18.1582 71.8359 17.6191 71.2734C17.0801 70.707 16.8105 69.9512 16.8105 69.0059V68.8066C16.8105 68.1777 16.9297 67.6172 17.168 67.125C17.4102 66.6289 17.7461 66.2422 18.1758 65.9648C18.6094 65.6836 19.0781 65.543 19.582 65.543C20.4062 65.543 21.0469 65.8145 21.5039 66.3574C21.9609 66.9004 22.1895 67.6777 22.1895 68.6895V69.1406H17.8945C17.9102 69.7656 18.0918 70.2715 18.4395 70.6582C18.791 71.041 19.2363 71.2324 19.7754 71.2324C20.1582 71.2324 20.4824 71.1543 20.748 70.998C21.0137 70.8418 21.2461 70.6348 21.4453 70.377L22.1074 70.8926C21.5762 71.709 20.7793 72.1172 19.7168 72.1172ZM19.582 66.4336C19.1445 66.4336 18.7773 66.5938 18.4805 66.9141C18.1836 67.2305 18 67.6758 17.9297 68.25H21.1055V68.168C21.0742 67.6172 20.9258 67.1914 20.6602 66.8906C20.3945 66.5859 20.0352 66.4336 19.582 66.4336ZM26.5137 66.6328C26.3496 66.6055 26.1719 66.5918 25.9805 66.5918C25.2695 66.5918 24.7871 66.8945 24.5332 67.5V72H23.4492V65.6602H24.5039L24.5215 66.3926C24.877 65.8262 25.3809 65.543 26.0332 65.543C26.2441 65.543 26.4043 65.5703 26.5137 65.625V66.6328Z" fill="#39352A"/>
<path d="M262.299 12H256.709V11.2207L259.662 7.93945C260.1 7.44336 260.4 7.04102 260.564 6.73242C260.732 6.41992 260.816 6.09766 260.816 5.76562C260.816 5.32031 260.682 4.95508 260.412 4.66992C260.143 4.38477 259.783 4.24219 259.334 4.24219C258.795 4.24219 258.375 4.39648 258.074 4.70508C257.777 5.00977 257.629 5.43555 257.629 5.98242H256.545C256.545 5.19727 256.797 4.5625 257.301 4.07812C257.809 3.59375 258.486 3.35156 259.334 3.35156C260.127 3.35156 260.754 3.56055 261.215 3.97852C261.676 4.39258 261.906 4.94531 261.906 5.63672C261.906 6.47656 261.371 7.47656 260.301 8.63672L258.016 11.1152H262.299V12ZM267.01 12H265.92V4.77539L263.734 5.57812V4.59375L266.84 3.42773H267.01V12ZM273.01 8.77734C273.01 7.80469 273.24 7.02344 273.701 6.43359C274.162 5.83984 274.766 5.54297 275.512 5.54297C276.254 5.54297 276.842 5.79688 277.275 6.30469V3H278.359V12H277.363L277.311 11.3203C276.877 11.8516 276.273 12.1172 275.5 12.1172C274.766 12.1172 274.166 11.8164 273.701 11.2148C273.24 10.6133 273.01 9.82812 273.01 8.85938V8.77734ZM274.094 8.90039C274.094 9.61914 274.242 10.1816 274.539 10.5879C274.836 10.9941 275.246 11.1973 275.77 11.1973C276.457 11.1973 276.959 10.8887 277.275 10.2715V7.35938C276.951 6.76172 276.453 6.46289 275.781 6.46289C275.25 6.46289 274.836 6.66797 274.539 7.07812C274.242 7.48828 274.094 8.0957 274.094 8.90039ZM283.961 12C283.898 11.875 283.848 11.6523 283.809 11.332C283.305 11.8555 282.703 12.1172 282.004 12.1172C281.379 12.1172 280.865 11.9414 280.463 11.5898C280.064 11.2344 279.865 10.7852 279.865 10.2422C279.865 9.58203 280.115 9.07031 280.615 8.70703C281.119 8.33984 281.826 8.15625 282.736 8.15625H283.791V7.6582C283.791 7.2793 283.678 6.97852 283.451 6.75586C283.225 6.5293 282.891 6.41602 282.449 6.41602C282.062 6.41602 281.738 6.51367 281.477 6.70898C281.215 6.9043 281.084 7.14062 281.084 7.41797H279.994C279.994 7.10156 280.105 6.79688 280.328 6.50391C280.555 6.20703 280.859 5.97266 281.242 5.80078C281.629 5.62891 282.053 5.54297 282.514 5.54297C283.244 5.54297 283.816 5.72656 284.23 6.09375C284.645 6.45703 284.859 6.95898 284.875 7.59961V10.5176C284.875 11.0996 284.949 11.5625 285.098 11.9062V12H283.961ZM282.162 11.1738C282.502 11.1738 282.824 11.0859 283.129 10.9102C283.434 10.7344 283.654 10.5059 283.791 10.2246V8.92383H282.941C281.613 8.92383 280.949 9.3125 280.949 10.0898C280.949 10.4297 281.062 10.6953 281.289 10.8867C281.516 11.0781 281.807 11.1738 282.162 11.1738ZM288.555 10.4121L290.031 5.66016H291.191L288.643 12.9785C288.248 14.0332 287.621 14.5605 286.762 14.5605L286.557 14.543L286.152 14.4668V13.5879L286.445 13.6113C286.812 13.6113 287.098 13.5371 287.301 13.3887C287.508 13.2402 287.678 12.9688 287.811 12.5742L288.051 11.9297L285.789 5.66016H286.973L288.555 10.4121ZM295.855 10.3184C295.855 10.0254 295.744 9.79883 295.521 9.63867C295.303 9.47461 294.918 9.33398 294.367 9.2168C293.82 9.09961 293.385 8.95898 293.061 8.79492C292.74 8.63086 292.502 8.43555 292.346 8.20898C292.193 7.98242 292.117 7.71289 292.117 7.40039C292.117 6.88086 292.336 6.44141 292.773 6.08203C293.215 5.72266 293.777 5.54297 294.461 5.54297C295.18 5.54297 295.762 5.72852 296.207 6.09961C296.656 6.4707 296.881 6.94531 296.881 7.52344H295.791C295.791 7.22656 295.664 6.9707 295.41 6.75586C295.16 6.54102 294.844 6.43359 294.461 6.43359C294.066 6.43359 293.758 6.51953 293.535 6.69141C293.312 6.86328 293.201 7.08789 293.201 7.36523C293.201 7.62695 293.305 7.82422 293.512 7.95703C293.719 8.08984 294.092 8.2168 294.631 8.33789C295.174 8.45898 295.613 8.60352 295.949 8.77148C296.285 8.93945 296.533 9.14258 296.693 9.38086C296.857 9.61523 296.939 9.90234 296.939 10.2422C296.939 10.8086 296.713 11.2637 296.26 11.6074C295.807 11.9473 295.219 12.1172 294.496 12.1172C293.988 12.1172 293.539 12.0273 293.148 11.8477C292.758 11.668 292.451 11.418 292.229 11.0977C292.01 10.7734 291.9 10.4238 291.9 10.0488H292.984C293.004 10.4121 293.148 10.7012 293.418 10.916C293.691 11.127 294.051 11.2324 294.496 11.2324C294.906 11.2324 295.234 11.1504 295.48 10.9863C295.73 10.8184 295.855 10.5957 295.855 10.3184ZM257.998 28H256.914V19H257.998V28ZM263.652 28C263.59 27.875 263.539 27.6523 263.5 27.332C262.996 27.8555 262.395 28.1172 261.695 28.1172C261.07 28.1172 260.557 27.9414 260.154 27.5898C259.756 27.2344 259.557 26.7852 259.557 26.2422C259.557 25.582 259.807 25.0703 260.307 24.707C260.811 24.3398 261.518 24.1562 262.428 24.1562H263.482V23.6582C263.482 23.2793 263.369 22.9785 263.143 22.7559C262.916 22.5293 262.582 22.416 262.141 22.416C261.754 22.416 261.43 22.5137 261.168 22.709C260.906 22.9043 260.775 23.1406 260.775 23.418H259.686C259.686 23.1016 259.797 22.7969 260.02 22.5039C260.246 22.207 260.551 21.9727 260.934 21.8008C261.32 21.6289 261.744 21.543 262.205 21.543C262.936 21.543 263.508 21.7266 263.922 22.0938C264.336 22.457 264.551 22.959 264.566 23.5996V26.5176C264.566 27.0996 264.641 27.5625 264.789 27.9062V28H263.652ZM261.854 27.1738C262.193 27.1738 262.516 27.0859 262.82 26.9102C263.125 26.7344 263.346 26.5059 263.482 26.2246V24.9238H262.633C261.305 24.9238 260.641 25.3125 260.641 26.0898C260.641 26.4297 260.754 26.6953 260.98 26.8867C261.207 27.0781 261.498 27.1738 261.854 27.1738ZM267.736 20.125V21.6602H268.92V22.498H267.736V26.4297C267.736 26.6836 267.789 26.875 267.895 27.0039C268 27.1289 268.18 27.1914 268.434 27.1914C268.559 27.1914 268.73 27.168 268.949 27.1211V28C268.664 28.0781 268.387 28.1172 268.117 28.1172C267.633 28.1172 267.268 27.9707 267.021 27.6777C266.775 27.3848 266.652 26.9688 266.652 26.4297V22.498H265.498V21.6602H266.652V20.125H267.736ZM272.822 28.1172C271.963 28.1172 271.264 27.8359 270.725 27.2734C270.186 26.707 269.916 25.9512 269.916 25.0059V24.8066C269.916 24.1777 270.035 23.6172 270.273 23.125C270.516 22.6289 270.852 22.2422 271.281 21.9648C271.715 21.6836 272.184 21.543 272.688 21.543C273.512 21.543 274.152 21.8145 274.609 22.3574C275.066 22.9004 275.295 23.6777 275.295 24.6895V25.1406H271C271.016 25.7656 271.197 26.2715 271.545 26.6582C271.896 27.041 272.342 27.2324 272.881 27.2324C273.264 27.2324 273.588 27.1543 273.854 26.998C274.119 26.8418 274.352 26.6348 274.551 26.377L275.213 26.8926C274.682 27.709 273.885 28.1172 272.822 28.1172ZM272.688 22.4336C272.25 22.4336 271.883 22.5938 271.586 22.9141C271.289 23.2305 271.105 23.6758 271.035 24.25H274.211V24.168C274.18 23.6172 274.031 23.1914 273.766 22.8906C273.5 22.5859 273.141 22.4336 272.688 22.4336ZM279.619 22.6328C279.455 22.6055 279.277 22.5918 279.086 22.5918C278.375 22.5918 277.893 22.8945 277.639 23.5V28H276.555V21.6602H277.609L277.627 22.3926C277.982 21.8262 278.486 21.543 279.139 21.543C279.35 21.543 279.51 21.5703 279.619 21.625V22.6328Z" fill="#39352A"/>
<path d="M193.271 12H192.182V4.77539L189.996 5.57812V4.59375L193.102 3.42773H193.271V12ZM201.023 9.13477H202.207V10.0195H201.023V12H199.934V10.0195H196.049V9.38086L199.869 3.46875H201.023V9.13477ZM197.279 9.13477H199.934V4.95117L199.805 5.18555L197.279 9.13477ZM206.01 8.77734C206.01 7.80469 206.24 7.02344 206.701 6.43359C207.162 5.83984 207.766 5.54297 208.512 5.54297C209.254 5.54297 209.842 5.79688 210.275 6.30469V3H211.359V12H210.363L210.311 11.3203C209.877 11.8516 209.273 12.1172 208.5 12.1172C207.766 12.1172 207.166 11.8164 206.701 11.2148C206.24 10.6133 206.01 9.82812 206.01 8.85938V8.77734ZM207.094 8.90039C207.094 9.61914 207.242 10.1816 207.539 10.5879C207.836 10.9941 208.246 11.1973 208.77 11.1973C209.457 11.1973 209.959 10.8887 210.275 10.2715V7.35938C209.951 6.76172 209.453 6.46289 208.781 6.46289C208.25 6.46289 207.836 6.66797 207.539 7.07812C207.242 7.48828 207.094 8.0957 207.094 8.90039ZM216.961 12C216.898 11.875 216.848 11.6523 216.809 11.332C216.305 11.8555 215.703 12.1172 215.004 12.1172C214.379 12.1172 213.865 11.9414 213.463 11.5898C213.064 11.2344 212.865 10.7852 212.865 10.2422C212.865 9.58203 213.115 9.07031 213.615 8.70703C214.119 8.33984 214.826 8.15625 215.736 8.15625H216.791V7.6582C216.791 7.2793 216.678 6.97852 216.451 6.75586C216.225 6.5293 215.891 6.41602 215.449 6.41602C215.062 6.41602 214.738 6.51367 214.477 6.70898C214.215 6.9043 214.084 7.14062 214.084 7.41797H212.994C212.994 7.10156 213.105 6.79688 213.328 6.50391C213.555 6.20703 213.859 5.97266 214.242 5.80078C214.629 5.62891 215.053 5.54297 215.514 5.54297C216.244 5.54297 216.816 5.72656 217.23 6.09375C217.645 6.45703 217.859 6.95898 217.875 7.59961V10.5176C217.875 11.0996 217.949 11.5625 218.098 11.9062V12H216.961ZM215.162 11.1738C215.502 11.1738 215.824 11.0859 216.129 10.9102C216.434 10.7344 216.654 10.5059 216.791 10.2246V8.92383H215.941C214.613 8.92383 213.949 9.3125 213.949 10.0898C213.949 10.4297 214.062 10.6953 214.289 10.8867C214.516 11.0781 214.807 11.1738 215.162 11.1738ZM221.555 10.4121L223.031 5.66016H224.191L221.643 12.9785C221.248 14.0332 220.621 14.5605 219.762 14.5605L219.557 14.543L219.152 14.4668V13.5879L219.445 13.6113C219.812 13.6113 220.098 13.5371 220.301 13.3887C220.508 13.2402 220.678 12.9688 220.811 12.5742L221.051 11.9297L218.789 5.66016H219.973L221.555 10.4121ZM228.855 10.3184C228.855 10.0254 228.744 9.79883 228.521 9.63867C228.303 9.47461 227.918 9.33398 227.367 9.2168C226.82 9.09961 226.385 8.95898 226.061 8.79492C225.74 8.63086 225.502 8.43555 225.346 8.20898C225.193 7.98242 225.117 7.71289 225.117 7.40039C225.117 6.88086 225.336 6.44141 225.773 6.08203C226.215 5.72266 226.777 5.54297 227.461 5.54297C228.18 5.54297 228.762 5.72852 229.207 6.09961C229.656 6.4707 229.881 6.94531 229.881 7.52344H228.791C228.791 7.22656 228.664 6.9707 228.41 6.75586C228.16 6.54102 227.844 6.43359 227.461 6.43359C227.066 6.43359 226.758 6.51953 226.535 6.69141C226.312 6.86328 226.201 7.08789 226.201 7.36523C226.201 7.62695 226.305 7.82422 226.512 7.95703C226.719 8.08984 227.092 8.2168 227.631 8.33789C228.174 8.45898 228.613 8.60352 228.949 8.77148C229.285 8.93945 229.533 9.14258 229.693 9.38086C229.857 9.61523 229.939 9.90234 229.939 10.2422C229.939 10.8086 229.713 11.2637 229.26 11.6074C228.807 11.9473 228.219 12.1172 227.496 12.1172C226.988 12.1172 226.539 12.0273 226.148 11.8477C225.758 11.668 225.451 11.418 225.229 11.0977C225.01 10.7734 224.9 10.4238 224.9 10.0488H225.984C226.004 10.4121 226.148 10.7012 226.418 10.916C226.691 11.127 227.051 11.2324 227.496 11.2324C227.906 11.2324 228.234 11.1504 228.48 10.9863C228.73 10.8184 228.855 10.5957 228.855 10.3184ZM190.998 28H189.914V19H190.998V28ZM196.652 28C196.59 27.875 196.539 27.6523 196.5 27.332C195.996 27.8555 195.395 28.1172 194.695 28.1172C194.07 28.1172 193.557 27.9414 193.154 27.5898C192.756 27.2344 192.557 26.7852 192.557 26.2422C192.557 25.582 192.807 25.0703 193.307 24.707C193.811 24.3398 194.518 24.1562 195.428 24.1562H196.482V23.6582C196.482 23.2793 196.369 22.9785 196.143 22.7559C195.916 22.5293 195.582 22.416 195.141 22.416C194.754 22.416 194.43 22.5137 194.168 22.709C193.906 22.9043 193.775 23.1406 193.775 23.418H192.686C192.686 23.1016 192.797 22.7969 193.02 22.5039C193.246 22.207 193.551 21.9727 193.934 21.8008C194.32 21.6289 194.744 21.543 195.205 21.543C195.936 21.543 196.508 21.7266 196.922 22.0938C197.336 22.457 197.551 22.959 197.566 23.5996V26.5176C197.566 27.0996 197.641 27.5625 197.789 27.9062V28H196.652ZM194.854 27.1738C195.193 27.1738 195.516 27.0859 195.82 26.9102C196.125 26.7344 196.346 26.5059 196.482 26.2246V24.9238H195.633C194.305 24.9238 193.641 25.3125 193.641 26.0898C193.641 26.4297 193.754 26.6953 193.98 26.8867C194.207 27.0781 194.498 27.1738 194.854 27.1738ZM200.736 20.125V21.6602H201.92V22.498H200.736V26.4297C200.736 26.6836 200.789 26.875 200.895 27.0039C201 27.1289 201.18 27.1914 201.434 27.1914C201.559 27.1914 201.73 27.168 201.949 27.1211V28C201.664 28.0781 201.387 28.1172 201.117 28.1172C200.633 28.1172 200.268 27.9707 200.021 27.6777C199.775 27.3848 199.652 26.9688 199.652 26.4297V22.498H198.498V21.6602H199.652V20.125H200.736ZM205.822 28.1172C204.963 28.1172 204.264 27.8359 203.725 27.2734C203.186 26.707 202.916 25.9512 202.916 25.0059V24.8066C202.916 24.1777 203.035 23.6172 203.273 23.125C203.516 22.6289 203.852 22.2422 204.281 21.9648C204.715 21.6836 205.184 21.543 205.688 21.543C206.512 21.543 207.152 21.8145 207.609 22.3574C208.066 22.9004 208.295 23.6777 208.295 24.6895V25.1406H204C204.016 25.7656 204.197 26.2715 204.545 26.6582C204.896 27.041 205.342 27.2324 205.881 27.2324C206.264 27.2324 206.588 27.1543 206.854 26.998C207.119 26.8418 207.352 26.6348 207.551 26.377L208.213 26.8926C207.682 27.709 206.885 28.1172 205.822 28.1172ZM205.688 22.4336C205.25 22.4336 204.883 22.5938 204.586 22.9141C204.289 23.2305 204.105 23.6758 204.035 24.25H207.211V24.168C207.18 23.6172 207.031 23.1914 206.766 22.8906C206.5 22.5859 206.141 22.4336 205.688 22.4336ZM212.619 22.6328C212.455 22.6055 212.277 22.5918 212.086 22.5918C211.375 22.5918 210.893 22.8945 210.639 23.5V28H209.555V21.6602H210.609L210.627 22.3926C210.982 21.8262 211.486 21.543 212.139 21.543C212.35 21.543 212.51 21.5703 212.619 21.625V22.6328Z" fill="#39352A"/>
<path d="M128.217 4.07812L124.684 12H123.547L127.068 4.35938H122.451V3.46875H128.217V4.07812ZM132.271 8.77734C132.271 7.80469 132.502 7.02344 132.963 6.43359C133.424 5.83984 134.027 5.54297 134.773 5.54297C135.516 5.54297 136.104 5.79688 136.537 6.30469V3H137.621V12H136.625L136.572 11.3203C136.139 11.8516 135.535 12.1172 134.762 12.1172C134.027 12.1172 133.428 11.8164 132.963 11.2148C132.502 10.6133 132.271 9.82812 132.271 8.85938V8.77734ZM133.355 8.90039C133.355 9.61914 133.504 10.1816 133.801 10.5879C134.098 10.9941 134.508 11.1973 135.031 11.1973C135.719 11.1973 136.221 10.8887 136.537 10.2715V7.35938C136.213 6.76172 135.715 6.46289 135.043 6.46289C134.512 6.46289 134.098 6.66797 133.801 7.07812C133.504 7.48828 133.355 8.0957 133.355 8.90039ZM143.223 12C143.16 11.875 143.109 11.6523 143.07 11.332C142.566 11.8555 141.965 12.1172 141.266 12.1172C140.641 12.1172 140.127 11.9414 139.725 11.5898C139.326 11.2344 139.127 10.7852 139.127 10.2422C139.127 9.58203 139.377 9.07031 139.877 8.70703C140.381 8.33984 141.088 8.15625 141.998 8.15625H143.053V7.6582C143.053 7.2793 142.939 6.97852 142.713 6.75586C142.486 6.5293 142.152 6.41602 141.711 6.41602C141.324 6.41602 141 6.51367 140.738 6.70898C140.477 6.9043 140.346 7.14062 140.346 7.41797H139.256C139.256 7.10156 139.367 6.79688 139.59 6.50391C139.816 6.20703 140.121 5.97266 140.504 5.80078C140.891 5.62891 141.314 5.54297 141.775 5.54297C142.506 5.54297 143.078 5.72656 143.492 6.09375C143.906 6.45703 144.121 6.95898 144.137 7.59961V10.5176C144.137 11.0996 144.211 11.5625 144.359 11.9062V12H143.223ZM141.424 11.1738C141.764 11.1738 142.086 11.0859 142.391 10.9102C142.695 10.7344 142.916 10.5059 143.053 10.2246V8.92383H142.203C140.875 8.92383 140.211 9.3125 140.211 10.0898C140.211 10.4297 140.324 10.6953 140.551 10.8867C140.777 11.0781 141.068 11.1738 141.424 11.1738ZM147.816 10.4121L149.293 5.66016H150.453L147.904 12.9785C147.51 14.0332 146.883 14.5605 146.023 14.5605L145.818 14.543L145.414 14.4668V13.5879L145.707 13.6113C146.074 13.6113 146.359 13.5371 146.562 13.3887C146.77 13.2402 146.939 12.9688 147.072 12.5742L147.312 11.9297L145.051 5.66016H146.234L147.816 10.4121ZM155.117 10.3184C155.117 10.0254 155.006 9.79883 154.783 9.63867C154.564 9.47461 154.18 9.33398 153.629 9.2168C153.082 9.09961 152.646 8.95898 152.322 8.79492C152.002 8.63086 151.764 8.43555 151.607 8.20898C151.455 7.98242 151.379 7.71289 151.379 7.40039C151.379 6.88086 151.598 6.44141 152.035 6.08203C152.477 5.72266 153.039 5.54297 153.723 5.54297C154.441 5.54297 155.023 5.72852 155.469 6.09961C155.918 6.4707 156.143 6.94531 156.143 7.52344H155.053C155.053 7.22656 154.926 6.9707 154.672 6.75586C154.422 6.54102 154.105 6.43359 153.723 6.43359C153.328 6.43359 153.02 6.51953 152.797 6.69141C152.574 6.86328 152.463 7.08789 152.463 7.36523C152.463 7.62695 152.566 7.82422 152.773 7.95703C152.98 8.08984 153.354 8.2168 153.893 8.33789C154.436 8.45898 154.875 8.60352 155.211 8.77148C155.547 8.93945 155.795 9.14258 155.955 9.38086C156.119 9.61523 156.201 9.90234 156.201 10.2422C156.201 10.8086 155.975 11.2637 155.521 11.6074C155.068 11.9473 154.48 12.1172 153.758 12.1172C153.25 12.1172 152.801 12.0273 152.41 11.8477C152.02 11.668 151.713 11.418 151.49 11.0977C151.271 10.7734 151.162 10.4238 151.162 10.0488H152.246C152.266 10.4121 152.41 10.7012 152.68 10.916C152.953 11.127 153.312 11.2324 153.758 11.2324C154.168 11.2324 154.496 11.1504 154.742 10.9863C154.992 10.8184 155.117 10.5957 155.117 10.3184ZM123.998 28H122.914V19H123.998V28ZM129.652 28C129.59 27.875 129.539 27.6523 129.5 27.332C128.996 27.8555 128.395 28.1172 127.695 28.1172C127.07 28.1172 126.557 27.9414 126.154 27.5898C125.756 27.2344 125.557 26.7852 125.557 26.2422C125.557 25.582 125.807 25.0703 126.307 24.707C126.811 24.3398 127.518 24.1562 128.428 24.1562H129.482V23.6582C129.482 23.2793 129.369 22.9785 129.143 22.7559C128.916 22.5293 128.582 22.416 128.141 22.416C127.754 22.416 127.43 22.5137 127.168 22.709C126.906 22.9043 126.775 23.1406 126.775 23.418H125.686C125.686 23.1016 125.797 22.7969 126.02 22.5039C126.246 22.207 126.551 21.9727 126.934 21.8008C127.32 21.6289 127.744 21.543 128.205 21.543C128.936 21.543 129.508 21.7266 129.922 22.0938C130.336 22.457 130.551 22.959 130.566 23.5996V26.5176C130.566 27.0996 130.641 27.5625 130.789 27.9062V28H129.652ZM127.854 27.1738C128.193 27.1738 128.516 27.0859 128.82 26.9102C129.125 26.7344 129.346 26.5059 129.482 26.2246V24.9238H128.633C127.305 24.9238 126.641 25.3125 126.641 26.0898C126.641 26.4297 126.754 26.6953 126.98 26.8867C127.207 27.0781 127.498 27.1738 127.854 27.1738ZM133.736 20.125V21.6602H134.92V22.498H133.736V26.4297C133.736 26.6836 133.789 26.875 133.895 27.0039C134 27.1289 134.18 27.1914 134.434 27.1914C134.559 27.1914 134.73 27.168 134.949 27.1211V28C134.664 28.0781 134.387 28.1172 134.117 28.1172C133.633 28.1172 133.268 27.9707 133.021 27.6777C132.775 27.3848 132.652 26.9688 132.652 26.4297V22.498H131.498V21.6602H132.652V20.125H133.736ZM138.822 28.1172C137.963 28.1172 137.264 27.8359 136.725 27.2734C136.186 26.707 135.916 25.9512 135.916 25.0059V24.8066C135.916 24.1777 136.035 23.6172 136.273 23.125C136.516 22.6289 136.852 22.2422 137.281 21.9648C137.715 21.6836 138.184 21.543 138.688 21.543C139.512 21.543 140.152 21.8145 140.609 22.3574C141.066 22.9004 141.295 23.6777 141.295 24.6895V25.1406H137C137.016 25.7656 137.197 26.2715 137.545 26.6582C137.896 27.041 138.342 27.2324 138.881 27.2324C139.264 27.2324 139.588 27.1543 139.854 26.998C140.119 26.8418 140.352 26.6348 140.551 26.377L141.213 26.8926C140.682 27.709 139.885 28.1172 138.822 28.1172ZM138.688 22.4336C138.25 22.4336 137.883 22.5938 137.586 22.9141C137.289 23.2305 137.105 23.6758 137.035 24.25H140.211V24.168C140.18 23.6172 140.031 23.1914 139.766 22.8906C139.5 22.5859 139.141 22.4336 138.688 22.4336ZM145.619 22.6328C145.455 22.6055 145.277 22.5918 145.086 22.5918C144.375 22.5918 143.893 22.8945 143.639 23.5V28H142.555V21.6602H143.609L143.627 22.3926C143.982 21.8262 144.486 21.543 145.139 21.543C145.35 21.543 145.51 21.5703 145.619 21.625V22.6328Z" fill="#39352A"/>
<path d="M62.5469 12H61.416L57.1211 5.42578V12H55.9902V3.46875H57.1211L61.4277 10.0723V3.46875H62.5469V12ZM64.0879 8.77148C64.0879 8.15039 64.209 7.5918 64.4512 7.0957C64.6973 6.59961 65.0371 6.2168 65.4707 5.94727C65.9082 5.67773 66.4062 5.54297 66.9648 5.54297C67.8281 5.54297 68.5254 5.8418 69.0566 6.43945C69.5918 7.03711 69.8594 7.83203 69.8594 8.82422V8.90039C69.8594 9.51758 69.7402 10.0723 69.502 10.5645C69.2676 11.0527 68.9297 11.4336 68.4883 11.707C68.0508 11.9805 67.5469 12.1172 66.9766 12.1172C66.1172 12.1172 65.4199 11.8184 64.8848 11.2207C64.3535 10.623 64.0879 9.83203 64.0879 8.84766V8.77148ZM65.1777 8.90039C65.1777 9.60352 65.3398 10.168 65.6641 10.5938C65.9922 11.0195 66.4297 11.2324 66.9766 11.2324C67.5273 11.2324 67.9648 11.0176 68.2891 10.5879C68.6133 10.1543 68.7754 9.54883 68.7754 8.77148C68.7754 8.07617 68.6094 7.51367 68.2773 7.08398C67.9492 6.65039 67.5117 6.43359 66.9648 6.43359C66.4297 6.43359 65.998 6.64648 65.6699 7.07227C65.3418 7.49805 65.1777 8.10742 65.1777 8.90039ZM76.832 10.5059L78.0508 5.66016H79.1348L77.2891 12H76.4102L74.8691 7.19531L73.3691 12H72.4902L70.6504 5.66016H71.7285L72.9766 10.4062L74.4531 5.66016H75.3262L76.832 10.5059Z" fill="#39352A"/>
</svg>
