<svg width="320" height="443" viewBox="0 0 320 443" fill="none" xmlns="http://www.w3.org/2000/svg">
<line x1="31" y1="419.5" x2="320" y2="419.5" stroke="#777777"/>
<line x1="31" y1="258.5" x2="320" y2="258.5" stroke="#CCCCCC"/>
<line x1="31" y1="98.5" x2="320" y2="98.5" stroke="#CCCCCC"/>
<path d="M35.3179 437C35.2539 437 35.1979 436.976 35.1499 436.928C35.1019 436.88 35.0779 436.824 35.0779 436.76L35.1019 436.628L38.0779 428.864C38.1419 428.688 38.2699 428.6 38.4619 428.6H39.2299C39.4219 428.6 39.5499 428.688 39.6139 428.864L42.5899 436.628L42.6139 436.76C42.6139 436.824 42.5859 436.88 42.5299 436.928C42.4819 436.976 42.4259 437 42.3619 437H41.7979C41.7179 437 41.6499 436.98 41.5939 436.94C41.5459 436.892 41.5139 436.844 41.4979 436.796L40.8259 435.068H36.8539L36.1939 436.796C36.1299 436.932 36.0299 437 35.8939 437H35.3179ZM37.2019 434.072H40.4899L38.8459 429.764L37.2019 434.072ZM45.9995 437.12C45.2395 437.12 44.6515 436.876 44.2355 436.388C43.8195 435.892 43.6115 435.236 43.6115 434.42V431.036C43.6115 430.956 43.6355 430.892 43.6835 430.844C43.7395 430.788 43.8075 430.76 43.8875 430.76H44.4395C44.5195 430.76 44.5835 430.788 44.6315 430.844C44.6875 430.892 44.7155 430.956 44.7155 431.036V434.36C44.7155 435.576 45.2435 436.184 46.2995 436.184C46.8115 436.184 47.2155 436.024 47.5115 435.704C47.8155 435.376 47.9675 434.928 47.9675 434.36V431.036C47.9675 430.956 47.9915 430.892 48.0395 430.844C48.0955 430.788 48.1635 430.76 48.2435 430.76H48.7955C48.8755 430.76 48.9395 430.788 48.9875 430.844C49.0435 430.892 49.0715 430.956 49.0715 431.036V436.724C49.0715 436.804 49.0435 436.872 48.9875 436.928C48.9395 436.976 48.8755 437 48.7955 437H48.2795C48.1995 437 48.1315 436.976 48.0755 436.928C48.0275 436.872 48.0035 436.804 48.0035 436.724V436.184C47.7715 436.496 47.4995 436.732 47.1875 436.892C46.8755 437.044 46.4795 437.12 45.9995 437.12ZM53.3988 439.64C52.7348 439.64 52.2028 439.528 51.8028 439.304C51.4028 439.08 51.1188 438.824 50.9508 438.536C50.7908 438.248 50.7108 438 50.7108 437.792C50.7108 437.72 50.7388 437.656 50.7948 437.6C50.8508 437.552 50.9148 437.528 50.9868 437.528H51.5148C51.5868 437.528 51.6468 437.544 51.6948 437.576C51.7428 437.616 51.7828 437.684 51.8148 437.78C52.0388 438.42 52.5468 438.74 53.3388 438.74C53.9388 438.74 54.3828 438.612 54.6708 438.356C54.9588 438.1 55.1028 437.648 55.1028 437V436.172C54.6388 436.764 53.9908 437.06 53.1588 437.06C52.3108 437.06 51.6748 436.788 51.2508 436.244C50.8348 435.7 50.6148 435.012 50.5908 434.18L50.5788 433.844L50.5908 433.52C50.6148 432.696 50.8348 432.012 51.2508 431.468C51.6748 430.916 52.3108 430.64 53.1588 430.64C53.9988 430.64 54.6548 430.948 55.1268 431.564V431.048C55.1268 430.968 55.1508 430.9 55.1988 430.844C55.2548 430.788 55.3228 430.76 55.4028 430.76H55.9188C55.9988 430.76 56.0628 430.788 56.1108 430.844C56.1668 430.9 56.1948 430.968 56.1948 431.048V436.868C56.1948 438.716 55.2628 439.64 53.3988 439.64ZM53.3748 436.124C53.9348 436.124 54.3548 435.944 54.6348 435.584C54.9228 435.216 55.0788 434.776 55.1028 434.264C55.1108 434.192 55.1148 434.052 55.1148 433.844C55.1148 433.644 55.1108 433.508 55.1028 433.436C55.0788 432.924 54.9228 432.488 54.6348 432.128C54.3548 431.76 53.9348 431.576 53.3748 431.576C52.7988 431.576 52.3788 431.76 52.1148 432.128C51.8588 432.488 51.7188 432.956 51.6948 433.532L51.6828 433.844L51.6948 434.168C51.7188 434.744 51.8588 435.216 52.1148 435.584C52.3788 435.944 52.7988 436.124 53.3748 436.124ZM63.3686 437C63.2886 437 63.2246 436.976 63.1766 436.928C63.1286 436.872 63.1046 436.804 63.1046 436.724V429.956L61.0886 431.504C61.0326 431.552 60.9726 431.576 60.9086 431.576C60.8366 431.576 60.7686 431.536 60.7046 431.456L60.4166 431.084C60.3766 431.028 60.3566 430.972 60.3566 430.916C60.3566 430.828 60.3966 430.756 60.4766 430.7L63.0806 428.684C63.1686 428.628 63.2726 428.6 63.3926 428.6H63.9566C64.0366 428.6 64.1006 428.628 64.1486 428.684C64.2046 428.732 64.2326 428.796 64.2326 428.876V436.724C64.2326 436.804 64.2046 436.872 64.1486 436.928C64.1006 436.976 64.0366 437 63.9566 437H63.3686ZM66.0183 437C65.9383 437 65.8703 436.976 65.8143 436.928C65.7663 436.872 65.7423 436.804 65.7423 436.724V436.364C65.7423 436.18 65.8423 436.004 66.0423 435.836L68.6583 433.232C69.2503 432.728 69.6583 432.316 69.8823 431.996C70.1063 431.676 70.2183 431.336 70.2183 430.976C70.2183 430.504 70.0863 430.136 69.8223 429.872C69.5583 429.6 69.1743 429.464 68.6703 429.464C68.1903 429.464 67.8103 429.604 67.5303 429.884C67.2503 430.164 67.0783 430.54 67.0143 431.012C66.9983 431.1 66.9583 431.168 66.8943 431.216C66.8303 431.264 66.7663 431.288 66.7023 431.288H66.1263C66.0543 431.288 65.9943 431.264 65.9463 431.216C65.8983 431.168 65.8743 431.112 65.8743 431.048C65.8903 430.624 66.0023 430.216 66.2103 429.824C66.4263 429.424 66.7423 429.1 67.1583 428.852C67.5743 428.596 68.0783 428.468 68.6703 428.468C69.5663 428.468 70.2383 428.704 70.6863 429.176C71.1423 429.64 71.3703 430.232 71.3703 430.952C71.3703 431.456 71.2463 431.912 70.9983 432.32C70.7583 432.72 70.3783 433.144 69.8583 433.592L67.4943 435.992H71.2743C71.3623 435.992 71.4303 436.016 71.4783 436.064C71.5263 436.112 71.5503 436.18 71.5503 436.268V436.724C71.5503 436.804 71.5223 436.872 71.4663 436.928C71.4183 436.976 71.3543 437 71.2743 437H66.0183Z" fill="#777777"/>
<path d="M92.7772 437C92.6972 437 92.6332 436.976 92.5852 436.928C92.5372 436.872 92.5132 436.804 92.5132 436.724V429.956L90.4972 431.504C90.4412 431.552 90.3812 431.576 90.3172 431.576C90.2452 431.576 90.1772 431.536 90.1132 431.456L89.8252 431.084C89.7852 431.028 89.7652 430.972 89.7652 430.916C89.7652 430.828 89.8052 430.756 89.8852 430.7L92.4892 428.684C92.5772 428.628 92.6812 428.6 92.8012 428.6H93.3652C93.4452 428.6 93.5092 428.628 93.5572 428.684C93.6132 428.732 93.6412 428.796 93.6412 428.876V436.724C93.6412 436.804 93.6132 436.872 93.5572 436.928C93.5092 436.976 93.4452 437 93.3652 437H92.7772ZM98.1148 437.12C97.4908 437.12 96.9508 437.02 96.4948 436.82C96.0388 436.612 95.6908 436.344 95.4508 436.016C95.2188 435.688 95.0948 435.348 95.0788 434.996C95.0788 434.924 95.1028 434.868 95.1508 434.828C95.1988 434.78 95.2588 434.756 95.3308 434.756H95.8708C95.9588 434.756 96.0308 434.776 96.0868 434.816C96.1428 434.848 96.1868 434.916 96.2188 435.02C96.3228 435.428 96.5468 435.716 96.8908 435.884C97.2428 436.052 97.6548 436.136 98.1268 436.136C98.7028 436.136 99.1588 436 99.4948 435.728C99.8388 435.448 100.011 435.052 100.011 434.54C100.011 433.564 99.4148 433.076 98.2228 433.076H97.0948C97.0148 433.076 96.9468 433.052 96.8908 433.004C96.8428 432.948 96.8188 432.88 96.8188 432.8V432.488C96.8188 432.368 96.8628 432.264 96.9508 432.176L99.2908 429.584H95.7388C95.6588 429.584 95.5908 429.56 95.5348 429.512C95.4868 429.464 95.4628 429.4 95.4628 429.32V428.888C95.4628 428.8 95.4868 428.732 95.5348 428.684C95.5908 428.628 95.6588 428.6 95.7388 428.6H100.491C100.579 428.6 100.647 428.628 100.695 428.684C100.751 428.732 100.779 428.8 100.779 428.888V429.284C100.779 429.372 100.739 429.464 100.659 429.56L98.3188 432.188H98.5108C99.3268 432.212 99.9708 432.424 100.443 432.824C100.923 433.224 101.163 433.808 101.163 434.576C101.163 435.104 101.031 435.56 100.767 435.944C100.511 436.32 100.151 436.612 99.6868 436.82C99.2228 437.02 98.6988 437.12 98.1148 437.12Z" fill="#777777"/>
<path d="M133.054 437C132.974 437 132.91 436.976 132.862 436.928C132.814 436.872 132.79 436.804 132.79 436.724V429.956L130.774 431.504C130.718 431.552 130.658 431.576 130.594 431.576C130.522 431.576 130.454 431.536 130.39 431.456L130.102 431.084C130.062 431.028 130.042 430.972 130.042 430.916C130.042 430.828 130.082 430.756 130.162 430.7L132.766 428.684C132.854 428.628 132.958 428.6 133.078 428.6H133.642C133.722 428.6 133.786 428.628 133.834 428.684C133.89 428.732 133.918 428.796 133.918 428.876V436.724C133.918 436.804 133.89 436.872 133.834 436.928C133.786 436.976 133.722 437 133.642 437H133.054ZM139.664 437C139.584 437 139.516 436.976 139.46 436.928C139.412 436.872 139.388 436.804 139.388 436.724V434.972H135.488C135.408 434.972 135.34 434.948 135.284 434.9C135.236 434.844 135.212 434.776 135.212 434.696V434.252C135.212 434.14 135.256 434.02 135.344 433.892L138.956 428.804C138.996 428.74 139.056 428.692 139.136 428.66C139.216 428.62 139.304 428.6 139.4 428.6H140.216C140.304 428.6 140.372 428.624 140.42 428.672C140.468 428.72 140.492 428.788 140.492 428.876V433.964H141.584C141.664 433.964 141.728 433.992 141.776 434.048C141.832 434.096 141.86 434.16 141.86 434.24V434.696C141.86 434.776 141.832 434.844 141.776 434.9C141.728 434.948 141.664 434.972 141.584 434.972H140.492V436.724C140.492 436.804 140.464 436.872 140.408 436.928C140.36 436.976 140.296 437 140.216 437H139.664ZM136.46 433.988H139.4V429.812L136.46 433.988Z" fill="#777777"/>
<path d="M172.314 437C172.234 437 172.166 436.972 172.11 436.916C172.054 436.86 172.026 436.792 172.026 436.712V430.52L170.214 431.912C170.166 431.952 170.106 431.972 170.034 431.972C169.938 431.972 169.862 431.932 169.806 431.852L169.29 431.18C169.25 431.124 169.23 431.068 169.23 431.012C169.23 430.916 169.274 430.836 169.362 430.772L172.05 428.684C172.138 428.628 172.238 428.6 172.35 428.6H173.43C173.51 428.6 173.578 428.628 173.634 428.684C173.69 428.74 173.718 428.808 173.718 428.888V436.712C173.718 436.792 173.69 436.86 173.634 436.916C173.578 436.972 173.51 437 173.43 437H172.314ZM178.241 437.132C177.577 437.132 177.001 437.02 176.513 436.796C176.033 436.572 175.669 436.276 175.421 435.908C175.173 435.54 175.041 435.144 175.025 434.72V434.696C175.025 434.632 175.049 434.58 175.097 434.54C175.153 434.492 175.213 434.468 175.277 434.468H176.417C176.601 434.468 176.717 434.548 176.765 434.708C176.877 435.06 177.061 435.32 177.317 435.488C177.581 435.656 177.889 435.74 178.241 435.74C178.689 435.74 179.057 435.604 179.345 435.332C179.641 435.06 179.789 434.684 179.789 434.204C179.789 433.772 179.641 433.424 179.345 433.16C179.057 432.888 178.689 432.752 178.241 432.752C178.001 432.752 177.805 432.784 177.653 432.848C177.501 432.912 177.353 433 177.209 433.112C177.193 433.12 177.157 433.144 177.101 433.184C177.045 433.224 176.993 433.252 176.945 433.268C176.905 433.284 176.861 433.292 176.813 433.292H175.685C175.613 433.292 175.549 433.268 175.493 433.22C175.445 433.164 175.421 433.1 175.421 433.028L175.829 428.936C175.837 428.832 175.873 428.752 175.937 428.696C176.009 428.632 176.093 428.6 176.189 428.6H180.701C180.789 428.6 180.857 428.628 180.905 428.684C180.961 428.732 180.989 428.8 180.989 428.888V429.704C180.989 429.784 180.961 429.852 180.905 429.908C180.857 429.964 180.789 429.992 180.701 429.992H177.233L177.041 431.936C177.225 431.816 177.437 431.72 177.677 431.648C177.917 431.568 178.229 431.528 178.613 431.528C179.133 431.528 179.613 431.64 180.053 431.864C180.501 432.08 180.857 432.396 181.121 432.812C181.393 433.22 181.529 433.696 181.529 434.24C181.529 434.824 181.393 435.336 181.121 435.776C180.849 436.208 180.465 436.544 179.969 436.784C179.473 437.016 178.897 437.132 178.241 437.132Z" fill="#AAAAAA"/>
<path d="M212.773 437C212.693 437 212.625 436.972 212.569 436.916C212.513 436.86 212.485 436.792 212.485 436.712V430.52L210.673 431.912C210.625 431.952 210.565 431.972 210.493 431.972C210.397 431.972 210.321 431.932 210.265 431.852L209.749 431.18C209.709 431.124 209.689 431.068 209.689 431.012C209.689 430.916 209.733 430.836 209.821 430.772L212.509 428.684C212.597 428.628 212.697 428.6 212.809 428.6H213.889C213.969 428.6 214.037 428.628 214.093 428.684C214.149 428.74 214.177 428.808 214.177 428.888V436.712C214.177 436.792 214.149 436.86 214.093 436.916C214.037 436.972 213.969 437 213.889 437H212.773ZM218.856 437.12C218.184 437.12 217.592 436.992 217.08 436.736C216.576 436.48 216.184 436.128 215.904 435.68C215.632 435.232 215.496 434.728 215.496 434.168C215.496 433.464 215.808 432.688 216.432 431.84L218.616 428.84C218.68 428.76 218.74 428.7 218.796 428.66C218.852 428.62 218.932 428.6 219.036 428.6H220.176C220.248 428.6 220.304 428.628 220.344 428.684C220.392 428.732 220.416 428.792 220.416 428.864C220.416 428.92 220.4 428.972 220.368 429.02L218.688 431.336C218.816 431.304 218.984 431.288 219.192 431.288C219.728 431.296 220.22 431.428 220.668 431.684C221.124 431.932 221.484 432.272 221.748 432.704C222.02 433.136 222.156 433.616 222.156 434.144C222.156 434.688 222.02 435.188 221.748 435.644C221.484 436.092 221.1 436.452 220.596 436.724C220.1 436.988 219.52 437.12 218.856 437.12ZM218.832 435.728C219.28 435.728 219.66 435.592 219.972 435.32C220.284 435.04 220.44 434.656 220.44 434.168C220.44 433.688 220.284 433.312 219.972 433.04C219.668 432.76 219.288 432.62 218.832 432.62C218.384 432.62 218.004 432.76 217.692 433.04C217.388 433.312 217.236 433.688 217.236 434.168C217.236 434.656 217.388 435.04 217.692 435.32C218.004 435.592 218.384 435.728 218.832 435.728Z" fill="#AAAAAA"/>
<path d="M254.205 437C254.125 437 254.061 436.976 254.013 436.928C253.965 436.872 253.941 436.804 253.941 436.724V429.956L251.925 431.504C251.869 431.552 251.809 431.576 251.745 431.576C251.673 431.576 251.605 431.536 251.541 431.456L251.253 431.084C251.213 431.028 251.193 430.972 251.193 430.916C251.193 430.828 251.233 430.756 251.313 430.7L253.917 428.684C254.005 428.628 254.109 428.6 254.229 428.6H254.793C254.873 428.6 254.937 428.628 254.985 428.684C255.041 428.732 255.069 428.796 255.069 428.876V436.724C255.069 436.804 255.041 436.872 254.985 436.928C254.937 436.976 254.873 437 254.793 437H254.205ZM257.79 437C257.718 437 257.658 436.976 257.61 436.928C257.57 436.872 257.55 436.808 257.55 436.736L257.574 436.628L260.574 429.608H256.614C256.534 429.608 256.466 429.584 256.41 429.536C256.362 429.48 256.338 429.412 256.338 429.332V428.888C256.338 428.8 256.362 428.732 256.41 428.684C256.458 428.628 256.526 428.6 256.614 428.6H261.51C261.598 428.6 261.666 428.628 261.714 428.684C261.762 428.732 261.786 428.8 261.786 428.888V429.296C261.786 429.44 261.754 429.596 261.69 429.764L258.726 436.7C258.686 436.788 258.642 436.86 258.594 436.916C258.546 436.972 258.478 437 258.39 437H257.79Z" fill="#777777"/>
<path d="M292.76 437C292.68 437 292.616 436.976 292.568 436.928C292.52 436.872 292.496 436.804 292.496 436.724V429.956L290.48 431.504C290.424 431.552 290.364 431.576 290.3 431.576C290.228 431.576 290.16 431.536 290.096 431.456L289.808 431.084C289.768 431.028 289.748 430.972 289.748 430.916C289.748 430.828 289.788 430.756 289.868 430.7L292.472 428.684C292.56 428.628 292.664 428.6 292.784 428.6H293.348C293.428 428.6 293.492 428.628 293.54 428.684C293.596 428.732 293.624 428.796 293.624 428.876V436.724C293.624 436.804 293.596 436.872 293.54 436.928C293.492 436.976 293.428 437 293.348 437H292.76ZM298.35 437.12C297.742 437.12 297.198 437.02 296.718 436.82C296.246 436.612 295.878 436.316 295.614 435.932C295.35 435.548 295.218 435.1 295.218 434.588C295.218 434.116 295.334 433.704 295.566 433.352C295.806 432.992 296.126 432.716 296.526 432.524C296.206 432.34 295.958 432.1 295.782 431.804C295.606 431.5 295.518 431.144 295.518 430.736C295.518 430.04 295.778 429.492 296.298 429.092C296.818 428.684 297.502 428.48 298.35 428.48C299.198 428.48 299.878 428.68 300.39 429.08C300.91 429.48 301.17 430.032 301.17 430.736C301.17 431.136 301.082 431.488 300.906 431.792C300.73 432.088 300.486 432.332 300.174 432.524C300.574 432.716 300.89 432.992 301.122 433.352C301.362 433.704 301.482 434.12 301.482 434.6C301.482 435.112 301.35 435.56 301.086 435.944C300.822 436.32 300.45 436.612 299.97 436.82C299.498 437.02 298.958 437.12 298.35 437.12ZM298.35 432.104C298.838 432.088 299.25 431.96 299.586 431.72C299.922 431.48 300.09 431.16 300.09 430.76C300.09 430.352 299.922 430.028 299.586 429.788C299.258 429.54 298.846 429.416 298.35 429.416C297.846 429.416 297.43 429.54 297.102 429.788C296.774 430.028 296.61 430.352 296.61 430.76C296.61 431.168 296.774 431.496 297.102 431.744C297.43 431.984 297.846 432.104 298.35 432.104ZM298.35 436.184C298.918 436.184 299.39 436.04 299.766 435.752C300.15 435.464 300.342 435.08 300.342 434.6C300.342 434.12 300.15 433.736 299.766 433.448C299.39 433.16 298.918 433.016 298.35 433.016C297.774 433.016 297.294 433.16 296.91 433.448C296.534 433.736 296.346 434.12 296.346 434.6C296.346 435.08 296.534 435.464 296.91 435.752C297.294 436.04 297.774 436.184 298.35 436.184Z" fill="#777777"/>
<path d="M20.1983 424.12C19.1663 424.12 18.4103 423.82 17.9303 423.22C17.4583 422.612 17.2063 421.82 17.1743 420.844L17.1623 419.812L17.1743 418.744C17.1983 417.776 17.4503 416.992 17.9303 416.392C18.4183 415.784 19.1743 415.48 20.1983 415.48C21.2303 415.48 21.9863 415.784 22.4662 416.392C22.9543 416.992 23.2103 417.776 23.2343 418.744C23.2423 418.968 23.2463 419.324 23.2463 419.812C23.2463 420.284 23.2423 420.628 23.2343 420.844C23.2023 421.82 22.9462 422.612 22.4662 423.22C21.9943 423.82 21.2383 424.12 20.1983 424.12ZM20.1983 423.124C20.8143 423.124 21.2783 422.92 21.5903 422.512C21.9023 422.104 22.0663 421.528 22.0823 420.784C22.0903 420.552 22.0943 420.22 22.0943 419.788C22.0943 419.348 22.0903 419.02 22.0823 418.804C22.0663 418.068 21.8983 417.496 21.5783 417.088C21.2663 416.672 20.8063 416.464 20.1983 416.464C19.5903 416.464 19.1303 416.672 18.8183 417.088C18.5063 417.496 18.3423 418.068 18.3263 418.804L18.3143 419.788L18.3263 420.784C18.3423 421.528 18.5063 422.104 18.8183 422.512C19.1303 422.92 19.5903 423.124 20.1983 423.124Z" fill="#777777"/>
<path d="M7.51903 262C7.43903 262 7.37503 261.976 7.32703 261.928C7.27903 261.872 7.25503 261.804 7.25503 261.724V254.956L5.23903 256.504C5.18303 256.552 5.12303 256.576 5.05903 256.576C4.98703 256.576 4.91903 256.536 4.85503 256.456L4.56703 256.084C4.52703 256.028 4.50703 255.972 4.50703 255.916C4.50703 255.828 4.54703 255.756 4.62703 255.7L7.23103 253.684C7.31903 253.628 7.42303 253.6 7.54303 253.6H8.10703C8.18703 253.6 8.25103 253.628 8.29903 253.684C8.35503 253.732 8.38303 253.796 8.38303 253.876V261.724C8.38303 261.804 8.35503 261.872 8.29903 261.928C8.25103 261.976 8.18703 262 8.10703 262H7.51903ZM12.7967 262.12C12.1967 262.12 11.6767 262.012 11.2367 261.796C10.7967 261.58 10.4607 261.3 10.2287 260.956C9.99669 260.604 9.87269 260.228 9.85669 259.828V259.804C9.85669 259.74 9.88069 259.688 9.92869 259.648C9.97669 259.608 10.0327 259.588 10.0967 259.588H10.6847C10.8527 259.588 10.9607 259.676 11.0087 259.852C11.1287 260.284 11.3487 260.608 11.6687 260.824C11.9967 261.032 12.3727 261.136 12.7967 261.136C13.3407 261.136 13.7927 260.972 14.1527 260.644C14.5127 260.308 14.6927 259.848 14.6927 259.264C14.6927 258.728 14.5127 258.304 14.1527 257.992C13.7927 257.672 13.3407 257.512 12.7967 257.512C12.5087 257.512 12.2767 257.548 12.1007 257.62C11.9247 257.692 11.7447 257.796 11.5607 257.932C11.4567 258.012 11.3687 258.072 11.2967 258.112C11.2327 258.144 11.1607 258.16 11.0807 258.16H10.5047C10.4327 258.16 10.3687 258.136 10.3127 258.088C10.2567 258.032 10.2327 257.968 10.2407 257.896L10.6127 253.9C10.6367 253.7 10.7367 253.6 10.9127 253.6H15.0647C15.1527 253.6 15.2207 253.624 15.2687 253.672C15.3167 253.72 15.3407 253.788 15.3407 253.876V254.32C15.3407 254.4 15.3127 254.464 15.2567 254.512C15.2087 254.56 15.1447 254.584 15.0647 254.584H11.6087L11.3927 256.996C11.7767 256.724 12.2927 256.588 12.9407 256.588C13.4767 256.588 13.9647 256.696 14.4047 256.912C14.8447 257.12 15.1927 257.428 15.4487 257.836C15.7127 258.244 15.8447 258.728 15.8447 259.288C15.8447 259.88 15.7127 260.392 15.4487 260.824C15.1927 261.248 14.8327 261.572 14.3687 261.796C13.9127 262.012 13.3887 262.12 12.7967 262.12ZM20.1983 262.12C19.1663 262.12 18.4103 261.82 17.9303 261.22C17.4583 260.612 17.2063 259.82 17.1743 258.844L17.1623 257.812L17.1743 256.744C17.1983 255.776 17.4503 254.992 17.9303 254.392C18.4183 253.784 19.1743 253.48 20.1983 253.48C21.2303 253.48 21.9863 253.784 22.4662 254.392C22.9543 254.992 23.2103 255.776 23.2343 256.744C23.2423 256.968 23.2463 257.324 23.2463 257.812C23.2463 258.284 23.2423 258.628 23.2343 258.844C23.2023 259.82 22.9462 260.612 22.4662 261.22C21.9943 261.82 21.2383 262.12 20.1983 262.12ZM20.1983 261.124C20.8143 261.124 21.2783 260.92 21.5903 260.512C21.9023 260.104 22.0663 259.528 22.0823 258.784C22.0903 258.552 22.0943 258.22 22.0943 257.788C22.0943 257.348 22.0903 257.02 22.0823 256.804C22.0663 256.068 21.8983 255.496 21.5783 255.088C21.2663 254.672 20.8063 254.464 20.1983 254.464C19.5903 254.464 19.1303 254.672 18.8183 255.088C18.5063 255.496 18.3423 256.068 18.3263 256.804L18.3143 257.788L18.3263 258.784C18.3423 259.528 18.5063 260.104 18.8183 260.512C19.1303 260.92 19.5903 261.124 20.1983 261.124Z" fill="#777777"/>
<path d="M5.19263 102.12C4.56863 102.12 4.02863 102.02 3.57263 101.82C3.11663 101.612 2.76863 101.344 2.52863 101.016C2.29663 100.688 2.17263 100.348 2.15663 99.996C2.15663 99.924 2.18063 99.868 2.22863 99.828C2.27663 99.78 2.33663 99.756 2.40863 99.756H2.94863C3.03663 99.756 3.10863 99.776 3.16463 99.816C3.22063 99.848 3.26463 99.916 3.29663 100.02C3.40063 100.428 3.62463 100.716 3.96863 100.884C4.32063 101.052 4.73263 101.136 5.20463 101.136C5.78063 101.136 6.23663 101 6.57263 100.728C6.91663 100.448 7.08863 100.052 7.08863 99.54C7.08863 98.564 6.49263 98.076 5.30063 98.076H4.17263C4.09263 98.076 4.02463 98.052 3.96863 98.004C3.92063 97.948 3.89663 97.88 3.89663 97.8V97.488C3.89663 97.368 3.94063 97.264 4.02863 97.176L6.36863 94.584H2.81663C2.73663 94.584 2.66863 94.56 2.61263 94.512C2.56463 94.464 2.54063 94.4 2.54063 94.32V93.888C2.54063 93.8 2.56463 93.732 2.61263 93.684C2.66863 93.628 2.73663 93.6 2.81663 93.6H7.56863C7.65663 93.6 7.72463 93.628 7.77263 93.684C7.82863 93.732 7.85663 93.8 7.85663 93.888V94.284C7.85663 94.372 7.81663 94.464 7.73663 94.56L5.39663 97.188H5.58863C6.40463 97.212 7.04863 97.424 7.52063 97.824C8.00063 98.224 8.24063 98.808 8.24063 99.576C8.24063 100.104 8.10863 100.56 7.84463 100.944C7.58863 101.32 7.22863 101.612 6.76463 101.82C6.30063 102.02 5.77663 102.12 5.19263 102.12ZM12.6045 102.12C11.5725 102.12 10.8165 101.82 10.3365 101.22C9.8645 100.612 9.6125 99.82 9.5805 98.844L9.5685 97.812L9.5805 96.744C9.6045 95.776 9.8565 94.992 10.3365 94.392C10.8245 93.784 11.5805 93.48 12.6045 93.48C13.6365 93.48 14.3925 93.784 14.8725 94.392C15.3605 94.992 15.6165 95.776 15.6405 96.744C15.6485 96.968 15.6525 97.324 15.6525 97.812C15.6525 98.284 15.6485 98.628 15.6405 98.844C15.6085 99.82 15.3525 100.612 14.8725 101.22C14.4005 101.82 13.6445 102.12 12.6045 102.12ZM12.6045 101.124C13.2205 101.124 13.6845 100.92 13.9965 100.512C14.3085 100.104 14.4725 99.528 14.4885 98.784C14.4965 98.552 14.5005 98.22 14.5005 97.788C14.5005 97.348 14.4965 97.02 14.4885 96.804C14.4725 96.068 14.3045 95.496 13.9845 95.088C13.6725 94.672 13.2125 94.464 12.6045 94.464C11.9965 94.464 11.5365 94.672 11.2245 95.088C10.9125 95.496 10.7485 96.068 10.7325 96.804L10.7205 97.788L10.7325 98.784C10.7485 99.528 10.9125 100.104 11.2245 100.512C11.5365 100.92 11.9965 101.124 12.6045 101.124ZM20.1983 102.12C19.1663 102.12 18.4103 101.82 17.9303 101.22C17.4583 100.612 17.2063 99.82 17.1743 98.844L17.1623 97.812L17.1743 96.744C17.1983 95.776 17.4503 94.992 17.9303 94.392C18.4183 93.784 19.1743 93.48 20.1983 93.48C21.2303 93.48 21.9863 93.784 22.4662 94.392C22.9543 94.992 23.2103 95.776 23.2343 96.744C23.2423 96.968 23.2463 97.324 23.2463 97.812C23.2463 98.284 23.2423 98.628 23.2343 98.844C23.2023 99.82 22.9462 100.612 22.4662 101.22C21.9943 101.82 21.2383 102.12 20.1983 102.12ZM20.1983 101.124C20.8143 101.124 21.2783 100.92 21.5903 100.512C21.9023 100.104 22.0663 99.528 22.0823 98.784C22.0903 98.552 22.0943 98.22 22.0943 97.788C22.0943 97.348 22.0903 97.02 22.0823 96.804C22.0663 96.068 21.8983 95.496 21.5783 95.088C21.2663 94.672 20.8063 94.464 20.1983 94.464C19.5903 94.464 19.1303 94.672 18.8183 95.088C18.5063 95.496 18.3423 96.068 18.3263 96.804L18.3143 97.788L18.3263 98.784C18.3423 99.528 18.5063 100.104 18.8183 100.512C19.1303 100.92 19.5903 101.124 20.1983 101.124Z" fill="#777777"/>
<rect x="278.993" y="114" width="32.0072" height="306" fill="#19A974"/>
<rect x="278.993" y="288" width="32.0072" height="132" fill="#137752"/>
<rect x="239.304" width="32.0072" height="420" fill="#19A974"/>
<rect x="239.304" y="228" width="32.0072" height="192" fill="#137752"/>
<rect x="199.615" y="280" width="32.0072" height="140" fill="#9EEBCF"/>
<rect x="199.615" y="370.861" width="32.0072" height="49.1391" fill="#19A974"/>
<rect x="159.926" y="192" width="32.0072" height="228" fill="#9EEBCF"/>
<rect x="159.926" y="390" width="32.0072" height="30" fill="#19A974"/>
<rect x="120.237" y="27" width="32.0072" height="393" fill="#19A974"/>
<rect x="120.237" y="324" width="32.0072" height="96" fill="#137752"/>
<rect x="80.5483" y="70" width="32.0072" height="350" fill="#19A974"/>
<rect x="80.5483" y="280" width="32.0072" height="140" fill="#137752"/>
<rect x="40.8596" y="192" width="32.0072" height="228" fill="#19A974"/>
<rect x="40.8596" y="350" width="32.0072" height="70" fill="#137752"/>
</svg>
