<svg width="320" height="443" viewBox="0 0 320 443" fill="none" xmlns="http://www.w3.org/2000/svg">
<line x1="31" y1="419.5" x2="320" y2="419.5" stroke="#777777"/>
<line x1="31" y1="258.5" x2="320" y2="258.5" stroke="#EEEEEE"/>
<line x1="31" y1="98.5" x2="320" y2="98.5" stroke="#EEEEEE"/>
<path d="M42.5967 434.145H39.6182L38.9492 436H37.9824L40.6973 428.891H41.5176L44.2373 436H43.2754L42.5967 434.145ZM39.9014 433.373H42.3184L41.1074 430.048L39.9014 433.373ZM48.2559 435.478C47.9043 435.891 47.3883 436.098 46.708 436.098C46.1449 436.098 45.7152 435.935 45.4189 435.609C45.126 435.281 44.9779 434.796 44.9746 434.154V430.717H45.8779V434.13C45.8779 434.931 46.2035 435.331 46.8545 435.331C47.5446 435.331 48.0036 435.074 48.2314 434.56V430.717H49.1348V436H48.2754L48.2559 435.478ZM50.2969 433.314C50.2969 432.491 50.4873 431.837 50.8682 431.352C51.249 430.863 51.7536 430.619 52.3818 430.619C53.0264 430.619 53.5293 430.847 53.8906 431.303L53.9346 430.717H54.7598V435.873C54.7598 436.557 54.5563 437.095 54.1494 437.489C53.7458 437.883 53.2021 438.08 52.5186 438.08C52.1377 438.08 51.765 437.999 51.4004 437.836C51.0358 437.673 50.7575 437.45 50.5654 437.167L51.0342 436.625C51.4215 437.104 51.8952 437.343 52.4551 437.343C52.8945 437.343 53.2363 437.219 53.4805 436.972C53.7279 436.724 53.8516 436.376 53.8516 435.927V435.473C53.4902 435.889 52.9971 436.098 52.3721 436.098C51.7536 436.098 51.2523 435.849 50.8682 435.351C50.4873 434.853 50.2969 434.174 50.2969 433.314ZM51.2051 433.417C51.2051 434.013 51.3271 434.481 51.5713 434.823C51.8154 435.162 52.1572 435.331 52.5967 435.331C53.1663 435.331 53.5846 435.072 53.8516 434.555V432.143C53.5749 431.638 53.1598 431.386 52.6064 431.386C52.167 431.386 51.8236 431.557 51.5762 431.898C51.3288 432.24 51.2051 432.746 51.2051 433.417ZM61.4834 436H60.5752V429.979L58.7539 430.648V429.828L61.3418 428.856H61.4834V436ZM68.7881 436H64.1299V435.351L66.5908 432.616C66.9554 432.203 67.2061 431.868 67.3428 431.61C67.4827 431.35 67.5527 431.081 67.5527 430.805C67.5527 430.434 67.4404 430.129 67.2158 429.892C66.9912 429.654 66.6917 429.535 66.3174 429.535C65.8682 429.535 65.5182 429.664 65.2676 429.921C65.0202 430.175 64.8965 430.53 64.8965 430.985H63.9932C63.9932 430.331 64.2031 429.802 64.623 429.398C65.0462 428.995 65.611 428.793 66.3174 428.793C66.9782 428.793 67.5007 428.967 67.8848 429.315C68.2689 429.66 68.4609 430.121 68.4609 430.697C68.4609 431.397 68.015 432.23 67.123 433.197L65.2188 435.263H68.7881V436Z" fill="#39352A"/>
<path d="M95.4443 436H94.5361V429.979L92.7148 430.648V429.828L95.3027 428.856H95.4443V436ZM99.4043 432.006H100.083C100.509 431.999 100.845 431.887 101.089 431.669C101.333 431.451 101.455 431.156 101.455 430.785C101.455 429.952 101.04 429.535 100.21 429.535C99.8193 429.535 99.5068 429.647 99.2725 429.872C99.0413 430.093 98.9258 430.388 98.9258 430.756H98.0225C98.0225 430.193 98.2275 429.726 98.6377 429.354C99.0511 428.98 99.5752 428.793 100.21 428.793C100.881 428.793 101.406 428.97 101.787 429.325C102.168 429.68 102.358 430.173 102.358 430.805C102.358 431.114 102.257 431.413 102.056 431.703C101.857 431.993 101.585 432.209 101.24 432.353C101.631 432.476 101.932 432.681 102.144 432.968C102.358 433.254 102.466 433.604 102.466 434.018C102.466 434.656 102.257 435.162 101.841 435.536C101.424 435.91 100.882 436.098 100.215 436.098C99.5475 436.098 99.0039 435.917 98.584 435.556C98.1673 435.194 97.959 434.717 97.959 434.125H98.8672C98.8672 434.499 98.9893 434.799 99.2334 435.023C99.4775 435.248 99.8047 435.36 100.215 435.36C100.651 435.36 100.985 435.246 101.216 435.019C101.447 434.791 101.562 434.464 101.562 434.037C101.562 433.624 101.436 433.306 101.182 433.085C100.928 432.864 100.562 432.75 100.083 432.743H99.4043V432.006Z" fill="#39352A"/>
<path d="M133.944 436H133.036V429.979L131.215 430.648V429.828L133.803 428.856H133.944V436ZM140.404 433.612H141.391V434.35H140.404V436H139.496V434.35H136.259V433.817L139.442 428.891H140.404V433.612ZM137.284 433.612H139.496V430.126L139.389 430.321L137.284 433.612Z" fill="#39352A"/>
<path d="M172.441 437H171.375L172.629 429.805L170.361 430.602L170.543 429.57L173.707 428.428H173.895L172.441 437ZM176.783 432.705L177.867 428.469H182.121L181.963 429.471H178.623L177.967 431.803C178.396 431.549 178.861 431.426 179.361 431.434C180.068 431.441 180.611 431.709 180.99 432.236C181.369 432.76 181.523 433.428 181.453 434.24C181.379 435.115 181.068 435.818 180.521 436.35C179.975 436.881 179.293 437.139 178.477 437.123C177.797 437.115 177.248 436.896 176.83 436.467C176.412 436.037 176.191 435.465 176.168 434.75H177.158C177.186 435.219 177.318 435.582 177.557 435.84C177.795 436.098 178.117 436.23 178.523 436.238C179.023 436.254 179.443 436.076 179.783 435.705C180.127 435.334 180.33 434.848 180.393 434.246C180.447 433.719 180.355 433.285 180.117 432.945C179.879 432.602 179.529 432.422 179.068 432.406C178.783 432.398 178.529 432.441 178.307 432.535C178.088 432.629 177.869 432.764 177.65 432.939L176.783 432.705Z" fill="#777777"/>
<path d="M212.941 437H211.875L213.129 429.805L210.861 430.602L211.043 429.57L214.207 428.428H214.395L212.941 437ZM221.596 428.457L221.502 429.377H221.297C220.516 429.393 219.848 429.635 219.293 430.104C218.738 430.572 218.309 431.264 218.004 432.178C218.535 431.646 219.156 431.389 219.867 431.404C220.316 431.412 220.701 431.537 221.021 431.779C221.342 432.018 221.576 432.35 221.725 432.775C221.877 433.197 221.93 433.664 221.883 434.176C221.805 435.039 221.494 435.752 220.951 436.314C220.412 436.873 219.748 437.141 218.959 437.117C218.326 437.102 217.807 436.869 217.4 436.42C216.994 435.971 216.762 435.369 216.703 434.615C216.672 434.205 216.721 433.65 216.85 432.951C217.119 431.494 217.65 430.381 218.443 429.611C219.24 428.842 220.252 428.457 221.479 428.457H221.596ZM219.639 432.301C219.26 432.293 218.904 432.402 218.572 432.629C218.24 432.855 217.984 433.145 217.805 433.496L217.764 433.889L217.752 434.363C217.752 434.684 217.801 434.994 217.898 435.295C217.996 435.596 218.141 435.824 218.332 435.98C218.523 436.137 218.748 436.217 219.006 436.221C219.479 436.24 219.883 436.064 220.219 435.693C220.559 435.322 220.762 434.834 220.828 434.229C220.867 433.877 220.846 433.555 220.764 433.262C220.682 432.969 220.545 432.738 220.354 432.57C220.166 432.398 219.928 432.309 219.639 432.301Z" fill="#777777"/>
<path d="M254.444 436H253.536V429.979L251.715 430.648V429.828L254.303 428.856H254.444V436ZM261.681 429.398L258.736 436H257.789L260.724 429.633H256.876V428.891H261.681V429.398Z" fill="#39352A"/>
<path d="M293.744 436H292.836V429.979L291.015 430.648V429.828L293.603 428.856H293.744V436ZM300.702 430.746C300.702 431.101 300.608 431.417 300.419 431.693C300.234 431.97 299.981 432.187 299.662 432.343C300.033 432.502 300.326 432.735 300.541 433.041C300.759 433.347 300.868 433.694 300.868 434.081C300.868 434.696 300.66 435.186 300.243 435.551C299.83 435.915 299.285 436.098 298.608 436.098C297.924 436.098 297.376 435.915 296.962 435.551C296.552 435.183 296.347 434.693 296.347 434.081C296.347 433.697 296.451 433.35 296.659 433.041C296.871 432.732 297.162 432.497 297.533 432.338C297.218 432.182 296.969 431.965 296.786 431.688C296.604 431.412 296.513 431.098 296.513 430.746C296.513 430.147 296.705 429.672 297.089 429.32C297.473 428.969 297.979 428.793 298.608 428.793C299.233 428.793 299.737 428.969 300.121 429.32C300.509 429.672 300.702 430.147 300.702 430.746ZM299.965 434.062C299.965 433.664 299.838 433.34 299.584 433.09C299.334 432.839 299.005 432.714 298.598 432.714C298.191 432.714 297.864 432.838 297.616 433.085C297.372 433.332 297.25 433.658 297.25 434.062C297.25 434.465 297.369 434.783 297.607 435.014C297.848 435.245 298.181 435.36 298.608 435.36C299.031 435.36 299.363 435.245 299.604 435.014C299.845 434.779 299.965 434.462 299.965 434.062ZM298.608 429.535C298.253 429.535 297.965 429.646 297.743 429.867C297.525 430.085 297.416 430.383 297.416 430.761C297.416 431.122 297.524 431.415 297.738 431.64C297.957 431.861 298.246 431.972 298.608 431.972C298.969 431.972 299.257 431.861 299.472 431.64C299.69 431.415 299.799 431.122 299.799 430.761C299.799 430.399 299.687 430.105 299.462 429.877C299.237 429.649 298.953 429.535 298.608 429.535Z" fill="#39352A"/>
<path d="M23.4336 419.968C23.4336 421.026 23.2529 421.812 22.8916 422.326C22.5303 422.84 21.9655 423.098 21.1973 423.098C20.4388 423.098 19.8773 422.847 19.5127 422.346C19.1481 421.841 18.9593 421.089 18.9463 420.09V418.884C18.9463 417.839 19.127 417.062 19.4883 416.555C19.8496 416.047 20.416 415.793 21.1875 415.793C21.9525 415.793 22.5156 416.039 22.877 416.53C23.2383 417.019 23.4238 417.774 23.4336 418.796V419.968ZM22.5303 418.732C22.5303 417.967 22.4229 417.411 22.208 417.062C21.9932 416.711 21.653 416.535 21.1875 416.535C20.7253 416.535 20.3883 416.709 20.1768 417.058C19.9652 417.406 19.8561 417.941 19.8496 418.664V420.109C19.8496 420.878 19.9603 421.446 20.1816 421.813C20.4062 422.178 20.7448 422.36 21.1973 422.36C21.6432 422.36 21.9736 422.188 22.1885 421.843C22.4066 421.498 22.5205 420.954 22.5303 420.212V418.732Z" fill="#39352A"/>
<path d="M5.24902 261H0.59082V260.351L3.05176 257.616C3.41634 257.203 3.66699 256.868 3.80371 256.61C3.94368 256.35 4.01367 256.081 4.01367 255.805C4.01367 255.434 3.90137 255.129 3.67676 254.892C3.45215 254.654 3.15267 254.535 2.77832 254.535C2.3291 254.535 1.97917 254.664 1.72852 254.921C1.48112 255.175 1.35742 255.53 1.35742 255.985H0.454102C0.454102 255.331 0.664062 254.802 1.08398 254.398C1.50716 253.995 2.07194 253.793 2.77832 253.793C3.43913 253.793 3.96159 253.967 4.3457 254.315C4.72982 254.66 4.92188 255.121 4.92188 255.697C4.92188 256.397 4.47591 257.23 3.58398 258.197L1.67969 260.263H5.24902V261ZM6.62109 257.436L6.98242 253.891H10.625V254.726H7.74902L7.53418 256.664C7.88249 256.459 8.27799 256.356 8.7207 256.356C9.36849 256.356 9.88281 256.571 10.2637 257.001C10.6445 257.427 10.835 258.005 10.835 258.734C10.835 259.467 10.6364 260.045 10.2393 260.468C9.84538 260.888 9.29362 261.098 8.58398 261.098C7.95573 261.098 7.44303 260.924 7.0459 260.575C6.64876 260.227 6.42253 259.745 6.36719 259.13H7.22168C7.27702 259.537 7.42188 259.844 7.65625 260.053C7.89062 260.258 8.19987 260.36 8.58398 260.36C9.00391 260.36 9.33268 260.217 9.57031 259.931C9.8112 259.644 9.93164 259.249 9.93164 258.744C9.93164 258.269 9.80143 257.888 9.54102 257.602C9.28385 257.312 8.94043 257.167 8.51074 257.167C8.11686 257.167 7.80762 257.253 7.58301 257.426L7.34375 257.621L6.62109 257.436ZM16.2793 257.968C16.2793 259.026 16.0986 259.812 15.7373 260.326C15.376 260.84 14.8112 261.098 14.043 261.098C13.2845 261.098 12.723 260.847 12.3584 260.346C11.9938 259.841 11.805 259.089 11.792 258.09V256.884C11.792 255.839 11.9727 255.062 12.334 254.555C12.6953 254.047 13.2617 253.793 14.0332 253.793C14.7982 253.793 15.3613 254.039 15.7227 254.53C16.084 255.019 16.2695 255.774 16.2793 256.796V257.968ZM15.376 256.732C15.376 255.967 15.2686 255.411 15.0537 255.062C14.8389 254.711 14.4987 254.535 14.0332 254.535C13.571 254.535 13.234 254.709 13.0225 255.058C12.8109 255.406 12.7018 255.941 12.6953 256.664V258.109C12.6953 258.878 12.806 259.446 13.0273 259.813C13.252 260.178 13.5905 260.36 14.043 260.36C14.4889 260.36 14.8193 260.188 15.0342 259.843C15.2523 259.498 15.3662 258.954 15.376 258.212V256.732Z" fill="#39352A"/>
<path d="M1.00586 97.4355L1.36719 93.8906H5.00977V94.7256H2.13379L1.91895 96.6641C2.26725 96.459 2.66276 96.3564 3.10547 96.3564C3.75326 96.3564 4.26758 96.5713 4.64844 97.001C5.0293 97.4274 5.21973 98.0052 5.21973 98.7344C5.21973 99.4668 5.02116 100.045 4.62402 100.468C4.23014 100.888 3.67839 101.098 2.96875 101.098C2.34049 101.098 1.8278 100.924 1.43066 100.575C1.03353 100.227 0.807292 99.7451 0.751953 99.1299H1.60645C1.66178 99.5368 1.80664 99.8444 2.04102 100.053C2.27539 100.258 2.58464 100.36 2.96875 100.36C3.38867 100.36 3.71745 100.217 3.95508 99.9307C4.19596 99.6442 4.31641 99.2487 4.31641 98.7441C4.31641 98.2689 4.1862 97.888 3.92578 97.6016C3.66862 97.3118 3.3252 97.167 2.89551 97.167C2.50163 97.167 2.19238 97.2533 1.96777 97.4258L1.72852 97.6211L1.00586 97.4355ZM10.6641 97.9678C10.6641 99.0257 10.4834 99.8118 10.1221 100.326C9.76074 100.84 9.19596 101.098 8.42773 101.098C7.66927 101.098 7.10775 100.847 6.74316 100.346C6.37858 99.8411 6.18978 99.0892 6.17676 98.0898V96.8838C6.17676 95.8389 6.35742 95.0625 6.71875 94.5547C7.08008 94.0469 7.64648 93.793 8.41797 93.793C9.18294 93.793 9.74609 94.0387 10.1074 94.5303C10.4688 95.0186 10.6543 95.7738 10.6641 96.7959V97.9678ZM9.76074 96.7324C9.76074 95.9674 9.65332 95.4108 9.43848 95.0625C9.22363 94.7109 8.88346 94.5352 8.41797 94.5352C7.95573 94.5352 7.61882 94.7093 7.40723 95.0576C7.19564 95.4059 7.08659 95.9414 7.08008 96.6641V98.1094C7.08008 98.8776 7.19076 99.4456 7.41211 99.8135C7.63672 100.178 7.97526 100.36 8.42773 100.36C8.8737 100.36 9.2041 100.188 9.41895 99.8428C9.63704 99.4977 9.75098 98.9541 9.76074 98.2119V96.7324ZM16.2793 97.9678C16.2793 99.0257 16.0986 99.8118 15.7373 100.326C15.376 100.84 14.8112 101.098 14.043 101.098C13.2845 101.098 12.723 100.847 12.3584 100.346C11.9938 99.8411 11.805 99.0892 11.792 98.0898V96.8838C11.792 95.8389 11.9727 95.0625 12.334 94.5547C12.6953 94.0469 13.2617 93.793 14.0332 93.793C14.7982 93.793 15.3613 94.0387 15.7227 94.5303C16.084 95.0186 16.2695 95.7738 16.2793 96.7959V97.9678ZM15.376 96.7324C15.376 95.9674 15.2686 95.4108 15.0537 95.0625C14.8389 94.7109 14.4987 94.5352 14.0332 94.5352C13.571 94.5352 13.234 94.7093 13.0225 95.0576C12.8109 95.4059 12.7018 95.9414 12.6953 96.6641V98.1094C12.6953 98.8776 12.806 99.4456 13.0273 99.8135C13.252 100.178 13.5905 100.36 14.043 100.36C14.4889 100.36 14.8193 100.188 15.0342 99.8428C15.2523 99.4977 15.3662 98.9541 15.376 98.2119V96.7324Z" fill="#39352A"/>
<rect x="278.993" y="114" width="32.0072" height="306" fill="#19A974"/>
<rect x="279" y="357" width="32" height="63" fill="#137752"/>
<rect x="239.304" width="32.0072" height="420" fill="#19A974"/>
<rect x="239" y="248" width="32" height="172" fill="#137752"/>
<rect x="199.615" y="280" width="32.0072" height="140" fill="#19A974"/>
<rect x="200" y="376" width="32" height="44" fill="#137752"/>
<rect x="159.926" y="192" width="32.0072" height="228" fill="#19A974"/>
<rect x="160" y="393" width="32" height="27" fill="#137752"/>
<rect x="120.237" y="27" width="32.0072" height="393" fill="#19A974"/>
<rect x="120" y="335" width="32" height="85" fill="#137752"/>
<rect x="80.5483" y="70" width="32.0072" height="350" fill="#19A974"/>
<rect x="81" y="294" width="32" height="126" fill="#137752"/>
<rect x="40.8596" y="192" width="32.0072" height="228" fill="#19A974"/>
<rect x="41" y="384" width="32" height="36" fill="#137752"/>
</svg>
