<svg width="320" height="444" viewBox="0 0 320 444" fill="none" xmlns="http://www.w3.org/2000/svg">
<line x1="31" y1="419.5" x2="320" y2="419.5" stroke="#777777"/>
<line x1="31" y1="258.5" x2="320" y2="258.5" stroke="#CCCCCC"/>
<line x1="31" y1="98.5" x2="320" y2="98.5" stroke="#CCCCCC"/>
<path d="M35.3179 437C35.2539 437 35.1979 436.976 35.1499 436.928C35.1019 436.88 35.0779 436.824 35.0779 436.76L35.1019 436.628L38.0779 428.864C38.1419 428.688 38.2699 428.6 38.4619 428.6H39.2299C39.4219 428.6 39.5499 428.688 39.6139 428.864L42.5899 436.628L42.6139 436.76C42.6139 436.824 42.5859 436.88 42.5299 436.928C42.4819 436.976 42.4259 437 42.3619 437H41.7979C41.7179 437 41.6499 436.98 41.5939 436.94C41.5459 436.892 41.5139 436.844 41.4979 436.796L40.8259 435.068H36.8539L36.1939 436.796C36.1299 436.932 36.0299 437 35.8939 437H35.3179ZM37.2019 434.072H40.4899L38.8459 429.764L37.2019 434.072ZM45.9995 437.12C45.2395 437.12 44.6515 436.876 44.2355 436.388C43.8195 435.892 43.6115 435.236 43.6115 434.42V431.036C43.6115 430.956 43.6355 430.892 43.6835 430.844C43.7395 430.788 43.8075 430.76 43.8875 430.76H44.4395C44.5195 430.76 44.5835 430.788 44.6315 430.844C44.6875 430.892 44.7155 430.956 44.7155 431.036V434.36C44.7155 435.576 45.2435 436.184 46.2995 436.184C46.8115 436.184 47.2155 436.024 47.5115 435.704C47.8155 435.376 47.9675 434.928 47.9675 434.36V431.036C47.9675 430.956 47.9915 430.892 48.0395 430.844C48.0955 430.788 48.1635 430.76 48.2435 430.76H48.7955C48.8755 430.76 48.9395 430.788 48.9875 430.844C49.0435 430.892 49.0715 430.956 49.0715 431.036V436.724C49.0715 436.804 49.0435 436.872 48.9875 436.928C48.9395 436.976 48.8755 437 48.7955 437H48.2795C48.1995 437 48.1315 436.976 48.0755 436.928C48.0275 436.872 48.0035 436.804 48.0035 436.724V436.184C47.7715 436.496 47.4995 436.732 47.1875 436.892C46.8755 437.044 46.4795 437.12 45.9995 437.12ZM53.3988 439.64C52.7348 439.64 52.2028 439.528 51.8028 439.304C51.4028 439.08 51.1188 438.824 50.9508 438.536C50.7908 438.248 50.7108 438 50.7108 437.792C50.7108 437.72 50.7388 437.656 50.7948 437.6C50.8508 437.552 50.9148 437.528 50.9868 437.528H51.5148C51.5868 437.528 51.6468 437.544 51.6948 437.576C51.7428 437.616 51.7828 437.684 51.8148 437.78C52.0388 438.42 52.5468 438.74 53.3388 438.74C53.9388 438.74 54.3828 438.612 54.6708 438.356C54.9588 438.1 55.1028 437.648 55.1028 437V436.172C54.6388 436.764 53.9908 437.06 53.1588 437.06C52.3108 437.06 51.6748 436.788 51.2508 436.244C50.8348 435.7 50.6148 435.012 50.5908 434.18L50.5788 433.844L50.5908 433.52C50.6148 432.696 50.8348 432.012 51.2508 431.468C51.6748 430.916 52.3108 430.64 53.1588 430.64C53.9988 430.64 54.6548 430.948 55.1268 431.564V431.048C55.1268 430.968 55.1508 430.9 55.1988 430.844C55.2548 430.788 55.3228 430.76 55.4028 430.76H55.9188C55.9988 430.76 56.0628 430.788 56.1108 430.844C56.1668 430.9 56.1948 430.968 56.1948 431.048V436.868C56.1948 438.716 55.2628 439.64 53.3988 439.64ZM53.3748 436.124C53.9348 436.124 54.3548 435.944 54.6348 435.584C54.9228 435.216 55.0788 434.776 55.1028 434.264C55.1108 434.192 55.1148 434.052 55.1148 433.844C55.1148 433.644 55.1108 433.508 55.1028 433.436C55.0788 432.924 54.9228 432.488 54.6348 432.128C54.3548 431.76 53.9348 431.576 53.3748 431.576C52.7988 431.576 52.3788 431.76 52.1148 432.128C51.8588 432.488 51.7188 432.956 51.6948 433.532L51.6828 433.844L51.6948 434.168C51.7188 434.744 51.8588 435.216 52.1148 435.584C52.3788 435.944 52.7988 436.124 53.3748 436.124ZM63.3687 437C63.2887 437 63.2247 436.976 63.1767 436.928C63.1287 436.872 63.1047 436.804 63.1047 436.724V429.956L61.0887 431.504C61.0327 431.552 60.9727 431.576 60.9087 431.576C60.8367 431.576 60.7687 431.536 60.7047 431.456L60.4167 431.084C60.3767 431.028 60.3567 430.972 60.3567 430.916C60.3567 430.828 60.3967 430.756 60.4767 430.7L63.0807 428.684C63.1687 428.628 63.2727 428.6 63.3927 428.6H63.9567C64.0367 428.6 64.1007 428.628 64.1487 428.684C64.2047 428.732 64.2327 428.796 64.2327 428.876V436.724C64.2327 436.804 64.2047 436.872 64.1487 436.928C64.1007 436.976 64.0367 437 63.9567 437H63.3687ZM66.0183 437C65.9383 437 65.8703 436.976 65.8143 436.928C65.7663 436.872 65.7423 436.804 65.7423 436.724V436.364C65.7423 436.18 65.8423 436.004 66.0423 435.836L68.6583 433.232C69.2503 432.728 69.6583 432.316 69.8823 431.996C70.1063 431.676 70.2183 431.336 70.2183 430.976C70.2183 430.504 70.0863 430.136 69.8223 429.872C69.5583 429.6 69.1743 429.464 68.6703 429.464C68.1903 429.464 67.8103 429.604 67.5303 429.884C67.2503 430.164 67.0783 430.54 67.0143 431.012C66.9983 431.1 66.9583 431.168 66.8943 431.216C66.8303 431.264 66.7663 431.288 66.7023 431.288H66.1263C66.0543 431.288 65.9943 431.264 65.9463 431.216C65.8983 431.168 65.8743 431.112 65.8743 431.048C65.8903 430.624 66.0023 430.216 66.2103 429.824C66.4263 429.424 66.7423 429.1 67.1583 428.852C67.5743 428.596 68.0783 428.468 68.6703 428.468C69.5663 428.468 70.2383 428.704 70.6863 429.176C71.1423 429.64 71.3703 430.232 71.3703 430.952C71.3703 431.456 71.2463 431.912 70.9983 432.32C70.7583 432.72 70.3783 433.144 69.8583 433.592L67.4943 435.992H71.2743C71.3623 435.992 71.4303 436.016 71.4783 436.064C71.5263 436.112 71.5503 436.18 71.5503 436.268V436.724C71.5503 436.804 71.5223 436.872 71.4663 436.928C71.4183 436.976 71.3543 437 71.2743 437H66.0183Z" fill="#777777"/>
<path d="M92.7772 437C92.6972 437 92.6332 436.976 92.5852 436.928C92.5372 436.872 92.5132 436.804 92.5132 436.724V429.956L90.4972 431.504C90.4412 431.552 90.3812 431.576 90.3172 431.576C90.2452 431.576 90.1772 431.536 90.1132 431.456L89.8252 431.084C89.7852 431.028 89.7652 430.972 89.7652 430.916C89.7652 430.828 89.8052 430.756 89.8852 430.7L92.4892 428.684C92.5772 428.628 92.6812 428.6 92.8012 428.6H93.3652C93.4452 428.6 93.5092 428.628 93.5572 428.684C93.6132 428.732 93.6412 428.796 93.6412 428.876V436.724C93.6412 436.804 93.6132 436.872 93.5572 436.928C93.5092 436.976 93.4452 437 93.3652 437H92.7772ZM98.1149 437.12C97.4909 437.12 96.9509 437.02 96.4949 436.82C96.0389 436.612 95.6909 436.344 95.4509 436.016C95.2189 435.688 95.0949 435.348 95.0789 434.996C95.0789 434.924 95.1029 434.868 95.1509 434.828C95.1989 434.78 95.2589 434.756 95.3309 434.756H95.8709C95.9589 434.756 96.0309 434.776 96.0869 434.816C96.1429 434.848 96.1869 434.916 96.2189 435.02C96.3229 435.428 96.5469 435.716 96.8909 435.884C97.2429 436.052 97.6549 436.136 98.1269 436.136C98.7029 436.136 99.1589 436 99.4949 435.728C99.8389 435.448 100.011 435.052 100.011 434.54C100.011 433.564 99.4149 433.076 98.2229 433.076H97.0949C97.0149 433.076 96.9469 433.052 96.8909 433.004C96.8429 432.948 96.8189 432.88 96.8189 432.8V432.488C96.8189 432.368 96.8629 432.264 96.9509 432.176L99.2909 429.584H95.7389C95.6589 429.584 95.5909 429.56 95.5349 429.512C95.4869 429.464 95.4629 429.4 95.4629 429.32V428.888C95.4629 428.8 95.4869 428.732 95.5349 428.684C95.5909 428.628 95.6589 428.6 95.7389 428.6H100.491C100.579 428.6 100.647 428.628 100.695 428.684C100.751 428.732 100.779 428.8 100.779 428.888V429.284C100.779 429.372 100.739 429.464 100.659 429.56L98.3189 432.188H98.5109C99.3269 432.212 99.9709 432.424 100.443 432.824C100.923 433.224 101.163 433.808 101.163 434.576C101.163 435.104 101.031 435.56 100.767 435.944C100.511 436.32 100.151 436.612 99.6869 436.82C99.2229 437.02 98.6989 437.12 98.1149 437.12Z" fill="#777777"/>
<path d="M133.054 437C132.974 437 132.91 436.976 132.862 436.928C132.814 436.872 132.79 436.804 132.79 436.724V429.956L130.774 431.504C130.718 431.552 130.658 431.576 130.594 431.576C130.522 431.576 130.454 431.536 130.39 431.456L130.102 431.084C130.062 431.028 130.042 430.972 130.042 430.916C130.042 430.828 130.082 430.756 130.162 430.7L132.766 428.684C132.854 428.628 132.958 428.6 133.078 428.6H133.642C133.722 428.6 133.786 428.628 133.834 428.684C133.89 428.732 133.918 428.796 133.918 428.876V436.724C133.918 436.804 133.89 436.872 133.834 436.928C133.786 436.976 133.722 437 133.642 437H133.054ZM139.664 437C139.584 437 139.516 436.976 139.46 436.928C139.412 436.872 139.388 436.804 139.388 436.724V434.972H135.488C135.408 434.972 135.34 434.948 135.284 434.9C135.236 434.844 135.212 434.776 135.212 434.696V434.252C135.212 434.14 135.256 434.02 135.344 433.892L138.956 428.804C138.996 428.74 139.056 428.692 139.136 428.66C139.216 428.62 139.304 428.6 139.4 428.6H140.216C140.304 428.6 140.372 428.624 140.42 428.672C140.468 428.72 140.492 428.788 140.492 428.876V433.964H141.584C141.664 433.964 141.728 433.992 141.776 434.048C141.832 434.096 141.86 434.16 141.86 434.24V434.696C141.86 434.776 141.832 434.844 141.776 434.9C141.728 434.948 141.664 434.972 141.584 434.972H140.492V436.724C140.492 436.804 140.464 436.872 140.408 436.928C140.36 436.976 140.296 437 140.216 437H139.664ZM136.46 433.988H139.4V429.812L136.46 433.988Z" fill="#777777"/>
<path d="M171.062 439C170.962 439 170.882 438.97 170.822 438.91C170.772 438.84 170.757 438.755 170.777 438.655L172.547 430.33L169.697 432.205C169.607 432.265 169.527 432.295 169.457 432.295C169.347 432.295 169.267 432.245 169.217 432.145L168.917 431.605C168.887 431.555 168.872 431.51 168.872 431.47C168.872 431.34 168.947 431.225 169.097 431.125L172.907 428.605C172.977 428.565 173.032 428.54 173.072 428.53C173.122 428.51 173.187 428.5 173.267 428.5H174.002C174.102 428.5 174.177 428.53 174.227 428.59C174.287 428.65 174.307 428.735 174.287 428.845L172.187 438.655C172.167 438.755 172.117 438.84 172.037 438.91C171.967 438.97 171.882 439 171.782 439H171.062ZM177.721 439.15C177.021 439.15 176.431 439.04 175.951 438.82C175.471 438.59 175.106 438.285 174.856 437.905C174.616 437.525 174.496 437.1 174.496 436.63C174.496 436.56 174.506 436.445 174.526 436.285C174.536 436.195 174.576 436.125 174.646 436.075C174.716 436.015 174.796 435.985 174.886 435.985H175.621C175.861 435.985 175.976 436.095 175.966 436.315C175.926 436.845 176.081 437.245 176.431 437.515C176.781 437.785 177.226 437.92 177.766 437.92C178.476 437.92 179.101 437.715 179.641 437.305C180.191 436.885 180.541 436.31 180.691 435.58C180.741 435.33 180.766 435.125 180.766 434.965C180.766 434.455 180.601 434.065 180.271 433.795C179.951 433.525 179.496 433.39 178.906 433.39C178.546 433.39 178.236 433.44 177.976 433.54C177.716 433.63 177.451 433.76 177.181 433.93C177.021 434.02 176.891 434.09 176.791 434.14C176.691 434.18 176.591 434.2 176.491 434.2H175.771C175.671 434.2 175.596 434.165 175.546 434.095C175.496 434.025 175.486 433.945 175.516 433.855L177.046 428.875C177.076 428.755 177.131 428.665 177.211 428.605C177.291 428.535 177.386 428.5 177.496 428.5H182.686C182.786 428.5 182.861 428.535 182.911 428.605C182.961 428.665 182.981 428.745 182.971 428.845L182.836 429.4C182.816 429.5 182.766 429.58 182.686 429.64C182.616 429.7 182.531 429.73 182.431 429.73H178.111L177.181 432.745C177.411 432.605 177.681 432.485 177.991 432.385C178.301 432.285 178.696 432.235 179.176 432.235C180.066 432.235 180.796 432.47 181.366 432.94C181.936 433.41 182.221 434.055 182.221 434.875C182.221 435.155 182.196 435.41 182.146 435.64C181.916 436.77 181.411 437.64 180.631 438.25C179.861 438.85 178.891 439.15 177.721 439.15Z" fill="#AAAAAA"/>
<path d="M211.496 439C211.396 439 211.316 438.97 211.256 438.91C211.206 438.84 211.191 438.755 211.211 438.655L212.981 430.33L210.131 432.205C210.041 432.265 209.961 432.295 209.891 432.295C209.781 432.295 209.701 432.245 209.651 432.145L209.351 431.605C209.321 431.555 209.306 431.51 209.306 431.47C209.306 431.34 209.381 431.225 209.531 431.125L213.341 428.605C213.411 428.565 213.466 428.54 213.506 428.53C213.556 428.51 213.621 428.5 213.701 428.5H214.436C214.536 428.5 214.611 428.53 214.661 428.59C214.721 428.65 214.741 428.735 214.721 428.845L212.621 438.655C212.601 438.755 212.551 438.84 212.471 438.91C212.401 438.97 212.316 439 212.216 439H211.496ZM218.5 439.15C217.48 439.15 216.69 438.89 216.13 438.37C215.58 437.84 215.305 437.165 215.305 436.345C215.305 436.085 215.335 435.82 215.395 435.55C215.575 434.69 216.115 433.77 217.015 432.79L220.735 428.8C220.835 428.7 220.92 428.625 220.99 428.575C221.07 428.525 221.17 428.5 221.29 428.5H222.025C222.115 428.5 222.18 428.535 222.22 428.605C222.26 428.665 222.27 428.74 222.25 428.83C222.24 428.88 222.22 428.925 222.19 428.965C222.17 428.995 222.155 429.015 222.145 429.025L219.295 432.085C219.565 432.025 219.865 431.995 220.195 431.995C220.815 431.995 221.35 432.12 221.8 432.37C222.26 432.61 222.605 432.94 222.835 433.36C223.075 433.78 223.195 434.25 223.195 434.77C223.195 435.01 223.165 435.265 223.105 435.535C222.975 436.175 222.7 436.775 222.28 437.335C221.86 437.885 221.32 438.325 220.66 438.655C220.01 438.985 219.29 439.15 218.5 439.15ZM218.755 437.905C219.435 437.905 220.05 437.7 220.6 437.29C221.16 436.87 221.52 436.29 221.68 435.55C221.72 435.38 221.74 435.195 221.74 434.995C221.74 434.425 221.55 433.985 221.17 433.675C220.8 433.355 220.325 433.195 219.745 433.195C219.075 433.195 218.46 433.405 217.9 433.825C217.34 434.245 216.985 434.82 216.835 435.55C216.795 435.74 216.775 435.935 216.775 436.135C216.775 436.695 216.96 437.13 217.33 437.44C217.7 437.75 218.175 437.905 218.755 437.905Z" fill="#AAAAAA"/>
<path d="M254.205 437C254.125 437 254.061 436.976 254.013 436.928C253.965 436.872 253.941 436.804 253.941 436.724V429.956L251.925 431.504C251.869 431.552 251.809 431.576 251.745 431.576C251.673 431.576 251.605 431.536 251.541 431.456L251.253 431.084C251.213 431.028 251.193 430.972 251.193 430.916C251.193 430.828 251.233 430.756 251.313 430.7L253.917 428.684C254.005 428.628 254.109 428.6 254.229 428.6H254.793C254.873 428.6 254.937 428.628 254.985 428.684C255.041 428.732 255.069 428.796 255.069 428.876V436.724C255.069 436.804 255.041 436.872 254.985 436.928C254.937 436.976 254.873 437 254.793 437H254.205ZM257.79 437C257.718 437 257.658 436.976 257.61 436.928C257.57 436.872 257.55 436.808 257.55 436.736L257.574 436.628L260.574 429.608H256.614C256.534 429.608 256.466 429.584 256.41 429.536C256.362 429.48 256.338 429.412 256.338 429.332V428.888C256.338 428.8 256.362 428.732 256.41 428.684C256.458 428.628 256.526 428.6 256.614 428.6H261.51C261.598 428.6 261.666 428.628 261.714 428.684C261.762 428.732 261.786 428.8 261.786 428.888V429.296C261.786 429.44 261.754 429.596 261.69 429.764L258.726 436.7C258.686 436.788 258.642 436.86 258.594 436.916C258.546 436.972 258.478 437 258.39 437H257.79Z" fill="#777777"/>
<path d="M292.76 437C292.68 437 292.616 436.976 292.568 436.928C292.52 436.872 292.496 436.804 292.496 436.724V429.956L290.48 431.504C290.424 431.552 290.364 431.576 290.3 431.576C290.228 431.576 290.16 431.536 290.096 431.456L289.808 431.084C289.768 431.028 289.748 430.972 289.748 430.916C289.748 430.828 289.788 430.756 289.868 430.7L292.472 428.684C292.56 428.628 292.664 428.6 292.784 428.6H293.348C293.428 428.6 293.492 428.628 293.54 428.684C293.596 428.732 293.624 428.796 293.624 428.876V436.724C293.624 436.804 293.596 436.872 293.54 436.928C293.492 436.976 293.428 437 293.348 437H292.76ZM298.35 437.12C297.742 437.12 297.198 437.02 296.718 436.82C296.246 436.612 295.878 436.316 295.614 435.932C295.35 435.548 295.218 435.1 295.218 434.588C295.218 434.116 295.334 433.704 295.566 433.352C295.806 432.992 296.126 432.716 296.526 432.524C296.206 432.34 295.958 432.1 295.782 431.804C295.606 431.5 295.518 431.144 295.518 430.736C295.518 430.04 295.778 429.492 296.298 429.092C296.818 428.684 297.502 428.48 298.35 428.48C299.198 428.48 299.878 428.68 300.39 429.08C300.91 429.48 301.17 430.032 301.17 430.736C301.17 431.136 301.082 431.488 300.906 431.792C300.73 432.088 300.486 432.332 300.174 432.524C300.574 432.716 300.89 432.992 301.122 433.352C301.362 433.704 301.482 434.12 301.482 434.6C301.482 435.112 301.35 435.56 301.086 435.944C300.822 436.32 300.45 436.612 299.97 436.82C299.498 437.02 298.958 437.12 298.35 437.12ZM298.35 432.104C298.838 432.088 299.25 431.96 299.586 431.72C299.922 431.48 300.09 431.16 300.09 430.76C300.09 430.352 299.922 430.028 299.586 429.788C299.258 429.54 298.846 429.416 298.35 429.416C297.846 429.416 297.43 429.54 297.102 429.788C296.774 430.028 296.61 430.352 296.61 430.76C296.61 431.168 296.774 431.496 297.102 431.744C297.43 431.984 297.846 432.104 298.35 432.104ZM298.35 436.184C298.918 436.184 299.39 436.04 299.766 435.752C300.15 435.464 300.342 435.08 300.342 434.6C300.342 434.12 300.15 433.736 299.766 433.448C299.39 433.16 298.918 433.016 298.35 433.016C297.774 433.016 297.294 433.16 296.91 433.448C296.534 433.736 296.346 434.12 296.346 434.6C296.346 435.08 296.534 435.464 296.91 435.752C297.294 436.04 297.774 436.184 298.35 436.184Z" fill="#777777"/>
<path d="M20.1983 424.12C19.1663 424.12 18.4103 423.82 17.9303 423.22C17.4583 422.612 17.2063 421.82 17.1743 420.844L17.1623 419.812L17.1743 418.744C17.1983 417.776 17.4503 416.992 17.9303 416.392C18.4183 415.784 19.1743 415.48 20.1983 415.48C21.2303 415.48 21.9863 415.784 22.4663 416.392C22.9543 416.992 23.2103 417.776 23.2343 418.744C23.2423 418.968 23.2463 419.324 23.2463 419.812C23.2463 420.284 23.2423 420.628 23.2343 420.844C23.2023 421.82 22.9463 422.612 22.4663 423.22C21.9943 423.82 21.2383 424.12 20.1983 424.12ZM20.1983 423.124C20.8143 423.124 21.2783 422.92 21.5903 422.512C21.9023 422.104 22.0663 421.528 22.0823 420.784C22.0903 420.552 22.0943 420.22 22.0943 419.788C22.0943 419.348 22.0903 419.02 22.0823 418.804C22.0663 418.068 21.8983 417.496 21.5783 417.088C21.2663 416.672 20.8063 416.464 20.1983 416.464C19.5903 416.464 19.1303 416.672 18.8183 417.088C18.5063 417.496 18.3423 418.068 18.3263 418.804L18.3143 419.788L18.3263 420.784C18.3423 421.528 18.5063 422.104 18.8183 422.512C19.1303 422.92 19.5903 423.124 20.1983 423.124Z" fill="#777777"/>
<path d="M0.864 262C0.784 262 0.716 261.976 0.66 261.928C0.612 261.872 0.588 261.804 0.588 261.724V261.364C0.588 261.18 0.688 261.004 0.888 260.836L3.504 258.232C4.096 257.728 4.504 257.316 4.728 256.996C4.952 256.676 5.064 256.336 5.064 255.976C5.064 255.504 4.932 255.136 4.668 254.872C4.404 254.6 4.02 254.464 3.516 254.464C3.036 254.464 2.656 254.604 2.376 254.884C2.096 255.164 1.924 255.54 1.86 256.012C1.844 256.1 1.804 256.168 1.74 256.216C1.676 256.264 1.612 256.288 1.548 256.288H0.972C0.9 256.288 0.84 256.264 0.792 256.216C0.744 256.168 0.72 256.112 0.72 256.048C0.736 255.624 0.848 255.216 1.056 254.824C1.272 254.424 1.588 254.1 2.004 253.852C2.42 253.596 2.924 253.468 3.516 253.468C4.412 253.468 5.084 253.704 5.532 254.176C5.988 254.64 6.216 255.232 6.216 255.952C6.216 256.456 6.092 256.912 5.844 257.32C5.604 257.72 5.224 258.144 4.704 258.592L2.34 260.992H6.12C6.208 260.992 6.276 261.016 6.324 261.064C6.372 261.112 6.396 261.18 6.396 261.268V261.724C6.396 261.804 6.368 261.872 6.312 261.928C6.264 261.976 6.2 262 6.12 262H0.864ZM10.4998 262.12C9.89981 262.12 9.37981 262.012 8.93981 261.796C8.49981 261.58 8.16381 261.3 7.93181 260.956C7.69981 260.604 7.57581 260.228 7.55981 259.828V259.804C7.55981 259.74 7.58381 259.688 7.63181 259.648C7.67981 259.608 7.73581 259.588 7.79981 259.588H8.38781C8.55581 259.588 8.66381 259.676 8.71181 259.852C8.83181 260.284 9.05181 260.608 9.37181 260.824C9.69981 261.032 10.0758 261.136 10.4998 261.136C11.0438 261.136 11.4958 260.972 11.8558 260.644C12.2158 260.308 12.3958 259.848 12.3958 259.264C12.3958 258.728 12.2158 258.304 11.8558 257.992C11.4958 257.672 11.0438 257.512 10.4998 257.512C10.2118 257.512 9.97981 257.548 9.80381 257.62C9.62781 257.692 9.44781 257.796 9.26381 257.932C9.15981 258.012 9.07181 258.072 8.99981 258.112C8.93581 258.144 8.86381 258.16 8.78381 258.16H8.20781C8.13581 258.16 8.07181 258.136 8.01581 258.088C7.95981 258.032 7.93581 257.968 7.94381 257.896L8.31581 253.9C8.33981 253.7 8.43981 253.6 8.61581 253.6H12.7678C12.8558 253.6 12.9238 253.624 12.9718 253.672C13.0198 253.72 13.0438 253.788 13.0438 253.876V254.32C13.0438 254.4 13.0158 254.464 12.9598 254.512C12.9118 254.56 12.8478 254.584 12.7678 254.584H9.31181L9.09581 256.996C9.47981 256.724 9.99581 256.588 10.6438 256.588C11.1798 256.588 11.6678 256.696 12.1078 256.912C12.5478 257.12 12.8958 257.428 13.1518 257.836C13.4158 258.244 13.5478 258.728 13.5478 259.288C13.5478 259.88 13.4158 260.392 13.1518 260.824C12.8958 261.248 12.5358 261.572 12.0718 261.796C11.6158 262.012 11.0918 262.12 10.4998 262.12ZM17.9014 262.12C16.8694 262.12 16.1134 261.82 15.6334 261.22C15.1614 260.612 14.9094 259.82 14.8774 258.844L14.8654 257.812L14.8774 256.744C14.9014 255.776 15.1534 254.992 15.6334 254.392C16.1214 253.784 16.8774 253.48 17.9014 253.48C18.9334 253.48 19.6894 253.784 20.1694 254.392C20.6574 254.992 20.9134 255.776 20.9374 256.744C20.9454 256.968 20.9494 257.324 20.9494 257.812C20.9494 258.284 20.9454 258.628 20.9374 258.844C20.9054 259.82 20.6494 260.612 20.1694 261.22C19.6974 261.82 18.9414 262.12 17.9014 262.12ZM17.9014 261.124C18.5174 261.124 18.9814 260.92 19.2934 260.512C19.6054 260.104 19.7694 259.528 19.7854 258.784C19.7934 258.552 19.7974 258.22 19.7974 257.788C19.7974 257.348 19.7934 257.02 19.7854 256.804C19.7694 256.068 19.6014 255.496 19.2814 255.088C18.9694 254.672 18.5094 254.464 17.9014 254.464C17.2934 254.464 16.8334 254.672 16.5214 255.088C16.2094 255.496 16.0454 256.068 16.0294 256.804L16.0174 257.788L16.0294 258.784C16.0454 259.528 16.2094 260.104 16.5214 260.512C16.8334 260.92 17.2934 261.124 17.9014 261.124Z" fill="#777777"/>
<path d="M3.492 102.12C2.892 102.12 2.372 102.012 1.932 101.796C1.492 101.58 1.156 101.3 0.924 100.956C0.692 100.604 0.568 100.228 0.552 99.828V99.804C0.552 99.74 0.576 99.688 0.624 99.648C0.672 99.608 0.728 99.588 0.792 99.588H1.38C1.548 99.588 1.656 99.676 1.704 99.852C1.824 100.284 2.044 100.608 2.364 100.824C2.692 101.032 3.068 101.136 3.492 101.136C4.036 101.136 4.488 100.972 4.848 100.644C5.208 100.308 5.388 99.848 5.388 99.264C5.388 98.728 5.208 98.304 4.848 97.992C4.488 97.672 4.036 97.512 3.492 97.512C3.204 97.512 2.972 97.548 2.796 97.62C2.62 97.692 2.44 97.796 2.256 97.932C2.152 98.012 2.064 98.072 1.992 98.112C1.928 98.144 1.856 98.16 1.776 98.16H1.2C1.128 98.16 1.064 98.136 1.008 98.088C0.952 98.032 0.928 97.968 0.936 97.896L1.308 93.9C1.332 93.7 1.432 93.6 1.608 93.6H5.76C5.848 93.6 5.916 93.624 5.964 93.672C6.012 93.72 6.036 93.788 6.036 93.876V94.32C6.036 94.4 6.008 94.464 5.952 94.512C5.904 94.56 5.84 94.584 5.76 94.584H2.304L2.088 96.996C2.472 96.724 2.988 96.588 3.636 96.588C4.172 96.588 4.66 96.696 5.1 96.912C5.54 97.12 5.888 97.428 6.144 97.836C6.408 98.244 6.54 98.728 6.54 99.288C6.54 99.88 6.408 100.392 6.144 100.824C5.888 101.248 5.528 101.572 5.064 101.796C4.608 102.012 4.084 102.12 3.492 102.12ZM10.8936 102.12C9.86156 102.12 9.10556 101.82 8.62556 101.22C8.15356 100.612 7.90156 99.82 7.86956 98.844L7.85756 97.812L7.86956 96.744C7.89356 95.776 8.14556 94.992 8.62556 94.392C9.11356 93.784 9.86956 93.48 10.8936 93.48C11.9256 93.48 12.6816 93.784 13.1616 94.392C13.6496 94.992 13.9056 95.776 13.9296 96.744C13.9376 96.968 13.9416 97.324 13.9416 97.812C13.9416 98.284 13.9376 98.628 13.9296 98.844C13.8976 99.82 13.6416 100.612 13.1616 101.22C12.6896 101.82 11.9336 102.12 10.8936 102.12ZM10.8936 101.124C11.5096 101.124 11.9736 100.92 12.2856 100.512C12.5976 100.104 12.7616 99.528 12.7776 98.784C12.7856 98.552 12.7896 98.22 12.7896 97.788C12.7896 97.348 12.7856 97.02 12.7776 96.804C12.7616 96.068 12.5936 95.496 12.2736 95.088C11.9616 94.672 11.5016 94.464 10.8936 94.464C10.2856 94.464 9.82556 94.672 9.51356 95.088C9.20156 95.496 9.03756 96.068 9.02156 96.804L9.00956 97.788L9.02156 98.784C9.03756 99.528 9.20156 100.104 9.51356 100.512C9.82556 100.92 10.2856 101.124 10.8936 101.124ZM18.4873 102.12C17.4553 102.12 16.6993 101.82 16.2193 101.22C15.7473 100.612 15.4953 99.82 15.4633 98.844L15.4513 97.812L15.4633 96.744C15.4873 95.776 15.7393 94.992 16.2193 94.392C16.7073 93.784 17.4633 93.48 18.4873 93.48C19.5193 93.48 20.2753 93.784 20.7553 94.392C21.2433 94.992 21.4993 95.776 21.5233 96.744C21.5313 96.968 21.5353 97.324 21.5353 97.812C21.5353 98.284 21.5313 98.628 21.5233 98.844C21.4913 99.82 21.2353 100.612 20.7553 101.22C20.2833 101.82 19.5273 102.12 18.4873 102.12ZM18.4873 101.124C19.1033 101.124 19.5673 100.92 19.8793 100.512C20.1913 100.104 20.3553 99.528 20.3713 98.784C20.3793 98.552 20.3833 98.22 20.3833 97.788C20.3833 97.348 20.3793 97.02 20.3713 96.804C20.3553 96.068 20.1873 95.496 19.8673 95.088C19.5553 94.672 19.0953 94.464 18.4873 94.464C17.8793 94.464 17.4193 94.672 17.1073 95.088C16.7953 95.496 16.6313 96.068 16.6153 96.804L16.6033 97.788L16.6153 98.784C16.6313 99.528 16.7953 100.104 17.1073 100.512C17.4193 100.92 17.8793 101.124 18.4873 101.124Z" fill="#777777"/>
<rect x="278.993" y="114" width="32.0072" height="306" fill="#19A974"/>
<rect x="279" y="357" width="32" height="63" fill="#137752"/>
<rect x="239.304" width="32.0072" height="420" fill="#19A974"/>
<rect x="239" y="248" width="32" height="172" fill="#137752"/>
<rect x="199.615" y="280" width="32.0072" height="140" fill="#19A974"/>
<rect x="200" y="376" width="32" height="44" fill="#137752"/>
<rect x="159.926" y="192" width="32.0072" height="228" fill="#19A974"/>
<rect x="160" y="393" width="32" height="27" fill="#137752"/>
<rect x="120.237" y="27" width="32.0072" height="393" fill="#19A974"/>
<rect x="120" y="335" width="32" height="85" fill="#137752"/>
<rect x="80.5482" y="70" width="32.0072" height="350" fill="#19A974"/>
<rect x="80.9999" y="294" width="32" height="126" fill="#137752"/>
<rect x="40.8596" y="192" width="32.0072" height="228" fill="#19A974"/>
<rect x="41" y="384" width="32" height="36" fill="#137752"/>
</svg>
