<?xml version="1.0" encoding="UTF-8"?>
<svg version="1.1" viewBox="0 0 449 168" xmlns="http://www.w3.org/2000/svg" xmlns:cc="http://creativecommons.org/ns#" xmlns:dc="http://purl.org/dc/elements/1.1/" xmlns:rdf="http://www.w3.org/1999/02/22-rdf-syntax-ns#">
<metadata>
<rdf:RDF>
<cc:Work rdf:about="">
<dc:format>image/svg+xml</dc:format>
<dc:type rdf:resource="http://purl.org/dc/dcmitype/StillImage"/>
<dc:title/>
</cc:Work>
</rdf:RDF>
</metadata>
<path d="m86.203-0.017578c-8.557 0.1519-16.383 3.0028-23.447 8.5254-8.0469 6.246-12.945 14.294-14.695 24.141-0.1484 0.848-0.30084 1.6481-0.39844 2.4961-0.1016 0.851-0.15232 1.6522-0.19922 2.4492-0.3515 4.597 0.097675 8.9963 1.2969 13.195 1.3516 4.899 3.6992 9.4958 7.0977 13.844 3.3984 4.3475 7.297 7.7497 11.746 10.297 3.7461 2.1484 7.8948 3.5976 12.445 4.3984 0.8008 0.1485 1.5976 0.24994 2.4492 0.39844 0.4492 0.050701 0.89836 0.10154 1.3477 0.15234 1.1015-4.4492 2.8007-8.5974 5.1484-12.348-1.5508 0.051-3.1484-4.38e-4 -4.7461-0.14844-0.1016-0.051-0.15232-0.050781-0.20312-0.050781-1.8477-0.25-3.6485-0.59844-5.2969-1.1484-5.1484-1.649-9.4961-4.7001-13.043-9.2461-3.5508-4.547-5.4492-9.4965-5.8008-14.895-0.0976-1.75-0.046875-3.4997 0.20312-5.3477v-0.19922c0.9492-7.449 4.3982-13.497 10.344-18.145 6-4.649 12.746-6.5467 20.293-5.5977 7.5469 0.902 13.645 4.3477 18.293 10.348 4.649 5.996 6.5464 12.742 5.6484 20.293-0.25 1.699-0.551 3.2967-1 4.8477 4.199-1.351 8.5933-2.051 13.195-2 0.047-0.449 0.14822-0.89856 0.19922-1.3516 1.348-10.946-1.3982-20.788-8.1992-29.488-6.797-8.695-15.692-13.743-26.637-15.094-2.0522-0.25275-4.0663-0.36123-6.041-0.32617zm1.4668 27.559c-2.9308-0.10906-5.5581 0.7752-7.9199 2.6582-2.75 2.098-4.3477 4.8988-4.7461 8.3438-0.4531 3.398 0.44916 6.4492 2.5977 9.1992 2.0976 2.699 4.8477 4.2971 8.2969 4.7461 3.3985 0.352 6.4453-0.50066 9.1953-2.5977 2.75-2.149 4.2968-4.9499 4.75-8.2969 0.3982-3.449-0.45318-6.5471-2.5508-9.2461-2.1485-2.75-4.9492-4.3002-8.3477-4.6992-0.43115-0.056126-0.8567-0.091842-1.2754-0.10742zm175.01 4.0059-10.793 58.477c-0.453 1.9493-0.80078 3.9999-1.0508 6.1484-0.25 2.0976-0.39844 4.0477-0.39844 5.8477 0 5.797 1.0977 10.546 3.3477 14.242 2.25 3.699 6.0465 5.8986 11.395 6.5977l6.4961-13.293c-1.047-0.5-1.9489-1.0504-2.7969-1.6484-0.852-0.551-1.5506-1.3004-2.1016-2.1484-0.597-0.851-1.0469-1.8518-1.2969-3.0508-0.25-1.2-0.40234-2.6997-0.40234-4.4492 0-0.8476 0.05034-1.7969 0.15234-2.7969 0.148-1.0508 0.30022-2.1015 0.44922-3.1992l11.145-60.727h-14.145zm-223.84 5.3672c-8.4944 0.18542-16.264 3.0183-23.305 8.5273-8.75 6.797-13.746 15.696-15.094 26.641-1.3516 10.945 1.3477 20.742 8.1953 29.488 6.2461 8.047 14.293 12.945 24.141 14.691 0.8008 0.152 1.5996 0.25034 2.4512 0.40234 0.8476 0.098 1.6484 0.199 2.5 0.25 4.5976 0.301 8.9945-0.15178 13.189-1.3008 4.8476-1.398 9.4976-3.7974 13.85-7.1484 4.2969-3.399 7.6934-7.2963 10.244-11.695 2.1484-3.7461 3.5977-7.8949 4.4453-12.441-4.3476-0.75-8.3437-2.0509-12.043-3.8516-0.2499 1.75-0.60156 3.4493-1.1016 5.0977-1.6485 5.1485-4.6992 9.496-9.2461 13.047-4.5469 3.5469-9.4947 5.4957-14.893 5.8477-1.75 0.097-3.5468 0.05078-5.3984-0.19922-0.0468 0-0.097637-7.8e-4 -0.14844-0.05078-7.4453-0.95-13.497-4.3984-18.145-10.348-4.6954-5.9961-6.5937-12.742-5.6445-20.242h-0.001953c0.9492-7.5469 4.398-13.691 10.395-18.34 5.9492-4.648 12.644-6.5467 20.094-5.5977-0.8516-4.05-1.1523-8.2963-0.80078-12.695-1.2432-0.0815-2.4701-0.10852-3.6836-0.082032zm401.12 3.2305-15.445 6.0469-2.5 14.043h-9.3945l-2.5 13.645h9.2461l-3.1484 17.293c-0.149 0.9531-0.39844 2.3515-0.64844 4.1484-0.25 1.8008-0.40234 3.3988-0.40234 4.75 0.051 6.246 1.551 11.394 4.5 15.445 2.949 4.144 7.7463 6.5938 14.445 7.3438l6.4453-13.293c-3.45-0.449-6.0465-1.8007-7.8945-4.0977-1.851-2.352-2.75-5.3007-2.75-8.8984 0-0.6992 0.102-1.6992 0.25-3.0469 0.149-1.3515 0.30122-2.4493 0.44922-3.3008l3-16.344h12.992l2.5-13.645h-12.895l3.75-20.09zm-313.54 11.01c-3.3734 0.055078-6.635 0.52376-9.7812 1.3848-4.899 1.348-9.4956 3.7494-13.848 7.1484-4.3476 3.347-7.7462 7.2463-10.242 11.695-2.1524 3.7461-3.6016 7.8948-4.4492 12.445 4.3476 0.7461 8.3476 1.9961 12.043 3.8477 0.25-1.8008 0.60156-3.5 1.1016-5.0977 1.649-5.1484 4.6991-9.496 9.2461-13.047 4.547-3.5472 9.4953-5.4967 14.945-5.8477 1.746-0.098 3.4966-0.050782 5.3476 0.19922h0.14844c7.445 0.953 13.497 4.4494 18.145 10.398 4.696 5.9454 6.5935 12.695 5.6445 20.242-0.949 7.5466-4.3988 13.645-10.344 18.34-5.949 4.649-12.695 6.4997-20.145 5.5977 0.852 4.051 1.1018 8.2973 0.80078 12.695 9.946 0.653 18.941-2.1993 26.988-8.4453 8.699-6.797 13.747-15.695 15.094-26.641 1.352-10.945-1.3983-20.789-8.1953-29.488-6.297-8.047-14.344-12.945-24.141-14.691-0.847-0.153-1.6482-0.30034-2.4492-0.40234-0.848-0.097-1.648-0.199-2.5-0.25-1.1495-0.07425-2.2857-0.10234-3.4102-0.083984zm72.783 5.6816-13.393 5.75c1.148 1.75 2.0447 3.5981 2.5957 5.4961 0.5 1.8985 0.75 3.6992 0.75 5.3477 0 0.8515-0.05122 1.8984-0.19922 3.0508-0.102 1.1484-0.24839 2.0468-0.40039 2.6992l-7.9473 42.332h14.396l8.4434-45.684c2.051-1.5469 4.2516-2.6992 6.5996-3.4961 2.398-0.8515 4.5-1.3008 6.25-1.3008 1.898 0 3.4959 0.55074 4.7969 1.6484 1.25 1.0508 1.8457 2.6015 1.8457 4.75 0 0.5976-0.09593 1.5-0.29493 2.75-0.204 1.1484-0.352 2.1993-0.5 3.0977l-3.6016 16.891c-0.25 1.301-0.5 2.6518-0.75 4.0508-0.246 1.449-0.34961 2.6991-0.34961 3.7461 0 4.051 1.0996 7.4494 3.3496 10.148 2.148 2.699 5.9999 4.2971 11.547 4.7461l6.3476-12.844c-2.149-0.34799-3.7014-1.1484-4.6504-2.3984-1-1.199-1.5-2.8979-1.5-5.0469 0-0.5 0.05239-1.101 0.15039-1.75 0.05-0.652 0.15213-1.1993 0.20313-1.6016l3.6465-17.191c0.297-1.4492 0.5471-2.8985 0.7461-4.3477 0.203-1.3985 0.30273-2.8007 0.30273-4.1484 0-4.9492-1.4506-8.9457-4.3496-11.895-2.949-2.949-7.047-4.4492-12.293-4.4492-3.05 0-5.9489 0.5-8.7969 1.5-2.8 0.949-6.1975 2.5464-10.146 4.8984-0.148-0.949-0.5-2.1024-1-3.3984-0.547-1.25-1.1498-2.3516-1.7988-3.3516zm100.66 0-13.393 5.75c1.148 1.75 2.0457 3.5981 2.5957 5.4961 0.5 1.8985 0.75 3.6992 0.75 5.3477 0 0.8515-0.05022 1.8984-0.19922 3.0508-0.101 1.1484-0.24839 2.0468-0.40039 2.6992l-7.9453 42.332h14.395l8.4434-45.684c2.051-1.5469 4.2516-2.6992 6.5996-3.4961 2.398-0.8515 4.5-1.3008 6.25-1.3008 1.898 0 3.4959 0.55074 4.7969 1.6484 1.25 1.0508 1.8477 2.6015 1.8477 4.75 0 0.5976-0.09778 1.5-0.30078 2.75-0.199 1.1484-0.3481 2.1993-0.4961 3.0977l-3.6035 16.891c-0.25 1.301-0.5 2.6518-0.75 4.0508-0.25 1.449-0.34766 2.6991-0.34766 3.7461 0 4.051 1.0977 7.4494 3.3477 10.148 2.149 2.699 5.9978 4.2971 11.549 4.7461l6.3476-12.844c-2.153-0.34799-3.7014-1.1484-4.6504-2.3984-1-1.199-1.5-2.8979-1.5-5.0469 0-0.5 0.05239-1.101 0.15039-1.75 0.05-0.652 0.15222-1.1993 0.19922-1.6016l3.6465-17.191c0.301-1.4492 0.551-2.8985 0.75-4.3477 0.203-1.3985 0.30078-2.8007 0.30078-4.1484 0-4.9492-1.4487-8.9457-4.3477-11.895-2.949-2.949-7.0449-4.4492-12.295-4.4492-3.047 0-5.946 0.5-8.793 1.5-2.801 0.949-6.2014 2.5464-10.15 4.8984-0.148-0.949-0.5-2.1024-1-3.3984-0.547-1.25-1.1479-2.3516-1.7969-3.3516zm79.312 0.35156c-4.45 0-8.5978 1.0002-12.344 2.9492-3.801 1.949-7.0473 4.6483-9.6953 8.0977-2.75 3.3984-4.8474 7.3434-6.3984 11.844-1.551 4.5977-2.3008 9.4956-2.3008 14.645 0 4.4961 0.602 8.4964 1.75 11.996 1.149 3.496 2.8004 6.4449 4.8984 8.7969 2.051 2.398 4.5979 4.1953 7.5469 5.4453s6.2466 1.8984 9.8476 1.8984c4.348 0 8.6443-0.79744 12.945-2.3984 4.347-1.598 8.1445-4.0983 11.395-7.4453l-5.3984-12.496c-2.5 2.801-5.2499 4.8987-8.2969 6.3477-3.051 1.449-6.0976 2.1484-9.0976 2.1484-3.496 0-6.2461-1.0979-8.2461-3.2969-1.949-2.25-2.9492-5.0508-2.9492-8.3477v-0.94922c0-0.3985 0.05135-0.80082 0.15235-1.1992 2.649-0.3516 5.6451-0.80074 8.9961-1.3984 3.348-0.6015 6.7453-1.3009 10.195-2.1016 3.449-0.8477 6.7978-1.7969 10.094-2.7969 3.25-1 6.1487-2.0508 8.5977-3.1016v-5.7461c0-3.5469-0.55144-6.7462-1.6484-9.5977-1.149-2.7465-2.6486-5.1483-4.5976-7.1953-1.949-2-4.3012-3.5-6.9492-4.5-2.598-1.047-5.4461-1.5977-8.4961-1.5977zm-338.79 7.2891c-2.9308-0.11121-5.5581 0.77588-7.9199 2.6562-2.75 2.0975-4.2969 4.8984-4.7461 8.3477-0.4024 3.3476 0.44926 6.3984 2.5977 9.1445 2.0977 2.75 4.8477 4.3477 8.2969 4.8008 3.4492 0.3476 6.4961-0.49996 9.2461-2.6016 2.6992-2.1484 4.2461-4.9453 4.6992-8.2969 0.4492-3.4492-0.40228-6.5468-2.5508-9.2461-2.1484-2.7462-4.8985-4.2973-8.3477-4.6953-0.43116-0.056625-0.8567-0.093489-1.2754-0.10938zm337.24 4.2578c2.648 0 4.8468 0.84766 6.5938 2.5977 1.75 1.6992 2.6523 4.2461 2.6523 7.6953-1.449 0.4493-3.1514 0.99998-5.1484 1.5508-2.05 0.5-4.0972 1-6.1992 1.4492-2.148 0.4493-4.1991 0.89848-6.2461 1.3008-2.051 0.3477-3.8008 0.64844-5.3008 0.89844 0.25-2.0977 0.70335-4.0976 1.4024-5.9492 0.75-1.8476 1.6996-3.4961 2.8476-4.8984 1.25-1.3984 2.5974-2.5469 4.1484-3.3984 1.551-0.8477 3.301-1.2461 5.25-1.2461zm-249.98 9.9023c-2.9318-0.07459-5.5645 0.81156-7.9707 2.6914-2.75 2.1485-4.2962 4.8985-4.6992 8.2969-0.449 3.4492 0.40278 6.4961 2.5508 9.2461 2.149 2.7499 4.8986 4.2972 8.3476 4.6992 3.398 0.449 6.4453-0.40178 9.1953-2.5508 2.75-2.1479 4.2971-4.8985 4.7461-8.3477 0.403-3.3985-0.44966-6.4453-2.5977-9.1953-2.149-2.75-4.8989-4.2969-8.2969-4.75-0.43125-0.049812-0.85656-0.079188-1.2754-0.089843zm-43.955 9.6367c-1.1015 4.4493-2.8008 8.5974-5.1484 12.348 1.5508-0.102 3.1484-0.05056 4.7969 0.14844 0.0507 0 0.10154-2.2e-4 0.15234 0.05078 1.8477 0.199 3.5977 0.55066 5.2969 1.0977 5.1484 1.652 9.4961 4.7499 13.043 9.2969 3.551 4.5 5.4488 9.4455 5.8008 14.895 0.097 1.75 0.04688 3.4996-0.20312 5.3476v0.19922c-0.95 7.45-4.3988 13.496-10.344 18.145-6 4.648-12.746 6.5477-20.293 5.5977-7.5469-0.949-13.644-4.3987-18.293-10.348-4.6992-5.996-6.5976-12.742-5.6484-20.289 0.2031-1.7 0.55078-3.3006 1.0508-4.8516-4.2461 1.352-8.6447 2-13.246 2-0.0469 0.449-0.14842 0.90156-0.19922 1.3516-1.3476 10.945 1.3515 20.742 8.1992 29.488 6.7968 8.695 15.691 13.742 26.637 15.094 10.945 1.347 20.742-1.3973 29.488-8.1973 8.047-6.297 12.945-14.345 14.695-24.189 0.149-0.801 0.24943-1.6012 0.39843-2.4492 0.051-0.852 0.15222-1.6473 0.19922-2.4473 0.301-4.649-0.14787-9.0483-1.2969-13.197-1.351-4.898-3.7507-9.4958-7.0977-13.844-3.399-4.3471-7.2963-7.7972-11.695-10.297-3.7969-2.1485-7.9454-3.5976-12.496-4.3984-0.7969-0.1484-1.5977-0.30084-2.4492-0.39844-0.4492-0.0508-0.89846-0.10154-1.3477-0.15234zm-3.3262 27.299c-2.9308-0.07513-5.5581 0.80907-7.9199 2.6894-2.75 2.148-4.2969 4.8979-4.75 8.2969-0.4492 3.449 0.45306 6.5001 2.6016 9.2461 2.0977 2.75 4.8476 4.3012 8.2969 4.6992 3.4492 0.449 6.4961-0.39779 9.2461-2.5508 2.6992-2.148 4.2461-4.8938 4.6992-8.3437 0.3984-3.398-0.45308-6.4492-2.5508-9.1992-2.1484-2.746-4.8984-4.2971-8.3477-4.7461-0.43115-0.04975-0.85671-0.08106-1.2754-0.09179zm316.05 16.734c-1.449 0-2.7969 0.2957-4.0469 0.8457-1.25 0.551-2.3479 1.3536-3.2969 2.3496-0.953 1-1.699 2.152-2.25 3.5-0.551 1.352-0.85156 2.7995-0.85156 4.3965 0 1.25 0.19956 2.3494 0.60156 3.4004 0.348 1 0.89866 1.8508 1.5977 2.5508 0.652 0.749 1.5002 1.2962 2.4492 1.6992 0.949 0.348 2.0004 0.54687 3.1484 0.54687 1.403 0 2.75-0.29861 4-0.84961s2.3479-1.3516 3.2969-2.3476c0.95-0.953 1.7-2.152 2.25-3.5 0.551-1.351 0.85156-2.8472 0.85156-4.4492 0-1.25-0.20256-2.3965-0.60156-3.3965-0.398-1-0.94966-1.8496-1.5977-2.5996-0.703-0.699-1.4992-1.2486-2.4492-1.5996-0.949-0.348-2.0006-0.54688-3.1016-0.54688zm-98.959 0.00391c-1.051 0-2.1033 0.04548-3.1543 0.14648-1.046 0.149-2.0461 0.30274-2.9961 0.55274l-3.1484 17.844c0.949 0.246 2.0471 0.39787 3.2461 0.54687 1.152 0.152 2.2517 0.19922 3.3027 0.19922 1.547 0 2.9489-0.25009 4.2969-0.74609 1.351-0.551 2.5488-1.2512 3.5488-2.2012 0.997-0.953 1.7964-2.1012 2.3984-3.4492 0.547-1.351 0.84961-2.8967 0.84961-4.5957 0-1.352-0.20161-2.4998-0.59961-3.5508-0.449-1.051-1-1.9006-1.75-2.5996s-1.6484-1.2486-2.6484-1.5996c-1.05-0.348-2.1467-0.54687-3.3457-0.54687zm-88.207 0.00195c-1.449 0-2.8027 0.2957-4.0527 0.8457-1.25 0.551-2.3469 1.3536-3.2969 2.3496-0.949 1-1.699 2.152-2.25 3.5-0.55 1.352-0.84961 2.7995-0.84961 4.3965 0 1.25 0.20161 2.3494 0.59961 3.4004 0.352 1 0.90061 1.8508 1.5996 2.5508 0.652 0.749 1.4983 1.2962 2.4473 1.6992 0.949 0.348 2.0014 0.54687 3.1504 0.54687 1.402 0 2.75-0.29665 4-0.84765s2.3469-1.3536 3.2969-2.3496c0.953-0.953 1.703-2.152 2.25-3.5 0.55-1.351 0.84961-2.8472 0.84961-4.4492 0-1.25-0.19761-2.3965-0.59961-3.3965-0.399-1-0.94966-1.8476-1.5977-2.5976-0.699-0.699-1.5002-1.2506-2.4492-1.6016-0.95-0.34801-1.9996-0.54688-3.0976-0.54688zm-31.291 0.24805-3.3477 18.742h3.6992l1.2461-7.1504h6.75l0.59765-3.3965h-6.7461l0.84766-4.7988h6.6484l0.60157-3.3965h-10.297zm53.721 0-1.9492 10.893c-0.047 0.44901-0.09744 0.90061-0.14844 1.3496s-0.05078 0.79939-0.05078 1.1504c0 1 0.15222 1.8496 0.44922 2.5996 0.30099 0.75 0.70312 1.301 1.2031 1.75 0.547 0.449 1.1489 0.797 1.7969 1 0.69999 0.199 1.3984 0.29688 2.1484 0.29688 1.851 0 3.5-0.54817 5-1.7012 0 0.25-2.2e-4 0.55251 0.05078 0.85351 0 0.25 8.8e-4 0.5 0.04688 0.75l3.6484-0.25c-0.047-0.25-0.04688-0.50173-0.04688-0.80273-0.051-0.25-0.05078-0.54949-0.05078-0.89649 0-0.602 0.05066-1.2514 0.09766-1.9004 0.051-0.699 0.101-1.3512 0.25-1.9492l2.3008-13.143h-3.6484l-2.3984 13.691c-0.5 0.551-1.1016 0.99839-1.8516 1.4004-0.75 0.348-1.5472 0.54688-2.4492 0.54688-0.898 0-1.5976-0.19866-2.0976-0.59766-0.55001-0.449-0.80079-1.1482-0.80079-2.1992 0-0.199 0.05057-0.49848 0.10157-0.89648 0.051-0.352 0.05065-0.703 0.09765-1l2-10.945h-3.6992zm29.492 0-3.3496 18.742h3.5996l2-11.297c0.051-0.148 0.05078-0.39844 0.05078-0.64844v-0.85156h0.14649l6.5527 12.943 3.1934-0.29883 3.25-18.59h-3.5469l-1.9004 11.043c-0.04701 0.152-0.09961 0.402-0.09961 0.75v0.8496h-0.15039l-6.3965-12.643h-3.3496zm63.527 0c-0.80099 1.347-1.6506 2.8979-2.5996 4.5469-0.95 1.648-1.849 3.3459-2.748 5.0449-0.902 1.7-1.6992 3.3492-2.4492 4.9512-0.75 1.597-1.3508 2.9992-1.8008 4.1992h3.8476c0.152-0.352 0.301-0.801 0.5-1.25 0.19901-0.449 0.40235-0.95039 0.65235-1.4004 0.2-0.453 0.39865-0.90061 0.59765-1.3496 0.19901-0.449 0.40074-0.84821 0.55274-1.1992h6.4961c0.051 0.449 0.05057 0.89843 0.10157 1.3984l0.14843 1.4473c0.051 0.449 0.10039 0.90451 0.15039 1.3535 0.047 0.449 0.04688 0.79549 0.04688 1.1465l3.6992-0.29883c0-0.7-0.04849-1.5022-0.14649-2.4512-0.051-0.949-0.20051-1.9491-0.35351-2.9961-0.148-1.051-0.3-2.1986-0.5-3.3516-0.148-1.148-0.34571-2.2963-0.59571-3.4453-0.199-1.152-0.40429-2.2486-0.65429-3.3496-0.25-1.047-0.44922-2.0471-0.69922-2.9961h-4.2461zm46.027 0-3.3457 18.742h3.6934l3.3027-18.742h-3.6504zm48.383 0-3.3457 18.742h3.5957l2-11.297c0.051-0.148 0.05078-0.39844 0.05078-0.64844v-0.85156h0.15039l6.5449 12.943 3.2012-0.29883 3.25-18.59h-3.5508l-1.9004 11.043c-0.05001 0.152-0.09571 0.402-0.09571 0.75v0.8496h-0.15429l-6.3926-12.643h-3.3535zm-73.719 0.00195-0.55078 3.3984h4.5469l-2.6504 15.344h3.6504l2.6992-15.344h4.5508l0.54688-3.3984h-12.793zm50.525 3.0898c1.449 0 2.5 0.45161 3.25 1.3496 0.75 0.852 1.1484 2.1005 1.1484 3.6465 0 0.95-0.14822 1.9045-0.44922 2.8535-0.25 0.898-0.64822 1.6975-1.1992 2.3965-0.551 0.7-1.1992 1.2502-1.9492 1.6992-0.75 0.399-1.598 0.59765-2.5 0.59765-1.45 0-2.4961-0.44887-3.2461-1.2969-0.75-0.902-1.1523-2.0995-1.1523-3.6465 0-0.949 0.15312-1.9035 0.45312-2.8535 0.297-0.898 0.69922-1.6975 1.1992-2.3965 0.546-0.699 1.1992-1.2502 1.9492-1.6992s1.5471-0.65039 2.4961-0.65039zm-187.17 0.00586c1.449 0 2.4941 0.45161 3.2441 1.3496 0.75 0.852 1.1523 2.1005 1.1523 3.6465 0 0.95-0.15212 1.9045-0.45312 2.8535-0.25 0.898-0.64822 1.6975-1.1992 2.3965-0.547 0.7-1.1973 1.2502-1.9473 1.6992-0.75 0.399-1.5981 0.59765-2.4961 0.59765-1.449 0-2.5-0.44887-3.25-1.2969-0.75-0.902-1.1504-2.0995-1.1504-3.6465 0-0.949 0.15017-1.9035 0.45117-2.8535 0.3-0.898 0.69922-1.6975 1.1992-2.3965 0.551-0.699 1.1992-1.2502 1.9492-1.6992s1.551-0.65039 2.5-0.65039zm87.904 0.04883c0.75 0 1.4506 0.098 2.0996 0.25 0.652 0.149 1.1975 0.45061 1.6465 0.84961 0.5 0.398 0.90234 0.89778 1.1523 1.5508 0.25 0.597 0.39844 1.3459 0.39844 2.2949 0 1.2-0.149 2.2512-0.5 3.2012-0.301 0.949-0.74966 1.7504-1.3477 2.3984-0.601 0.652-1.3013 1.1003-2.1523 1.4473-0.848 0.352-1.7459 0.5-2.7969 0.5-0.449 0-0.89626 1.2e-4 -1.4473-0.04688-0.551-0.05-1.0524-0.09939-1.4004-0.15039l2.1504-12.096c0.301-0.05 0.69748-0.09939 1.1465-0.15039 0.449-0.047 0.80078-0.04883 1.0508-0.04883zm29.445 0.90039h0.19921c0.101 0.398 0.19879 0.898 0.30079 1.5 0.101 0.55 0.19782 1.1469 0.29882 1.7949 0.098 0.602 0.2 1.204 0.25 1.75 0.098 0.551 0.15018 0.94878 0.20118 1.3008h-4.6504c0.25-0.449 0.5-0.949 0.75-1.5 0.301-0.55099 0.5994-1.148 0.9004-1.75 0.351-0.597 0.64821-1.1463 0.94921-1.6973s0.55079-1.0474 0.80079-1.3984z" fill="#777"/>
</svg>
